SplineFontDB: 3.0
FontName: Belgika-40th
FullName: Belgika 40th
FamilyName: Belgika
Weight: 40th
Copyright: Copyright (c) 2014-2015, Pierre Huyghebaert\n\nOSP: Version 1.0 (http://ospublish.constantvzw.org/foundry)\n\nBelgica and Belgika fonts are released under the OFL 1.1 -- http://scripts.sil.org/OFL\n\nFor information on what you're allowed to change or modify, \nconsult the OFL-1.1.txt and OFL-FAQ.txt files.  The OFL-FAQ also gives a very general rationale and various recommendations regarding why you would want to contribute to the project or make your own version of the font.
UComments: "2014-12-26: Created with FontForge (http://fontforge.org)"
Version: 001.000
StrokeWidth: 50
ItalicAngle: 0
UnderlinePosition: -100
UnderlineWidth: 50
Ascent: 800
Descent: 200
InvalidEm: 0
sfntRevision: 0x00010000
LayerCount: 2
Layer: 0 0 "Back" 1
Layer: 1 0 "Fore" 0
XUID: [1021 878 1716694747 13563712]
FSType: 0
OS2Version: 0
OS2_WeightWidthSlopeOnly: 0
OS2_UseTypoMetrics: 1
CreationTime: 1419624870
ModificationTime: 1425459573
PfmFamily: 17
TTFWeight: 300
TTFWidth: 5
LineGap: 90
VLineGap: 0
OS2TypoAscent: 0
OS2TypoAOffset: 1
OS2TypoDescent: 0
OS2TypoDOffset: 1
OS2TypoLinegap: 90
OS2WinAscent: 0
OS2WinAOffset: 1
OS2WinDescent: 0
OS2WinDOffset: 1
HheadAscent: 0
HheadAOffset: 1
HheadDescent: 0
HheadDOffset: 1
OS2CapHeight: 0
OS2XHeight: 0
OS2Vendor: 'PfEd'
MarkAttachClasses: 1
DEI: 91125
Encoding: ISO8859-1
UnicodeInterp: none
NameList: AGL For New Fonts
DisplaySize: -48
AntiAlias: 1
FitToEm: 1
WidthSeparation: 150
WinInfo: 40 20 11
BeginPrivate: 0
EndPrivate
Grid
-656.579101562 -52.6826171875 m 0
 2270.25097656 -52.6826171875 l 1024
  Named: "accent-low"
-656.579101562 366.829101562 m 0
 2270.25097656 366.829101562 l 1024
  Named: "x-height"
EndSplineSet
BeginChars: 256 256

StartChar: A
Encoding: 65 65 0
Width: 621
VWidth: 9
Flags: W
HStem: 265.366 19.5117<145.201 476.304> 780 20G<310.575 312.214> 780 20G<310.575 312.214>
LayerCount: 2
Back
Fore
SplineSet
145.201171875 284.877929688 m 1x80
 476.303710938 284.877929688 l 1
 405.26953125 488.4765625 335.258789062 689.368164062 310.522460938 760.623046875 c 1
 145.201171875 284.877929688 l 1x80
585.900390625 0.5458984375 m 0
 580.883789062 -1.20703125 575.225585938 1.521484375 573.47265625 6.5380859375 c 0
 545.994140625 85.1923828125 514.590820312 175.147460938 483.112304688 265.366210938 c 1
 138.420898438 265.366210938 l 1
 48.4833984375 6.5537109375 l 2
 46.7392578125 1.5341796875 41.0859375 -1.2041015625 36.0654296875 0.541015625 c 0
 31.0458984375 2.28515625 28.30859375 7.9384765625 30.052734375 12.9580078125 c 2
 301.272460938 793.446289062 l 2
 302.653320312 797.420898438 306.486328125 799.965820312 310.514648438 799.985351562 c 0
 310.541992188 799.995117188 310.564453125 800 310.584960938 800 c 0xc0
 313.84375 800 315.776367188 799.206054688 317.259765625 797.235351562 c 0
 319.029296875 795.493164062 320.102539062 793.108398438 320.21875 790.619140625 c 0
 320.259765625 790.49609375 320.30078125 790.370117188 320.341796875 790.244140625 c 0
 321.1640625 787.823242188 410.30078125 532.717773438 499.029296875 278.768554688 c 0
 499.166015625 278.4375 499.28515625 278.09765625 499.384765625 277.750976562 c 0
 531.72265625 185.197265625 563.991210938 92.841796875 591.893554688 12.9736328125 c 0
 593.645507812 7.95703125 590.916992188 2.298828125 585.900390625 0.5458984375 c 0
EndSplineSet
Validated: 1
EndChar

StartChar: B
Encoding: 66 66 1
Width: 644
VWidth: 9
Flags: W
HStem: 0.975586 19.4717<127.066 418.151> 468.293 19.5117<127.066 326.574 353.284 414.093> 780.488 19.5117<127.066 323.307>
VStem: 107.555 19.5117<20.4473 468.293 487.805 780.488> 419.76 19.5117<582.285 683.658> 575.854 19.5117<182.348 304.783>
LayerCount: 2
Back
Fore
SplineSet
268.958007812 468.29296875 m 2
 127.06640625 468.29296875 l 1
 127.06640625 20.447265625 l 1
 351.497070312 19.51171875 l 2
 475.235351562 19.51171875 575.854492188 119.145507812 575.854492188 243.78515625 c 0
 575.854492188 367.375 477.112304688 467.362304688 353.334960938 468.29296875 c 2
 291.57421875 468.29296875 l 2
 285.63671875 467.655273438 279.530273438 467.317382812 273.505859375 467.317382812 c 0
 272.500976562 467.317382812 270.487304688 467.795898438 268.958007812 468.29296875 c 2
127.06640625 487.8046875 m 1
 290.487304688 487.8046875 l 2
 300.12109375 488.948242188 309.596679688 491.016601562 318.432617188 493.875976562 c 0
 377.096679688 512.856445312 419.759765625 567.999023438 419.759765625 633.997070312 c 0
 419.759765625 714.576171875 354.208007812 779.580078125 274.328125 780.48828125 c 2
 127.06640625 780.48828125 l 1
 127.06640625 487.8046875 l 1
353.284179688 487.805664062 m 1
 487.907226562 486.793945312 595.366210938 378.021484375 595.366210938 243.784179688 c 0
 595.366210938 108.321289062 485.999023438 0 351.436523438 0 c 2
 117.26953125 0.9755859375 l 2
 111.712890625 0.9990234375 107.5546875 5.9189453125 107.5546875 10.7314453125 c 2
 107.5546875 790.244140625 l 2
 107.5546875 796.149414062 113.123046875 800 117.310546875 800 c 2
 274.439453125 800 l 2
 365.07421875 798.969726562 439.271484375 725.416992188 439.271484375 634.0078125 c 0
 439.271484375 570.788085938 404.30078125 516.28125 353.284179688 487.805664062 c 1
EndSplineSet
Validated: 1
EndChar

StartChar: C
Encoding: 67 67 2
Width: 709
VWidth: 9
Flags: W
HStem: 0 19.5117<336.686 485.32> 780.488 19.5117<336.686 485.322>
VStem: 88.0488 19.5117<249.15 550.85>
LayerCount: 2
Back
Fore
SplineSet
638.362304688 108.362304688 m 0
 642.120117188 104.604492188 642.120117188 98.322265625 638.362304688 94.564453125 c 0
 580.071289062 36.2734375 500.494140625 0 410.975585938 0 c 0
 232.940429688 0 88.048828125 143.846679688 88.048828125 321.951171875 c 2
 88.048828125 478.048828125 l 2
 88.048828125 656.153320312 232.940429688 800 410.975585938 800 c 0
 500.494140625 800 580.069335938 763.725585938 638.454101562 705.44140625 c 0
 642.21484375 701.686523438 642.219726562 695.405273438 638.465820312 691.643554688 c 0
 634.7109375 687.8828125 628.428710938 687.877929688 624.66796875 691.631835938 c 0
 569.686523438 746.518554688 495.115234375 780.48828125 410.975585938 780.48828125 c 0
 243.64453125 780.48828125 107.560546875 645.309570312 107.560546875 478.048828125 c 2
 107.560546875 321.951171875 l 2
 107.560546875 154.690429688 243.64453125 19.51171875 410.975585938 19.51171875 c 0
 495.116210938 19.51171875 569.684570312 53.482421875 624.564453125 108.362304688 c 0
 628.322265625 112.120117188 634.604492188 112.120117188 638.362304688 108.362304688 c 0
EndSplineSet
Validated: 1
EndChar

StartChar: D
Encoding: 68 68 3
Width: 780
VWidth: 9
Flags: W
HStem: 0 19.5117<127.073 392.59> 780.488 19.5117<127.073 393.792>
VStem: 107.561 19.5127<19.5117 780.488> 691.947 19.5195<316.157 483.843>
LayerCount: 2
Back
Fore
SplineSet
127.073242188 19.51171875 m 1
 311.463867188 19.51171875 l 2
 407.526367188 19.51171875 506.49609375 56.634765625 580.662109375 130.80078125 c 0
 654.852539062 204.991210938 691.947265625 302.49609375 691.947265625 400 c 0
 691.947265625 497.50390625 654.852539062 595.008789062 580.662109375 669.19921875 c 0
 506.448242188 743.413085938 409.471679688 780.48828125 312.439453125 780.48828125 c 2
 127.073242188 780.48828125 l 1
 127.073242188 19.51171875 l 1
107.560546875 9.755859375 m 2
 107.560546875 790.244140625 l 2
 107.560546875 796.149414062 113.129882812 800 117.317382812 800 c 2
 312.439453125 800 l 2
 414.430664062 800 516.478515625 760.9765625 594.459960938 682.99609375 c 0
 672.46484375 604.9921875 711.466796875 502.49609375 711.466796875 400 c 0
 711.466796875 297.50390625 672.46484375 195.0078125 594.459960938 117.00390625 c 0
 516.430664062 38.9755859375 412.473632812 0 311.463867188 0 c 2
 117.317382812 0 l 2
 111.412109375 0 107.560546875 5.568359375 107.560546875 9.755859375 c 2
EndSplineSet
Validated: 1
EndChar

StartChar: E
Encoding: 69 69 4
Width: 615
VWidth: 9
Flags: W
HStem: 0 19.5117<127.073 556.339> 390.244 19.5117<127.073 478.29> 780.488 19.5117<127.073 556.339>
VStem: 107.561 19.5127<19.5117 390.244 409.756 780.488>
CounterMasks: 1 e0
LayerCount: 2
Back
Fore
SplineSet
556.341796875 790.244140625 m 0
 556.341796875 784.9296875 551.899414062 780.48828125 546.584960938 780.48828125 c 2
 127.073242188 780.48828125 l 1
 127.073242188 409.755859375 l 1
 468.536132812 409.755859375 l 2
 473.850585938 409.755859375 478.29296875 405.314453125 478.29296875 400 c 0
 478.29296875 394.685546875 473.850585938 390.244140625 468.536132812 390.244140625 c 2
 127.073242188 390.244140625 l 1
 127.073242188 19.51171875 l 1
 546.584960938 19.51171875 l 2
 551.899414062 19.51171875 556.341796875 15.0703125 556.341796875 9.755859375 c 0
 556.341796875 4.4423828125 551.899414062 0 546.584960938 0 c 2
 117.317382812 0 l 2
 113.129882812 0 107.560546875 3.8505859375 107.560546875 9.755859375 c 2
 107.560546875 400 l 1
 107.560546875 790.244140625 l 2
 107.560546875 794.431640625 111.412109375 800 117.317382812 800 c 2
 546.584960938 800 l 2
 551.899414062 800 556.341796875 795.557617188 556.341796875 790.244140625 c 0
EndSplineSet
Validated: 1
EndChar

StartChar: F
Encoding: 70 70 5
Width: 566
VWidth: 9
Flags: W
HStem: 0 21G<114.66 119.974> 0 21G<114.66 119.974> 390.244 19.5117<127.073 478.29> 780.488 19.5117<127.073 556.339>
VStem: 107.561 19.5127<0.00324007 390.244 409.756 780.488>
LayerCount: 2
Back
Fore
SplineSet
556.341796875 790.244140625 m 0xb8
 556.341796875 784.9296875 551.899414062 780.48828125 546.584960938 780.48828125 c 2
 127.073242188 780.48828125 l 1
 127.073242188 409.755859375 l 1
 468.536132812 409.755859375 l 2
 473.850585938 409.755859375 478.29296875 405.314453125 478.29296875 400 c 0
 478.29296875 394.685546875 473.850585938 390.244140625 468.536132812 390.244140625 c 2
 127.073242188 390.244140625 l 1
 127.073242188 9.755859375 l 2
 127.073242188 4.4423828125 122.630859375 0 117.317382812 0 c 0
 112.002929688 0 107.560546875 4.4423828125 107.560546875 9.755859375 c 2
 107.560546875 400 l 1
 107.560546875 790.244140625 l 2
 107.560546875 794.431640625 111.412109375 800 117.317382812 800 c 2
 546.584960938 800 l 2
 551.899414062 800 556.341796875 795.557617188 556.341796875 790.244140625 c 0xb8
EndSplineSet
Validated: 1
EndChar

StartChar: G
Encoding: 71 71 6
Width: 842
VWidth: 9
Flags: W
HStem: 0 19.5117<384.906 553.76> 365.854 19.5127<519.272 734.878> 780.488 19.5117<384.118 553.433>
VStem: 68.5361 19.5127<316.369 483.631> 734.878 19.5127<121.235 365.854>
LayerCount: 2
Back
Fore
SplineSet
519.268554688 375.609375 m 0
 519.268554688 380.923828125 523.709960938 385.366210938 529.024414062 385.366210938 c 2
 744.633789062 385.366210938 l 2
 750.5390625 385.366210938 754.390625 379.796875 754.390625 375.609375 c 2
 754.390625 123.90234375 l 2
 754.390625 121.266601562 753.052734375 118.5234375 751.533203125 117.00390625 c 0
 673.526367188 38.9970703125 570.515625 0 468.536132812 0 c 0
 366.557617188 0 263.546875 38.9970703125 185.540039062 117.00390625 c 0
 107.534179688 195.010742188 68.5361328125 298.020507812 68.5361328125 400 c 0
 68.5361328125 501.979492188 107.534179688 604.989257812 185.540039062 682.99609375 c 0
 263.521484375 760.9765625 365.569335938 800 467.560546875 800 c 0
 569.47265625 800 672.510742188 762.015625 750.650390625 683.9765625 c 0
 754.41015625 680.220703125 754.4140625 673.939453125 750.659179688 670.178710938 c 0
 746.904296875 666.418945312 740.622070312 666.415039062 736.862304688 670.169921875 c 0
 662.611328125 744.325195312 564.673828125 780.48828125 467.560546875 780.48828125 c 0
 370.528320312 780.48828125 273.551757812 743.413085938 199.337890625 669.19921875 c 0
 125.149414062 595.010742188 88.048828125 497.044921875 88.048828125 400 c 0
 88.048828125 302.955078125 125.149414062 204.989257812 199.337890625 130.80078125 c 0
 273.526367188 56.6123046875 371.491210938 19.51171875 468.536132812 19.51171875 c 0
 564.328125 19.51171875 659.975585938 54.9306640625 734.877929688 127.97265625 c 1
 734.877929688 365.853515625 l 1
 529.024414062 365.853515625 l 2
 523.709960938 365.853515625 519.268554688 370.295898438 519.268554688 375.609375 c 0
EndSplineSet
Validated: 1
EndChar

StartChar: H
Encoding: 72 72 7
Width: 702
VWidth: 9
Flags: W
HStem: 0 21G<114.66 119.974 582.953 588.267> 0 21G<114.66 119.974 582.953 588.267> 390.244 19.5117<127.073 575.854> 780 20G<114.66 119.974 582.953 588.267> 780 20G<114.66 119.974 582.953 588.267>
VStem: 107.561 19.5127<0.00324007 390.244 409.756 799.997> 575.854 19.5127<0.00324007 390.244 409.756 799.997>
LayerCount: 2
Back
Fore
SplineSet
117.317382812 0 m 0xb6
 112.002929688 0 107.560546875 4.4423828125 107.560546875 9.755859375 c 2
 107.560546875 400 l 1
 107.560546875 790.244140625 l 2
 107.560546875 795.557617188 112.002929688 800 117.317382812 800 c 0
 122.630859375 800 127.073242188 795.557617188 127.073242188 790.244140625 c 2
 127.073242188 409.755859375 l 1
 575.853515625 409.755859375 l 1
 575.853515625 790.244140625 l 2
 575.853515625 795.557617188 580.295898438 800 585.609375 800 c 0
 590.923828125 800 595.366210938 795.557617188 595.366210938 790.244140625 c 2
 595.366210938 9.755859375 l 2
 595.366210938 4.4423828125 590.923828125 0 585.609375 0 c 0
 580.295898438 0 575.853515625 4.4423828125 575.853515625 9.755859375 c 2
 575.853515625 390.244140625 l 1
 127.073242188 390.244140625 l 1
 127.073242188 9.755859375 l 2
 127.073242188 4.4423828125 122.630859375 0 117.317382812 0 c 0xb6
EndSplineSet
Validated: 1
EndChar

StartChar: I
Encoding: 73 73 8
Width: 258
VWidth: 9
Flags: W
HStem: 0 21G<126.367 131.682> 0 21G<126.367 131.682> 780 20G<126.367 131.682> 780 20G<126.367 131.682>
VStem: 119.269 19.5117<0.00324007 799.997>
LayerCount: 2
Back
Fore
SplineSet
129.024414062 800 m 0xa8
 134.338867188 800 138.780273438 795.557617188 138.780273438 790.244140625 c 2
 138.780273438 9.755859375 l 2
 138.780273438 4.4423828125 134.338867188 0 129.024414062 0 c 0
 123.709960938 0 119.268554688 4.4423828125 119.268554688 9.755859375 c 2
 119.268554688 790.244140625 l 2
 119.268554688 795.557617188 123.709960938 800 129.024414062 800 c 0xa8
EndSplineSet
Validated: 1
EndChar

StartChar: J
Encoding: 74 74 9
Width: 440
VWidth: 9
Flags: W
HStem: 0 19.5117<132.773 235.278> 780 20G<340.026 345.34> 780 20G<340.026 345.34>
VStem: 332.927 19.5127<117.722 799.997>
LayerCount: 2
Back
Fore
SplineSet
35.482421875 113.381835938 m 0xd0
 40.3798828125 115.444335938 46.197265625 113.07421875 48.259765625 108.17578125 c 0
 55.5498046875 90.86328125 66.27734375 75.6162109375 80.1943359375 62.626953125 c 0
 106.920898438 35.9013671875 144.325195312 19.51171875 184.633789062 19.51171875 c 0
 267.075195312 19.51171875 332.926757812 85.3642578125 332.926757812 167.8046875 c 2
 332.926757812 790.244140625 l 2
 332.926757812 795.557617188 337.369140625 800 342.682617188 800 c 0
 347.997070312 800 352.439453125 795.557617188 352.439453125 790.244140625 c 2
 352.439453125 167.8046875 l 2
 352.439453125 74.6357421875 277.802734375 0 184.633789062 0 c 0
 139.08984375 0 96.494140625 18.7333984375 66.634765625 48.591796875 c 0
 51.283203125 62.919921875 38.5966796875 80.84375 30.2763671875 100.604492188 c 0
 28.21484375 105.501953125 30.5849609375 111.319335938 35.482421875 113.381835938 c 0xd0
EndSplineSet
Validated: 1
EndChar

StartChar: K
Encoding: 75 75 10
Width: 624
VWidth: 9
Flags: W
HStem: 0 21G<114.66 119.974> 0 21G<114.66 119.974> 780 20G<114.66 119.974> 780 20G<114.66 119.974>
VStem: 107.561 19.5127<0.00324007 799.997>
LayerCount: 2
Back
Fore
SplineSet
117.317382812 800 m 0xa8
 122.630859375 800 127.073242188 795.557617188 127.073242188 790.244140625 c 2
 127.073242188 9.755859375 l 2
 127.073242188 4.4423828125 122.630859375 0 117.317382812 0 c 0
 112.002929688 0 107.560546875 4.4423828125 107.560546875 9.755859375 c 2
 107.560546875 790.244140625 l 2
 107.560546875 795.557617188 112.002929688 800 117.317382812 800 c 0xa8
573.030273438 797.108398438 m 0
 576.76953125 793.33203125 576.73828125 787.049804688 572.961914062 783.311523438 c 2
 185.817382812 400 l 1
 572.961914062 16.6884765625 l 2
 576.73828125 12.9501953125 576.76953125 6.66796875 573.030273438 2.8916015625 c 0
 569.291015625 -0.884765625 563.009765625 -0.916015625 559.233398438 2.8232421875 c 2
 165.086914062 393.067382812 l 2
 161.184570312 396.931640625 161.33984375 403.22265625 165.086914062 406.932617188 c 2
 559.233398438 797.176757812 l 2
 563.009765625 800.916015625 569.291015625 800.884765625 573.030273438 797.108398438 c 0
EndSplineSet
Validated: 1
EndChar

StartChar: L
Encoding: 76 76 11
Width: 624
VWidth: 9
Flags: W
HStem: 0 19.5117<127.073 595.363> 780 20G<114.66 119.974> 780 20G<114.66 119.974>
VStem: 107.561 19.5127<19.5117 799.997>
LayerCount: 2
Back
Fore
SplineSet
117.317382812 800 m 0xd0
 122.630859375 800 127.073242188 795.557617188 127.073242188 790.244140625 c 2
 127.073242188 19.51171875 l 1
 585.609375 19.51171875 l 2
 590.923828125 19.51171875 595.366210938 15.0703125 595.366210938 9.755859375 c 0
 595.366210938 4.4423828125 590.923828125 0 585.609375 0 c 2
 117.317382812 0 l 2
 113.129882812 0 107.560546875 3.8505859375 107.560546875 9.755859375 c 2
 107.560546875 790.244140625 l 2
 107.560546875 795.557617188 112.002929688 800 117.317382812 800 c 0xd0
EndSplineSet
Validated: 1
EndChar

StartChar: M
Encoding: 77 77 12
Width: 1017
VWidth: 9
Flags: W
HStem: 0 21G<114.66 119.974 897.099 902.413> 0 21G<114.66 119.974 897.099 902.413> 780 20G<114.625 119.255 898.83 900.141> 780 20G<114.625 119.255 898.83 900.141>
VStem: 107.561 19.5127<0.00324007 749.1 794.461 799.997> 890 19.5117<0.00324007 748.916>
LayerCount: 2
Back
Fore
SplineSet
107.560546875 790.244140625 m 2xac
 107.560546875 795.62890625 111.931640625 800 117.317382812 800 c 0
 121.192382812 800 124.541992188 797.737304688 126.116210938 794.4609375 c 2
 509.490234375 31.52734375 l 1
 891.030273438 794.607421875 l 2
 891.8671875 796.282226562 893.149414062 797.61328125 894.666015625 798.53125 c 0
 896.15625 799.459960938 897.903320312 800 899.755859375 800 c 0
 900.526367188 800 901.278320312 799.90625 902.000976562 799.73046875 c 0
 902.72265625 799.564453125 903.43359375 799.3125 904.119140625 798.969726562 c 0
 905.790039062 798.134765625 907.119140625 796.856445312 908.036132812 795.34375 c 0
 908.96875 793.8515625 909.51171875 792.1015625 909.51171875 790.244140625 c 2
 909.51171875 9.755859375 l 2
 909.51171875 4.4423828125 905.0703125 0 899.755859375 0 c 0
 894.442382812 0 890 4.4423828125 890 9.755859375 c 2
 890 748.916015625 l 1
 518.23828125 5.392578125 l 2
 517.755859375 4.427734375 517.125 3.576171875 516.38671875 2.8525390625 c 0
 515.673828125 2.130859375 514.837890625 1.5146484375 513.892578125 1.0390625 c 0
 512.499023438 0.3388671875 511 0.013671875 509.518554688 0.0244140625 c 0
 508.0390625 0.01171875 506.541992188 0.333984375 505.149414062 1.0302734375 c 0
 504.197265625 1.505859375 503.356445312 2.1259765625 502.639648438 2.8505859375 c 0
 501.905273438 3.5703125 501.27734375 4.416015625 500.794921875 5.3759765625 c 2
 127.073242188 749.099609375 l 1
 127.073242188 9.755859375 l 2
 127.073242188 4.4423828125 122.630859375 0 117.317382812 0 c 0
 112.002929688 0 107.560546875 4.4423828125 107.560546875 9.755859375 c 2
 107.560546875 790.244140625 l 2xac
EndSplineSet
Validated: 1
EndChar

StartChar: N
Encoding: 78 78 13
Width: 780
VWidth: 9
Flags: W
HStem: 0 21G<114.66 119.974 662.855 664.166> 0 21G<114.66 119.974 662.855 664.166> 780 20G<116.81 118.12 661.001 666.315> 780 20G<116.81 118.12 661.001 666.315>
VStem: 107.561 19.5127<0.00324007 759.294> 653.902 19.5127<40.7061 799.997>
LayerCount: 2
Back
Fore
SplineSet
663.658203125 800 m 0xac
 668.97265625 800 673.415039062 795.557617188 673.415039062 790.244140625 c 2
 673.415039062 9.755859375 l 2
 673.415039062 8.1357421875 673.001953125 6.59765625 672.278320312 5.2412109375 c 0
 671.58203125 3.88671875 670.56640625 2.6826171875 669.252929688 1.763671875 c 0
 668.418945312 1.1796875 667.516601562 0.7470703125 666.583007812 0.4609375 c 0
 665.65625 0.162109375 664.672851562 -0 663.658203125 0 c 0
 662.052734375 0 660.526367188 0.40625 659.177734375 1.119140625 c 0
 657.810546875 1.814453125 656.592773438 2.8369140625 655.666015625 4.1611328125 c 2
 127.073242188 759.293945312 l 1
 127.073242188 9.755859375 l 2
 127.073242188 4.4423828125 122.630859375 0 117.317382812 0 c 0
 112.002929688 0 107.560546875 4.4423828125 107.560546875 9.755859375 c 2
 107.560546875 790.244140625 l 2
 107.560546875 791.864257812 107.973632812 793.40234375 108.697265625 794.758789062 c 0
 109.393554688 796.11328125 110.409179688 797.317382812 111.72265625 798.236328125 c 0
 112.556640625 798.8203125 113.458984375 799.252929688 114.392578125 799.5390625 c 0
 115.319335938 799.837890625 116.302734375 800 117.317382812 800 c 0
 118.922851562 800 120.44921875 799.59375 121.797851562 798.880859375 c 0
 123.165039062 798.185546875 124.3828125 797.163085938 125.309570312 795.838867188 c 2
 653.90234375 40.7060546875 l 1
 653.90234375 790.244140625 l 2
 653.90234375 795.557617188 658.344726562 800 663.658203125 800 c 0xac
EndSplineSet
Validated: 1
EndChar

StartChar: O
Encoding: 79 79 14
Width: 937
VWidth: 9
Flags: W
HStem: 0 19.5117<385.24 551.832> 780.488 19.5117<385.24 551.832>
VStem: 68.5361 19.5127<316.704 483.296> 849.024 19.5117<316.704 483.296>
LayerCount: 2
Back
Fore
SplineSet
468.536132812 19.51171875 m 0
 678.760742188 19.51171875 849.024414062 189.775390625 849.024414062 400 c 0
 849.024414062 610.224609375 678.760742188 780.48828125 468.536132812 780.48828125 c 0
 258.3125 780.48828125 88.048828125 610.224609375 88.048828125 400 c 0
 88.048828125 189.775390625 258.3125 19.51171875 468.536132812 19.51171875 c 0
468.536132812 0 m 0
 247.541992188 0 68.5361328125 179.004882812 68.5361328125 400 c 0
 68.5361328125 620.995117188 247.541992188 800 468.536132812 800 c 0
 689.53125 800 868.536132812 620.995117188 868.536132812 400 c 0
 868.536132812 179.004882812 689.53125 0 468.536132812 0 c 0
EndSplineSet
Validated: 1
EndChar

StartChar: P
Encoding: 80 80 15
Width: 642
VWidth: 9
Flags: W
HStem: 0 21G<114.66 119.974> 0 21G<114.66 119.974> 312.195 19.5117<127.073 410.408> 780.488 19.5117<127.073 412.272>
VStem: 107.561 19.5127<0.00324007 312.195 331.707 780.488> 573.909 19.5117<494.535 616.969>
LayerCount: 2
Back
Fore
SplineSet
127.073242188 312.1953125 m 1xbc
 127.073242188 9.755859375 l 2
 127.073242188 4.4423828125 122.630859375 0 117.317382812 0 c 0
 112.002929688 0 107.560546875 4.4423828125 107.560546875 9.755859375 c 2
 107.560546875 790.244140625 l 2
 107.560546875 794.431640625 111.412109375 800 117.317382812 800 c 2
 351.463867188 800 l 2
 486.110351562 798.987304688 593.420898438 690.2109375 593.420898438 555.970703125 c 0
 593.420898438 420.512695312 484.037109375 312.1953125 349.51171875 312.1953125 c 2
 127.073242188 312.1953125 l 1xbc
127.073242188 331.70703125 m 1
 349.51171875 331.70703125 l 2
 473.322265625 331.70703125 573.909179688 431.336914062 573.909179688 555.965820312 c 0
 573.909179688 679.563476562 475.142578125 779.557617188 351.426757812 780.48828125 c 2
 127.073242188 780.48828125 l 1
 127.073242188 331.70703125 l 1
EndSplineSet
Validated: 1
EndChar

StartChar: Q
Encoding: 81 81 16
Width: 940
VWidth: 9
Flags: W
HStem: 0 19.5117<387.097 553.432> 780.488 19.5117<387.097 553.879>
VStem: 68.5361 19.5127<321.328 478.672> 852.927 19.5127<316.768 478.672>
LayerCount: 2
Back
Fore
SplineSet
470.48828125 0 m 0
 249.5390625 0 68.5361328125 178.939453125 68.5361328125 400 c 0
 68.5361328125 621.060546875 249.5390625 800 470.48828125 800 c 0
 691.436523438 800 872.439453125 621.060546875 872.439453125 400 c 0
 872.439453125 292.733398438 829.821289062 195.383789062 760.701171875 123.583984375 c 1
 867.629882812 16.654296875 l 2
 871.387695312 12.8974609375 871.387695312 6.615234375 867.629882812 2.857421875 c 0
 863.873046875 -0.900390625 857.590820312 -0.900390625 853.833007812 2.857421875 c 2
 746.833984375 109.856445312 l 1
 674.643554688 41.7607421875 577.2265625 0 470.48828125 0 c 0
625.540039062 244.947265625 m 0
 629.297851562 248.705078125 635.580078125 248.705078125 639.337890625 244.947265625 c 2
 746.895507812 137.388671875 l 1
 812.498046875 205.672851562 852.926757812 298.16015625 852.926757812 400 c 0
 852.926757812 610.159179688 680.758789062 780.48828125 470.48828125 780.48828125 c 0
 260.216796875 780.48828125 88.048828125 610.159179688 88.048828125 400 c 0
 88.048828125 189.840820312 260.216796875 19.51171875 470.48828125 19.51171875 c 0
 571.866210938 19.51171875 664.38671875 59.1044921875 733.025390625 123.665039062 c 1
 625.540039062 231.150390625 l 2
 621.783203125 234.908203125 621.783203125 241.189453125 625.540039062 244.947265625 c 0
EndSplineSet
Validated: 1
EndChar

StartChar: R
Encoding: 82 82 17
Width: 585
VWidth: 9
Flags: W
HStem: 0 21G<114.651 119.966> 0 21G<114.651 119.966> 390.244 19.5117<127.064 285.927 307.764 368.487> 780.488 19.5117<127.064 369.251>
VStem: 107.553 19.5117<0.00324007 390.244 409.756 780.488> 497.805 19.5117<536.946 652.682>
LayerCount: 2
Back
Fore
SplineSet
127.064453125 390.244140625 m 1xbc
 127.064453125 9.755859375 l 2
 127.064453125 4.4423828125 122.623046875 0 117.30859375 0 c 0
 111.994140625 0 107.552734375 4.4423828125 107.552734375 9.755859375 c 2
 107.552734375 790.244140625 l 2
 107.552734375 796.149414062 113.12109375 800 117.30859375 800 c 2
 314.381835938 800 l 2
 427.560546875 800 517.31640625 707.717773438 517.31640625 595.012695312 c 0
 517.31640625 481.005859375 425.490234375 390.244140625 312.430664062 390.244140625 c 2
 307.763671875 390.244140625 l 1
 496.7578125 14.13671875 l 2
 499.143554688 9.388671875 497.168945312 3.4248046875 492.420898438 1.0390625 c 0
 487.672851562 -1.34765625 481.708984375 0.626953125 479.323242188 5.3759765625 c 2
 285.926757812 390.244140625 l 1
 127.064453125 390.244140625 l 1xbc
127.064453125 409.755859375 m 1
 312.430664062 409.755859375 l 2
 414.791992188 409.755859375 497.8046875 491.833984375 497.8046875 595.013671875 c 0
 497.8046875 697.21875 416.55859375 780.48828125 314.381835938 780.48828125 c 2
 127.064453125 780.48828125 l 1
 127.064453125 409.755859375 l 1
EndSplineSet
Validated: 1
EndChar

StartChar: S
Encoding: 83 83 18
Width: 527
VWidth: 9
Flags: W
HStem: 0 19.5117<198.028 313.801> 780.488 19.5117<203.259 305.763>
VStem: 86.0977 19.5117<587.954 682.463> 439.269 19.5117<145.863 262.126>
LayerCount: 2
Back
Fore
SplineSet
74.5400390625 136.810546875 m 0
 79.4453125 138.854492188 85.2548828125 136.462890625 87.2978515625 131.557617188 c 0
 96.5859375 109.266601562 109.506835938 89.900390625 126.166992188 73.240234375 c 0
 159.50390625 39.9033203125 205.799804688 19.51171875 256.829101562 19.51171875 c 0
 357.724609375 19.51171875 439.268554688 101.91796875 439.268554688 202.926757812 c 0
 439.268554688 253.291015625 420.494140625 305.606445312 374.015625 339.428710938 c 2
 155.46875 498.4609375 l 2
 116.602539062 526.822265625 86.09765625 584.5703125 86.09765625 632.1953125 c 0
 86.09765625 724.377929688 160.6796875 800 253.90234375 800 c 0
 299.447265625 800 342.041992188 781.267578125 371.901367188 751.408203125 c 0
 387.249023438 737.083007812 399.930664062 719.161132812 408.340820312 699.435546875 c 0
 410.424804688 694.546875 408.080078125 688.71875 403.19140625 686.634765625 c 0
 398.303710938 684.55078125 392.475585938 686.895507812 390.391601562 691.784179688 c 0
 382.99609375 709.131835938 372.262695312 724.379882812 358.341796875 737.373046875 c 0
 331.616210938 764.098632812 294.2109375 780.48828125 253.90234375 780.48828125 c 0
 171.514648438 780.48828125 105.609375 713.670898438 105.609375 632.1953125 c 0
 105.609375 592.014648438 133.641601562 538.543945312 166.970703125 514.22265625 c 2
 385.49609375 355.206054688 l 2
 438.078125 316.942382812 458.780273438 257.928710938 458.780273438 202.926757812 c 0
 458.780273438 91.2529296875 368.6171875 0 256.829101562 0 c 0
 200.541992188 0 149.276367188 22.5361328125 112.370117188 59.4423828125 c 0
 93.908203125 77.904296875 79.51171875 99.513671875 69.287109375 124.052734375 c 0
 67.2431640625 128.958007812 69.634765625 134.766601562 74.5400390625 136.810546875 c 0
EndSplineSet
Validated: 1
EndChar

StartChar: T
Encoding: 84 84 19
Width: 624
VWidth: 9
Flags: W
HStem: 0 21G<309.782 315.096> 0 21G<309.782 315.096> 780.488 19.5117<-9.50848 302.683 322.195 634.387>
VStem: 302.683 19.5127<0.00324007 780.488>
LayerCount: 2
Back
Fore
SplineSet
-9.51171875 790.244140625 m 0xb0
 -9.51171875 795.557617188 -5.0703125 800 0.244140625 800 c 2
 312.439453125 800 l 1
 624.633789062 800 l 2
 629.948242188 800 634.390625 795.557617188 634.390625 790.244140625 c 0
 634.390625 784.9296875 629.948242188 780.48828125 624.633789062 780.48828125 c 2
 322.1953125 780.48828125 l 1
 322.1953125 9.755859375 l 2
 322.1953125 4.4423828125 317.752929688 0 312.439453125 0 c 0
 307.125 0 302.682617188 4.4423828125 302.682617188 9.755859375 c 2
 302.682617188 780.48828125 l 1
 0.244140625 780.48828125 l 2
 -5.0703125 780.48828125 -9.51171875 784.9296875 -9.51171875 790.244140625 c 0xb0
EndSplineSet
Validated: 1
EndChar

StartChar: U
Encoding: 85 85 20
Width: 820
VWidth: 9
Flags: W
HStem: 0 19.5117<335.769 484.231> 780 20G<95.1479 100.462 719.538 724.852> 780 20G<95.1479 100.462 719.538 724.852>
VStem: 88.0488 19.5117<249.195 799.997> 712.439 19.5117<249.163 799.997>
LayerCount: 2
Back
Fore
SplineSet
722.1953125 800 m 0xd8
 727.508789062 800 731.951171875 795.557617188 731.951171875 790.244140625 c 2
 731.951171875 321.951171875 l 2
 731.951171875 143.887695312 588.063476562 0 410 0 c 0
 231.93359375 0 88.048828125 143.98828125 88.048828125 321.951171875 c 2
 88.048828125 790.244140625 l 2
 88.048828125 795.557617188 92.4912109375 800 97.8046875 800 c 0
 103.119140625 800 107.560546875 795.557617188 107.560546875 790.244140625 c 2
 107.560546875 321.951171875 l 2
 107.560546875 154.749023438 242.701171875 19.51171875 410 19.51171875 c 0
 577.301757812 19.51171875 712.439453125 154.649414062 712.439453125 321.951171875 c 2
 712.439453125 790.244140625 l 2
 712.439453125 795.557617188 716.880859375 800 722.1953125 800 c 0xd8
EndSplineSet
Validated: 1
EndChar

StartChar: V
Encoding: 86 86 21
Width: 663
VWidth: 9
Flags: W
LayerCount: 2
Back
Fore
SplineSet
35.8427734375 799.37890625 m 0
 40.818359375 801.245117188 46.537109375 798.645507812 48.4033203125 793.669921875 c 2
 331.951171875 37.541015625 l 1
 615.499023438 793.669921875 l 2
 617.365234375 798.645507812 623.083984375 801.245117188 628.059570312 799.37890625 c 0
 633.03515625 797.512695312 635.634765625 791.793945312 633.76953125 786.818359375 c 2
 341.0859375 6.330078125 l 2
 334.465820312 -11.32421875 322.81640625 6.330078125 322.81640625 6.330078125 c 1
 30.1337890625 786.818359375 l 2
 28.267578125 791.793945312 30.8671875 797.512695312 35.8427734375 799.37890625 c 0
EndSplineSet
Validated: 1
EndChar

StartChar: W
Encoding: 87 87 22
Width: 1028
VWidth: 9
Flags: W
LayerCount: 2
Back
Fore
SplineSet
511.5546875 799.579101562 m 0
 512.500976562 799.866210938 513.461914062 799.998046875 514.411132812 799.98828125 c 0
 515.349609375 799.993164062 516.30078125 799.860351562 517.236328125 799.575195312 c 0
 518.807617188 799.095703125 520.17578125 798.235351562 521.26953125 797.124023438 c 0
 522.383789062 796.02734375 523.247070312 794.655273438 523.725585938 793.079101562 c 2
 751.482421875 43.26171875 l 1
 980.180664062 793.08984375 l 2
 981.73046875 798.172851562 987.275390625 801.125976562 992.358398438 799.575195312 c 0
 997.44140625 798.025390625 1000.39453125 792.48046875 998.84375 787.397460938 c 2
 760.794921875 6.91015625 l 2
 760.315429688 5.3388671875 759.455078125 3.970703125 758.34375 2.876953125 c 0
 757.247070312 1.7626953125 755.875 0.8994140625 754.298828125 0.4208984375 c 0
 753.352539062 0.1337890625 752.391601562 0.001953125 751.442382812 0.01171875 c 0
 750.50390625 0.0068359375 749.552734375 0.1396484375 748.6171875 0.4248046875 c 0
 747.041015625 0.9052734375 745.668945312 1.7705078125 744.573242188 2.88671875 c 0
 743.46484375 3.9814453125 742.60546875 5.349609375 742.12890625 6.9208984375 c 2
 514.37109375 756.740234375 l 1
 285.672851562 6.91015625 l 2
 285.193359375 5.3388671875 284.333007812 3.970703125 283.221679688 2.876953125 c 0
 282.125 1.7626953125 280.752929688 0.8994140625 279.176757812 0.4208984375 c 0
 278.23046875 0.1337890625 277.26953125 0.001953125 276.3203125 0.01171875 c 0
 275.381835938 0.0068359375 274.430664062 0.1396484375 273.495117188 0.4248046875 c 0
 271.918945312 0.9052734375 270.546875 1.7705078125 269.451171875 2.88671875 c 0
 268.342773438 3.9814453125 267.483398438 5.349609375 267.006835938 6.9208984375 c 2
 29.93359375 787.408203125 l 2
 28.388671875 792.493164062 31.34765625 798.034179688 36.4326171875 799.579101562 c 0
 41.517578125 801.123046875 47.05859375 798.1640625 48.603515625 793.079101562 c 2
 276.360351562 43.26171875 l 1
 505.05859375 793.08984375 l 2
 505.538085938 794.662109375 506.399414062 796.030273438 507.510742188 797.125 c 0
 508.607421875 798.23828125 509.979492188 799.100585938 511.5546875 799.579101562 c 0
EndSplineSet
Validated: 5
EndChar

StartChar: X
Encoding: 88 88 23
Width: 710
VWidth: 9
Flags: W
LayerCount: 2
Back
Fore
SplineSet
92.4306640625 1.61328125 m 0
 87.9951171875 4.541015625 86.7353515625 10.6953125 89.662109375 15.1298828125 c 2
 343.676757812 400 l 1
 89.662109375 784.870117188 l 2
 86.7353515625 789.3046875 87.9951171875 795.458984375 92.4306640625 798.38671875 c 0
 96.8662109375 801.313476562 103.020507812 800.052734375 105.947265625 795.618164062 c 2
 355.365234375 417.7109375 l 1
 604.784179688 795.618164062 l 2
 607.711914062 800.052734375 613.865234375 801.313476562 618.30078125 798.38671875 c 0
 622.736328125 795.458984375 623.997070312 789.3046875 621.069335938 784.870117188 c 2
 367.0546875 400 l 1
 621.069335938 15.1298828125 l 2
 623.997070312 10.6953125 622.736328125 4.541015625 618.30078125 1.61328125 c 0
 613.865234375 -1.3134765625 607.711914062 -0.052734375 604.784179688 4.3818359375 c 2
 355.365234375 382.2890625 l 1
 105.947265625 4.3818359375 l 2
 103.020507812 -0.052734375 96.8662109375 -1.3134765625 92.4306640625 1.61328125 c 0
EndSplineSet
Validated: 1
EndChar

StartChar: Y
Encoding: 89 89 24
Width: 643
VWidth: 9
Flags: W
HStem: 0 21G<318.562 323.876> 0 21G<318.562 323.876>
VStem: 311.464 19.5117<0.00324007 396.835>
LayerCount: 2
Back
Fore
SplineSet
33.5546875 798.15234375 m 0xa0
 37.8623046875 801.263671875 44.064453125 800.264648438 47.1767578125 795.95703125 c 2
 321.233398438 416.639648438 l 1
 596.248046875 795.970703125 l 2
 599.3671875 800.272460938 605.5703125 801.26171875 609.873046875 798.142578125 c 0
 614.174804688 795.0234375 615.1640625 788.819335938 612.044921875 784.517578125 c 2
 330.975585938 396.834960938 l 1
 330.975585938 9.755859375 l 2
 330.975585938 4.4423828125 326.533203125 0 321.219726562 0 c 0
 315.905273438 0 311.463867188 4.4423828125 311.463867188 9.755859375 c 2
 311.463867188 396.84375 l 1
 31.3603515625 784.530273438 l 2
 28.248046875 788.837890625 29.2470703125 795.040039062 33.5546875 798.15234375 c 0xa0
EndSplineSet
Validated: 1
EndChar

StartChar: Z
Encoding: 90 90 25
Width: 663
VWidth: 9
Flags: W
HStem: 0 19.5117<115.036 575.85> 780.488 19.5117<88.0521 548.866>
LayerCount: 2
Back
Fore
SplineSet
88.048828125 790.244140625 m 0
 88.048828125 795.557617188 92.4912109375 800 97.8046875 800 c 2
 566.09765625 800 l 2
 566.999023438 800 567.875976562 799.872070312 568.708984375 799.633789062 c 0
 569.540039062 799.409179688 570.350585938 799.069335938 571.1171875 798.609375 c 0
 572.603515625 797.717773438 573.767578125 796.46875 574.565429688 795.03125 c 0
 575.3828125 793.609375 575.853515625 791.97265625 575.853515625 790.244140625 c 0
 575.853515625 789.340820312 575.725585938 788.462890625 575.486328125 787.627929688 c 0
 575.26171875 786.798828125 574.921875 785.990234375 574.462890625 785.224609375 c 2
 115.036132812 19.51171875 l 1
 566.09765625 19.51171875 l 2
 571.412109375 19.51171875 575.853515625 15.0703125 575.853515625 9.755859375 c 0
 575.853515625 4.4423828125 571.412109375 0 566.09765625 0 c 2
 97.8046875 0 l 2
 79.4150390625 0 89.439453125 14.775390625 89.439453125 14.775390625 c 1
 548.866210938 780.48828125 l 1
 97.8046875 780.48828125 l 2
 92.4912109375 780.48828125 88.048828125 784.9296875 88.048828125 790.244140625 c 0
EndSplineSet
Validated: 1
EndChar

StartChar: one
Encoding: 49 49 26
Width: 556
VWidth: 9
Flags: W
HStem: 0 21G<334.172 339.486> 0 21G<334.172 339.486> 606.829 19.5127<151.564 214.222> 780 20G<335.583 337.057> 780 20G<335.583 337.057>
VStem: 327.073 19.5117<0.00324007 709.357 737.859 797.351>
LayerCount: 2
Back
Fore
SplineSet
336.829101562 0 m 0xb4
 331.515625 0 327.073242188 4.4423828125 327.073242188 9.755859375 c 2
 327.073242188 709.357421875 l 1
 296.685546875 648.716796875 233.95703125 606.829101562 161.317382812 606.829101562 c 0
 156.002929688 606.829101562 151.560546875 611.271484375 151.560546875 616.584960938 c 0
 151.560546875 621.899414062 156.002929688 626.341796875 161.317382812 626.341796875 c 0
 252.428710938 626.341796875 326.15234375 700.067382812 327.073242188 790.34375 c 0
 327.1015625 793.12890625 328.348632812 795.662109375 330.293945312 797.434570312 c 0
 332.034179688 799.021484375 334.3359375 800 336.829101562 800 c 0
 337.284179688 800 337.733398438 799.967773438 338.173828125 799.904296875 c 0
 340.205078125 799.614257812 342.05078125 798.677734375 343.4921875 797.31640625 c 0
 345.092773438 795.805664062 346.196289062 793.770507812 346.5 791.51171875 c 0
 346.560546875 791.063476562 346.58984375 790.607421875 346.584960938 790.14453125 c 2
 346.584960938 9.755859375 l 2
 346.584960938 4.4423828125 342.143554688 0 336.829101562 0 c 0xb4
EndSplineSet
Validated: 1
EndChar

StartChar: two
Encoding: 50 50 27
Width: 556
VWidth: 9
Flags: W
HStem: 0 19.5117<101.45 474.387> 780.488 19.5117<227.784 329.642>
VStem: 428.536 19.5127<587.035 682.837>
LayerCount: 2
Back
Fore
SplineSet
131.091796875 686.618164062 m 0
 126.194335938 688.680664062 123.82421875 694.498046875 125.88671875 699.395507812 c 0
 134.20703125 719.15625 146.893554688 737.080078125 162.245117188 751.408203125 c 0
 192.03515625 781.198242188 233.692382812 800 279.268554688 800 c 0
 371.393554688 800 448.048828125 725.498046875 448.048828125 632.1953125 c 0
 448.048828125 608.4609375 439.6796875 581.892578125 427.4296875 558.4140625 c 0
 427.33984375 558.240234375 427.203125 558.000976562 427.127929688 557.876953125 c 2
 101.450195312 19.51171875 l 1
 464.633789062 19.51171875 l 2
 469.948242188 19.51171875 474.390625 15.0703125 474.390625 9.755859375 c 0
 474.390625 4.4423828125 469.948242188 0 464.633789062 0 c 2
 84.146484375 0 l 2
 65.724609375 0 75.798828125 14.8056640625 75.798828125 14.8056640625 c 1
 410.280273438 567.723632812 l 2
 421.108398438 588.73828125 428.536132812 612.995117188 428.536132812 632.1953125 c 0
 428.536132812 714.501953125 360.801757812 780.48828125 279.268554688 780.48828125 c 0
 238.991210938 780.48828125 202.598632812 764.166992188 175.803710938 737.373046875 c 0
 161.88671875 724.383789062 151.159179688 709.13671875 143.869140625 691.82421875 c 0
 141.807617188 686.92578125 135.990234375 684.555664062 131.091796875 686.618164062 c 0
EndSplineSet
Validated: 5
EndChar

StartChar: three
Encoding: 51 51 28
Width: 556
VWidth: 9
Flags: W
HStem: 0 19.5117<216.969 339.293> 428.293 19.5117<265.613 326.613> 780.488 19.5117<221.45 329.372>
VStem: 54 19.5117<161.768 191.258> 441.22 19.5117<560.899 668.64> 483.171 19.5117<161.608 282.492>
LayerCount: 2
Back
Fore
SplineSet
265.609375 438.048828125 m 0
 265.609375 443.36328125 270.051757812 447.8046875 275.366210938 447.8046875 c 2
 275.447265625 447.8046875 l 2
 367.442382812 447.8046875 441.219726562 523.348632812 441.219726562 614.633789062 c 0
 441.219726562 705.817382812 366.548828125 780.48828125 275.366210938 780.48828125 c 0
 184.15234375 780.48828125 110.432617188 706.759765625 109.51171875 616.485351562 c 0
 109.45703125 611.171875 104.970703125 606.775390625 99.65625 606.830078125 c 0
 94.3427734375 606.883789062 89.9462890625 611.37109375 90.0009765625 616.684570312 c 0
 91.0302734375 717.630859375 173.409179688 800 275.366210938 800 c 0
 377.353515625 800 460.731445312 716.622070312 460.731445312 614.633789062 c 0
 460.731445312 534.274414062 409.526367188 464.7578125 337.373046875 438.969726562 c 1
 431.715820312 411.575195312 502.682617188 323.78515625 502.682617188 222.439453125 c 0
 502.682617188 98.9033203125 401.624023438 0 278.29296875 0 c 0
 154.041992188 0 54 98.8408203125 54 222.2578125 c 0
 54 227.703125 58.3369140625 232.19921875 63.7646484375 232.1953125 c 0
 69.1865234375 232.190429688 73.51171875 227.692382812 73.51171875 222.258789062 c 0
 73.51171875 109.74609375 164.615234375 19.51171875 278.29296875 19.51171875 c 0
 391.05859375 19.51171875 483.170898438 109.877929688 483.170898438 222.439453125 c 0
 483.170898438 333.983398438 388.075195312 428.29296875 275.366210938 428.29296875 c 0
 270.051757812 428.29296875 265.609375 432.734375 265.609375 438.048828125 c 0
EndSplineSet
Validated: 1
EndChar

StartChar: four
Encoding: 52 52 29
Width: 556
VWidth: 9
Flags: W
HStem: 0 21G<374.172 379.486> 0 21G<374.172 379.486> 222.439 19.5117<43.2773 367.073 386.585 531.948> 780 20G<375.984 377.294> 780 20G<375.984 377.294>
VStem: 367.073 19.5117<0.00324007 222.439 241.951 756.427>
LayerCount: 2
Back
Fore
SplineSet
367.073242188 241.951171875 m 1x24
 367.073242188 756.426757812 l 1
 43.27734375 241.951171875 l 1
 367.073242188 241.951171875 l 1x24
376.829101562 0 m 0xb4
 371.515625 0 367.073242188 4.4423828125 367.073242188 9.755859375 c 2
 367.073242188 222.439453125 l 1
 25.609375 222.439453125 l 2
 6.873046875 222.439453125 17.3525390625 237.391601562 17.3525390625 237.391601562 c 1
 368.572265625 795.440429688 l 2
 369.477539062 796.877929688 370.71875 797.999023438 372.13671875 798.765625 c 0
 373.536132812 799.549804688 375.138671875 800 376.829101562 800 c 0
 377.759765625 800 378.6640625 799.86328125 379.522460938 799.610351562 c 0
 380.389648438 799.368164062 381.233398438 799 382.026367188 798.500976562 c 0
 383.46875 797.592773438 384.592773438 796.345703125 385.359375 794.920898438 c 0
 386.138671875 793.525390625 386.584960938 791.928710938 386.584960938 790.244140625 c 2
 386.584960938 241.951171875 l 1
 522.1953125 241.951171875 l 2
 527.508789062 241.951171875 531.951171875 237.508789062 531.951171875 232.1953125 c 0
 531.951171875 226.880859375 527.508789062 222.439453125 522.1953125 222.439453125 c 2
 386.584960938 222.439453125 l 1
 386.584960938 9.755859375 l 2
 386.584960938 4.4423828125 382.143554688 0 376.829101562 0 c 0xb4
EndSplineSet
Validated: 1
EndChar

StartChar: five
Encoding: 53 53 30
Width: 556
VWidth: 9
Flags: W
HStem: 0 19.5117<206.132 328.999> 463.415 19.5117<133.902 331.323> 780.488 19.5117<133.902 447.07>
VStem: 114.391 19.5117<482.927 780.488> 490 19.5117<180.513 300.976>
LayerCount: 2
Back
Fore
SplineSet
52.048828125 160.203125 m 0
 56.9423828125 162.275390625 62.7646484375 159.91796875 64.8369140625 155.024414062 c 0
 98.494140625 75.556640625 177.004882812 19.51171875 268.536132812 19.51171875 c 0
 390.958007812 19.51171875 490 118.5546875 490 240.975585938 c 0
 490 362.446289062 392.752929688 460.61328125 271.350585938 463.415039062 c 2
 124.146484375 463.415039062 l 2
 118.83203125 463.415039062 114.390625 467.856445312 114.390625 473.170898438 c 2
 114.390625 790.244140625 l 2
 114.390625 795.557617188 118.83203125 800 124.146484375 800 c 2
 437.317382812 800 l 2
 442.630859375 800 447.073242188 795.557617188 447.073242188 790.244140625 c 0
 447.073242188 784.9296875 442.630859375 780.48828125 437.317382812 780.48828125 c 2
 133.90234375 780.48828125 l 1
 133.90234375 482.926757812 l 1
 271.576171875 482.926757812 l 2
 403.833007812 479.875 509.51171875 373.1640625 509.51171875 240.975585938 c 0
 509.51171875 107.787109375 401.724609375 0 268.536132812 0 c 0
 168.848632812 0 83.45703125 61.0283203125 46.8701171875 147.415039062 c 0
 44.7978515625 152.307617188 47.1552734375 158.130859375 52.048828125 160.203125 c 0
EndSplineSet
Validated: 1
EndChar

StartChar: six
Encoding: 54 54 31
Width: 556
VWidth: 9
Flags: W
HStem: 0 19.5117<217.969 338.826> 463.415 19.5117<216.481 338.825> 780.488 19.5117<217.76 342.06>
VStem: 36.3418 19.5635<180.7 301.142 335.896 618.375> 500.731 19.5127<180.514 301.508>
LayerCount: 2
Back
Fore
SplineSet
55.853515625 335.896484375 m 1
 93.033203125 422.046875 178.916992188 482.926757812 278.29296875 482.926757812 c 0
 411.497070312 482.926757812 520.244140625 374.1796875 520.244140625 240.975585938 c 0
 520.244140625 107.731445312 411.442382812 0 278.29296875 0 c 0
 145.143554688 0 36.341796875 107.732421875 36.341796875 240.975585938 c 2
 36.341796875 558.048828125 l 2
 36.341796875 691.252929688 145.087890625 800 278.29296875 800 c 0
 373.85546875 800 455.239257812 745.034179688 494.845703125 664.806640625 c 0
 497.198242188 660.041015625 495.181640625 654.091796875 490.416015625 651.739257812 c 0
 485.651367188 649.387695312 479.702148438 651.404296875 477.349609375 656.168945312 c 0
 440.858398438 730.087890625 366.14453125 780.48828125 278.29296875 780.48828125 c 0
 155.887695312 780.48828125 55.853515625 680.454101562 55.853515625 558.048828125 c 2
 55.853515625 335.896484375 l 1
278.29296875 19.51171875 m 0
 400.752929688 19.51171875 500.731445312 118.609375 500.731445312 240.975585938 c 0
 500.731445312 363.380859375 400.698242188 463.415039062 278.29296875 463.415039062 c 0
 155.943359375 463.415039062 55.9052734375 362.862304688 55.9052734375 240.291015625 c 0
 55.9052734375 118.376953125 157.00390625 19.51171875 278.29296875 19.51171875 c 0
EndSplineSet
Validated: 1
EndChar

StartChar: seven
Encoding: 55 55 32
Width: 556
VWidth: 9
Flags: W
HStem: 780.488 19.5117<34.3939 498.029>
LayerCount: 2
Back
Fore
SplineSet
34.390625 790.244140625 m 0
 34.390625 795.557617188 38.83203125 800 44.146484375 800 c 2
 512.439453125 800 l 2
 513.083984375 800 513.715820312 799.934570312 514.328125 799.810546875 c 0
 514.912109375 799.698242188 515.493164062 799.529296875 516.0625 799.301757812 c 0
 517.915039062 798.560546875 519.419921875 797.284179688 520.473632812 795.717773438 c 0
 521.556640625 794.1484375 522.1953125 792.258789062 522.1953125 790.244140625 c 0
 522.1953125 789.603515625 522.130859375 788.9765625 522.0078125 788.368164062 c 0
 521.895507812 787.779296875 521.7265625 787.193359375 521.497070312 786.620117188 c 2
 209.301757812 6.1328125 l 2
 207.328125 1.19921875 201.5546875 -1.275390625 196.620117188 0.6982421875 c 0
 191.686523438 2.671875 189.211914062 8.4453125 191.185546875 13.3798828125 c 2
 498.029296875 780.48828125 l 1
 44.146484375 780.48828125 l 2
 38.83203125 780.48828125 34.390625 784.9296875 34.390625 790.244140625 c 0
EndSplineSet
Validated: 5
EndChar

StartChar: eight
Encoding: 56 56 33
Width: 556
VWidth: 9
Flags: W
HStem: 0 19.5117<217.76 338.825> 464.391 19.5117<228.196 328.389> 780.488 19.5117<228.026 328.56>
VStem: 36.3418 19.5117<181.419 302.763> 110.488 19.5117<581.419 682.462> 426.585 19.5127<581.419 682.462> 500.731 19.5127<181.419 302.763>
LayerCount: 2
Back
Fore
SplineSet
278.29296875 464.390625 m 0
 155.887695312 464.390625 55.853515625 364.356445312 55.853515625 241.951171875 c 0
 55.853515625 119.545898438 155.887695312 19.51171875 278.29296875 19.51171875 c 0
 400.698242188 19.51171875 500.731445312 119.545898438 500.731445312 241.951171875 c 0
 500.731445312 364.356445312 400.698242188 464.390625 278.29296875 464.390625 c 0
520.244140625 241.951171875 m 0
 520.244140625 108.747070312 411.497070312 0 278.29296875 0 c 0
 145.087890625 0 36.341796875 108.747070312 36.341796875 241.951171875 c 0
 36.341796875 354.026367188 113.32421875 448.786132812 217.0859375 476.029296875 c 1
 154.852539062 500.63671875 110.48828125 561.5234375 110.48828125 632.1953125 c 0
 110.48828125 724.431640625 186.056640625 800 278.29296875 800 c 0
 370.529296875 800 446.09765625 724.431640625 446.09765625 632.1953125 c 0
 446.09765625 561.5234375 401.733398438 500.63671875 339.5 476.029296875 c 1
 443.26171875 448.786132812 520.244140625 354.026367188 520.244140625 241.951171875 c 0
426.584960938 632.1953125 m 0
 426.584960938 713.6171875 359.71484375 780.48828125 278.29296875 780.48828125 c 0
 196.870117188 780.48828125 130 713.6171875 130 632.1953125 c 0
 130 550.772460938 196.870117188 483.90234375 278.29296875 483.90234375 c 0
 359.71484375 483.90234375 426.584960938 550.772460938 426.584960938 632.1953125 c 0
EndSplineSet
Validated: 1
EndChar

StartChar: nine
Encoding: 57 57 34
Width: 556
VWidth: 9
Flags: W
HStem: 0 19.5117<214.381 338.721> 316.098 19.5117<217.76 340.116> 780.488 19.5117<217.76 338.825>
VStem: 36.3418 19.5117<497.516 618.581> 500.824 19.5176<180.695 463.034 497.311 618.375>
LayerCount: 2
Back
Fore
SplineSet
500.731445312 463.034179688 m 1
 463.522460938 376.913085938 377.669921875 316.09765625 278.29296875 316.09765625 c 0
 145.087890625 316.09765625 36.341796875 424.84375 36.341796875 558.048828125 c 0
 36.341796875 691.252929688 145.087890625 800 278.29296875 800 c 0
 411.497070312 800 520.244140625 691.252929688 520.244140625 558.048828125 c 2
 520.244140625 242.333984375 l 2
 520.30859375 241.88671875 520.341796875 241.430664062 520.341796875 240.967773438 c 0
 520.240234375 107.731445312 411.443359375 0 278.29296875 0 c 0
 182.759765625 0 100.396484375 54.912109375 60.763671875 135.193359375 c 0
 58.412109375 139.958984375 60.4287109375 145.908203125 65.193359375 148.260742188 c 0
 69.958984375 150.612304688 75.908203125 148.595703125 78.2607421875 143.831054688 c 0
 114.725585938 69.9658203125 190.411132812 19.51171875 278.29296875 19.51171875 c 0
 400.307617188 19.51171875 500.009765625 117.891601562 500.82421875 239.651367188 c 0
 500.762695312 240.084960938 500.731445312 240.52734375 500.731445312 240.975585938 c 2
 500.731445312 463.034179688 l 1
500.731445312 558.048828125 m 0
 500.731445312 680.454101562 400.698242188 780.48828125 278.29296875 780.48828125 c 0
 155.887695312 780.48828125 55.853515625 680.454101562 55.853515625 558.048828125 c 0
 55.853515625 435.643554688 155.887695312 335.609375 278.29296875 335.609375 c 0
 400.698242188 335.609375 500.731445312 435.643554688 500.731445312 558.048828125 c 0
EndSplineSet
Validated: 1
EndChar

StartChar: zero
Encoding: 48 48 35
Width: 556
VWidth: 9
Flags: W
HStem: 0 19.5117<216.827 339.759> 780.527 19.5117<216.828 339.759>
VStem: 53.1211 19.5127<163.944 636.094> 483.952 19.5117<163.944 636.095>
LayerCount: 2
Back
Fore
SplineSet
53.12109375 574.868164062 m 2
 53.12109375 699.401367188 153.76171875 800.0390625 278.29296875 800.0390625 c 0
 402.826171875 800.0390625 503.463867188 699.400390625 503.463867188 574.868164062 c 2
 503.463867188 225.170898438 l 2
 503.463867188 100.637695312 402.825195312 0 278.29296875 0 c 0
 153.760742188 0 53.12109375 100.638671875 53.12109375 225.170898438 c 2
 53.12109375 574.868164062 l 2
72.6337890625 574.868164062 m 2
 72.6337890625 225.170898438 l 2
 72.6337890625 111.400390625 164.5234375 19.51171875 278.29296875 19.51171875 c 0
 392.063476562 19.51171875 483.952148438 111.400390625 483.952148438 225.170898438 c 2
 483.952148438 574.868164062 l 2
 483.952148438 688.638671875 392.063476562 780.52734375 278.29296875 780.52734375 c 0
 164.5234375 780.52734375 72.6337890625 688.637695312 72.6337890625 574.868164062 c 2
EndSplineSet
Validated: 1
EndChar

StartChar: period
Encoding: 46 46 36
Width: 236
VWidth: 9
Flags: W
HStem: 0 19.5117<107.564 127.07>
VStem: 107.561 19.5127<0.00318868 19.5085>
LayerCount: 2
Back
Fore
SplineSet
107.560546875 9.755859375 m 0
 107.560546875 15.1416015625 111.931640625 19.51171875 117.317382812 19.51171875 c 0
 122.702148438 19.51171875 127.073242188 15.1416015625 127.073242188 9.755859375 c 0
 127.073242188 4.37109375 122.702148438 0 117.317382812 0 c 0
 111.931640625 0 107.560546875 4.37109375 107.560546875 9.755859375 c 0
EndSplineSet
Validated: 1
EndChar

StartChar: colon
Encoding: 58 58 37
Width: 234
VWidth: 9
Flags: W
HStem: 0 19.5117<107.564 127.07> 423.415 19.5117<107.564 127.07>
VStem: 107.561 19.5127<0.00318868 19.5085 423.418 442.924>
LayerCount: 2
Back
Fore
SplineSet
107.560546875 9.755859375 m 0
 107.560546875 15.1416015625 111.931640625 19.51171875 117.317382812 19.51171875 c 0
 122.702148438 19.51171875 127.073242188 15.1416015625 127.073242188 9.755859375 c 0
 127.073242188 4.37109375 122.702148438 0 117.317382812 0 c 0
 111.931640625 0 107.560546875 4.37109375 107.560546875 9.755859375 c 0
107.560546875 433.170898438 m 0
 107.560546875 438.555664062 111.931640625 442.926757812 117.317382812 442.926757812 c 0
 122.702148438 442.926757812 127.073242188 438.555664062 127.073242188 433.170898438 c 0
 127.073242188 427.78515625 122.702148438 423.415039062 117.317382812 423.415039062 c 0
 111.931640625 423.415039062 107.560546875 427.78515625 107.560546875 433.170898438 c 0
EndSplineSet
Validated: 1
EndChar

StartChar: comma
Encoding: 44 44 38
Width: 234
VWidth: 9
Flags: W
HStem: -147.317 166.829<107.561 127.073>
VStem: 107.561 19.5127<-147.314 19.5085>
LayerCount: 2
Back
Fore
SplineSet
117.317382812 -147.317382812 m 0
 112.002929688 -147.317382812 107.560546875 -142.875 107.560546875 -137.560546875 c 2
 107.560546875 9.755859375 l 2
 107.560546875 15.0703125 112.002929688 19.51171875 117.317382812 19.51171875 c 0
 122.630859375 19.51171875 127.073242188 15.0703125 127.073242188 9.755859375 c 2
 127.073242188 -137.560546875 l 2
 127.073242188 -142.875 122.630859375 -147.317382812 117.317382812 -147.317382812 c 0
EndSplineSet
Validated: 1
EndChar

StartChar: hyphen
Encoding: 45 45 39
Width: 491
VWidth: 9
Flags: W
HStem: 320 19.5117<107.564 383.655>
VStem: 107.561 276.098<320 339.512>
LayerCount: 2
Back
Fore
SplineSet
107.560546875 329.755859375 m 0
 107.560546875 335.0703125 112.002929688 339.51171875 117.317382812 339.51171875 c 2
 373.90234375 339.51171875 l 2
 379.216796875 339.51171875 383.658203125 335.0703125 383.658203125 329.755859375 c 0
 383.658203125 324.442382812 379.216796875 320 373.90234375 320 c 2
 117.317382812 320 l 2
 112.002929688 320 107.560546875 324.442382812 107.560546875 329.755859375 c 0
EndSplineSet
Validated: 1
EndChar

StartChar: exclam
Encoding: 33 33 40
Width: 234
VWidth: 9
Flags: W
HStem: 0 19.5117<107.564 127.07> 780 20G<114.66 119.974> 780 20G<114.66 119.974>
VStem: 107.561 19.5127<0.00318868 19.5085 183.418 799.997>
LayerCount: 2
Back
Fore
SplineSet
117.317382812 183.415039062 m 0xd0
 112.002929688 183.415039062 107.560546875 187.856445312 107.560546875 193.170898438 c 2
 107.560546875 790.244140625 l 2
 107.560546875 795.557617188 112.002929688 800 117.317382812 800 c 0
 122.630859375 800 127.073242188 795.557617188 127.073242188 790.244140625 c 2
 127.073242188 193.170898438 l 2
 127.073242188 187.856445312 122.630859375 183.415039062 117.317382812 183.415039062 c 0xd0
107.560546875 9.755859375 m 0
 107.560546875 15.1416015625 111.931640625 19.51171875 117.317382812 19.51171875 c 0
 122.702148438 19.51171875 127.073242188 15.1416015625 127.073242188 9.755859375 c 0
 127.073242188 4.37109375 122.702148438 0 117.317382812 0 c 0
 111.931640625 0 107.560546875 4.37109375 107.560546875 9.755859375 c 0
EndSplineSet
Validated: 1
EndChar

StartChar: question
Encoding: 63 63 41
Width: 538
VWidth: 9
Flags: W
HStem: 0.975586 19.5127<243.174 262.679> 780.488 19.5117<230.334 332.838>
VStem: 243.171 19.5117<0.978775 20.4851 184.395 275.492> 430.488 19.5117<587.034 682.463>
LayerCount: 2
Back
Fore
SplineSet
133.04296875 685.642578125 m 0
 128.145507812 687.705078125 125.775390625 693.522460938 127.837890625 698.419921875 c 0
 136.104492188 718.052734375 148.6796875 736.92578125 164.196289062 751.408203125 c 0
 194.0546875 781.266601562 236.650390625 800 282.1953125 800 c 0
 375.416992188 800 450 724.377929688 450 632.1953125 c 0
 450 608.4609375 441.630859375 581.892578125 429.380859375 558.4140625 c 0
 429.297851562 558.25390625 429.172851562 558.034179688 429.104492188 557.918945312 c 2
 307.153320312 354.016601562 l 2
 269.860351562 291.663085938 262.779296875 247.393554688 262.779296875 195.227539062 c 0
 262.779296875 189.190429688 259.004882812 184.401367188 253.041992188 184.390625 c 0
 247.134765625 184.379882812 243.267578125 189.134765625 243.267578125 195.127929688 c 0
 243.267578125 249.421875 251.415039062 298.8359375 290.407226562 364.032226562 c 2
 412.221679688 567.705078125 l 2
 423.067382812 588.751953125 430.48828125 612.990234375 430.48828125 632.1953125 c 0
 430.48828125 713.670898438 364.583007812 780.48828125 282.1953125 780.48828125 c 0
 241.885742188 780.48828125 204.481445312 764.098632812 177.754882812 737.373046875 c 0
 164.002929688 724.537109375 153.1640625 708.2890625 145.821289062 690.848632812 c 0
 143.758789062 685.950195312 137.94140625 683.580078125 133.04296875 685.642578125 c 0
243.170898438 10.7314453125 m 0
 243.170898438 16.1171875 247.541015625 20.48828125 252.926757812 20.48828125 c 0
 258.3125 20.48828125 262.682617188 16.1171875 262.682617188 10.7314453125 c 0
 262.682617188 5.3466796875 258.3125 0.9755859375 252.926757812 0.9755859375 c 0
 247.541015625 0.9755859375 243.170898438 5.3466796875 243.170898438 10.7314453125 c 0
EndSplineSet
Validated: 1
EndChar

StartChar: parenleft
Encoding: 40 40 42
Width: 305
VWidth: 9
Flags: W
VStem: 107.561 19.5127<255.064 542.939>
LayerCount: 2
Back
Fore
SplineSet
191.994140625 799.366210938 m 0
 196.963867188 797.483398438 199.54296875 791.754882812 197.659179688 786.786132812 c 0
 152.213867188 666.888671875 127.073242188 536.3515625 127.073242188 400.975585938 c 0
 127.073242188 265.546875 151.275390625 132.05078125 196.76953125 13.2451171875 c 0
 198.669921875 8.2822265625 196.110351562 2.5458984375 191.147460938 0.6455078125 c 0
 186.184570312 -1.2548828125 180.448242188 1.3046875 178.547851562 6.267578125 c 0
 132.138671875 127.461914062 107.560546875 263.233398438 107.560546875 400.975585938 c 0
 107.560546875 538.770507812 133.151367188 671.6484375 179.4140625 793.702148438 c 0
 181.296875 798.670898438 187.025390625 801.25 191.994140625 799.366210938 c 0
EndSplineSet
Validated: 1
EndChar

StartChar: parenright
Encoding: 41 41 43
Width: 305
VWidth: 9
Flags: W
VStem: 178.78 19.5127<257.525 542.24>
LayerCount: 2
Back
Fore
SplineSet
113.859375 799.366210938 m 0
 118.828125 801.25 124.556640625 798.670898438 126.439453125 793.702148438 c 0
 172.708007812 671.6328125 198.29296875 537.79296875 198.29296875 400 c 0
 198.29296875 262.208984375 172.716796875 127.407226562 126.530273438 6.2802734375 c 0
 124.637695312 1.314453125 118.904296875 -1.2529296875 113.938476562 0.640625 c 0
 108.973632812 2.533203125 106.405273438 8.2666015625 108.298828125 13.232421875 c 0
 153.625 132.104492188 178.780273438 264.620117188 178.780273438 400 c 0
 178.780273438 535.376953125 153.633789062 666.903320312 108.194335938 786.786132812 c 0
 106.310546875 791.754882812 108.889648438 797.483398438 113.859375 799.366210938 c 0
EndSplineSet
Validated: 1
EndChar

StartChar: slash
Encoding: 47 47 45
Width: 483
VWidth: 9
Flags: W
VStem: 108.021 267.371
LayerCount: 2
Back
Fore
SplineSet
369.060546875 799.5390625 m 0
 374.124023438 797.92578125 377.006835938 792.34375 375.392578125 787.28125 c 2
 126.612304688 6.79296875 l 2
 124.998046875 1.73046875 119.416992188 -1.1533203125 114.354492188 0.4609375 c 0
 109.291015625 2.07421875 106.408203125 7.65625 108.021484375 12.71875 c 2
 356.802734375 793.20703125 l 2
 358.416015625 798.26953125 363.997070312 801.153320312 369.060546875 799.5390625 c 0
EndSplineSet
Validated: 1
EndChar

StartChar: plus
Encoding: 43 43 46
Width: 491
VWidth: 9
Flags: W
HStem: 320 19.5117<107.564 235.854 255.366 383.655>
VStem: 235.854 19.5127<191.71 320 339.512 467.801>
LayerCount: 2
Back
Fore
SplineSet
245.609375 191.70703125 m 0
 240.295898438 191.70703125 235.853515625 196.149414062 235.853515625 201.463867188 c 2
 235.853515625 320 l 1
 117.317382812 320 l 2
 112.002929688 320 107.560546875 324.442382812 107.560546875 329.755859375 c 0
 107.560546875 335.0703125 112.002929688 339.51171875 117.317382812 339.51171875 c 2
 235.853515625 339.51171875 l 1
 235.853515625 458.048828125 l 2
 235.853515625 463.36328125 240.295898438 467.8046875 245.609375 467.8046875 c 0
 250.923828125 467.8046875 255.366210938 463.36328125 255.366210938 458.048828125 c 2
 255.366210938 339.51171875 l 1
 373.90234375 339.51171875 l 2
 379.216796875 339.51171875 383.658203125 335.0703125 383.658203125 329.755859375 c 0
 383.658203125 324.442382812 379.216796875 320 373.90234375 320 c 2
 255.366210938 320 l 1
 255.366210938 201.463867188 l 2
 255.366210938 196.149414062 250.923828125 191.70703125 245.609375 191.70703125 c 0
EndSplineSet
Validated: 1
EndChar

StartChar: asterisk
Encoding: 42 42 47
Width: 456
VWidth: 9
Flags: W
HStem: 523.902 276.098<218.666 238.179>
VStem: 218.666 19.5127<523.906 645.053 678.85 799.997>
LayerCount: 2
Back
Fore
SplineSet
238.178710938 533.658203125 m 2
 238.178710938 528.344726562 233.736328125 523.90234375 228.421875 523.90234375 c 0
 223.108398438 523.90234375 218.666015625 528.344726562 218.666015625 533.658203125 c 2
 218.666015625 645.052734375 l 1
 122.1953125 589.35546875 l 2
 120.692382812 588.48828125 119.034179688 588.077148438 117.389648438 588.077148438 c 0
 113.995117188 588.077148438 110.658203125 589.827148438 108.868164062 592.926757812 c 0
 108.000976562 594.4296875 107.58984375 596.087890625 107.58984375 597.733398438 c 0
 107.58984375 601.126953125 109.33984375 604.463867188 112.439453125 606.25390625 c 2
 208.91015625 661.951171875 l 1
 112.439453125 717.6484375 l 2
 109.33984375 719.438476562 107.58984375 722.775390625 107.58984375 726.168945312 c 0
 107.58984375 727.814453125 108.000976562 729.47265625 108.868164062 730.975585938 c 0
 110.658203125 734.075195312 113.995117188 735.825195312 117.388671875 735.825195312 c 0
 119.034179688 735.825195312 120.692382812 735.4140625 122.1953125 734.546875 c 2
 218.666015625 678.849609375 l 1
 218.666015625 790.244140625 l 2
 218.666015625 795.557617188 223.108398438 800 228.421875 800 c 0
 233.736328125 800 238.178710938 795.557617188 238.178710938 790.244140625 c 2
 238.178710938 678.849609375 l 1
 334.649414062 734.546875 l 2
 336.15234375 735.4140625 337.810546875 735.825195312 339.456054688 735.825195312 c 0
 342.849609375 735.825195312 346.186523438 734.075195312 347.9765625 730.975585938 c 0
 348.84375 729.47265625 349.254882812 727.814453125 349.254882812 726.168945312 c 0
 349.254882812 722.775390625 347.504882812 719.438476562 344.405273438 717.6484375 c 2
 247.934570312 661.951171875 l 1
 344.405273438 606.25390625 l 2
 347.504882812 604.463867188 349.254882812 601.126953125 349.254882812 597.733398438 c 0
 349.254882812 596.087890625 348.84375 594.4296875 347.9765625 592.926757812 c 0
 346.186523438 589.827148438 342.849609375 588.077148438 339.455078125 588.077148438 c 0
 337.810546875 588.077148438 336.15234375 588.48828125 334.649414062 589.35546875 c 2
 238.178710938 645.052734375 l 1
 238.178710938 533.658203125 l 2
EndSplineSet
Validated: 1
EndChar

StartChar: quotedbl
Encoding: 34 34 48
Width: 394
VWidth: 9
Flags: W
HStem: 633.171 166.829<107.561 127.073 267.561 287.073>
VStem: 107.561 19.5127<633.174 799.997> 267.561 19.5127<633.174 799.997>
LayerCount: 2
Back
Fore
SplineSet
277.317382812 633.170898438 m 0
 272.002929688 633.170898438 267.560546875 637.61328125 267.560546875 642.927734375 c 2
 267.560546875 790.244140625 l 2
 267.560546875 795.55859375 272.002929688 800 277.317382812 800 c 0
 282.630859375 800 287.073242188 795.55859375 287.073242188 790.244140625 c 2
 287.073242188 642.927734375 l 2
 287.073242188 637.61328125 282.630859375 633.170898438 277.317382812 633.170898438 c 0
117.317382812 633.170898438 m 0
 112.002929688 633.170898438 107.560546875 637.61328125 107.560546875 642.927734375 c 2
 107.560546875 790.244140625 l 2
 107.560546875 795.55859375 112.002929688 800 117.317382812 800 c 0
 122.630859375 800 127.073242188 795.55859375 127.073242188 790.244140625 c 2
 127.073242188 642.927734375 l 2
 127.073242188 637.61328125 122.630859375 633.170898438 117.317382812 633.170898438 c 0
EndSplineSet
Validated: 1
EndChar

StartChar: quotesingle
Encoding: 39 39 49
Width: 234
VWidth: 9
Flags: W
HStem: 633.171 166.829<107.561 127.073>
VStem: 107.561 19.5127<633.174 799.997>
LayerCount: 2
Back
Fore
SplineSet
117.317382812 633.170898438 m 0
 112.002929688 633.170898438 107.560546875 637.61328125 107.560546875 642.927734375 c 2
 107.560546875 790.244140625 l 2
 107.560546875 795.55859375 112.002929688 800 117.317382812 800 c 0
 122.630859375 800 127.073242188 795.55859375 127.073242188 790.244140625 c 2
 127.073242188 642.927734375 l 2
 127.073242188 637.61328125 122.630859375 633.170898438 117.317382812 633.170898438 c 0
EndSplineSet
Validated: 1
EndChar

StartChar: numbersign
Encoding: 35 35 50
Width: 794
VWidth: 9
Flags: W
HStem: 256.585 19.5127<107.564 217.462 244.16 490.632 517.331 621.704> 473.171 19.5117<182.686 286.498 313.197 559.669 586.367 687.07>
LayerCount: 2
Back
Fore
SplineSet
496.8515625 276.09765625 m 1
 559.668945312 473.170898438 l 1
 306.977539062 473.170898438 l 1
 244.16015625 276.09765625 l 1
 496.8515625 276.09765625 l 1
400.767578125 799.5390625 m 0
 405.831054688 797.92578125 408.713867188 792.34375 407.100585938 787.28125 c 2
 313.197265625 492.682617188 l 1
 565.888671875 492.682617188 l 1
 661.680664062 793.20703125 l 2
 663.293945312 798.26953125 668.875 801.153320312 673.938476562 799.5390625 c 0
 679.001953125 797.92578125 681.884765625 792.34375 680.270507812 787.28125 c 2
 586.3671875 492.682617188 l 1
 677.317382812 492.682617188 l 2
 682.630859375 492.682617188 687.073242188 488.241210938 687.073242188 482.926757812 c 0
 687.073242188 477.612304688 682.630859375 473.170898438 677.317382812 473.170898438 c 2
 580.1484375 473.170898438 l 1
 517.331054688 276.09765625 l 1
 611.951171875 276.09765625 l 2
 617.265625 276.09765625 621.70703125 271.655273438 621.70703125 266.341796875 c 0
 621.70703125 261.02734375 617.265625 256.584960938 611.951171875 256.584960938 c 2
 511.111328125 256.584960938 l 1
 431.490234375 6.79296875 l 2
 429.876953125 1.73046875 424.294921875 -1.1533203125 419.232421875 0.4609375 c 0
 414.168945312 2.07421875 411.286132812 7.65625 412.899414062 12.71875 c 2
 490.631835938 256.584960938 l 1
 237.940429688 256.584960938 l 1
 158.319335938 6.79296875 l 2
 156.706054688 1.73046875 151.125 -1.1533203125 146.061523438 0.4609375 c 0
 140.998046875 2.07421875 138.115234375 7.65625 139.729492188 12.71875 c 2
 217.461914062 256.584960938 l 1
 117.317382812 256.584960938 l 2
 112.002929688 256.584960938 107.560546875 261.02734375 107.560546875 266.341796875 c 0
 107.560546875 271.655273438 112.002929688 276.09765625 117.317382812 276.09765625 c 2
 223.681640625 276.09765625 l 1
 286.498046875 473.170898438 l 1
 192.439453125 473.170898438 l 2
 187.125 473.170898438 182.682617188 477.612304688 182.682617188 482.926757812 c 0
 182.682617188 488.241210938 187.125 492.682617188 192.439453125 492.682617188 c 2
 292.717773438 492.682617188 l 1
 388.509765625 793.20703125 l 2
 390.123046875 798.26953125 395.705078125 801.153320312 400.767578125 799.5390625 c 0
EndSplineSet
Validated: 1
EndChar

StartChar: dollar
Encoding: 36 36 51
Width: 605
VWidth: 9
Flags: W
HStem: -0.749023 19.2852<238.621 286.098 305.609 350.156> 780.488 19.2344<243.229 283.171 302.683 344.393>
VStem: 125.122 19.5117<587.954 683.528> 283.171 19.5117<-68.7486 -0.749023 799.07 868.29> 478.293 19.5117<143.333 261.191>
LayerCount: 2
Back
Fore
SplineSet
113.564453125 135.834960938 m 0
 118.469726562 137.87890625 124.279296875 135.487304688 126.322265625 130.58203125 c 0
 135.610351562 108.291015625 148.53125 88.9248046875 165.19140625 72.2646484375 c 0
 198.528320312 38.927734375 244.82421875 18.5361328125 295.853515625 18.5361328125 c 0
 396.749023438 18.5361328125 478.29296875 100.942382812 478.29296875 201.951171875 c 0
 478.29296875 252.176757812 458.751953125 304.684570312 412.958007812 339.48828125 c 2
 194.493164062 498.4609375 l 2
 155.626953125 526.822265625 125.122070312 584.5703125 125.122070312 632.1953125 c 0
 125.122070312 721.138671875 194.5546875 794.665039062 283.170898438 799.72265625 c 1
 283.170898438 858.536132812 l 2
 283.170898438 863.850585938 287.612304688 868.29296875 292.926757812 868.29296875 c 0
 298.241210938 868.29296875 302.682617188 863.850585938 302.682617188 858.536132812 c 2
 302.682617188 799.713867188 l 1
 344.51953125 797.25390625 383.208984375 779.125 410.92578125 751.408203125 c 0
 426.2734375 737.083007812 438.955078125 719.161132812 447.365234375 699.435546875 c 0
 449.44921875 694.546875 447.104492188 688.71875 442.215820312 686.634765625 c 0
 437.328125 684.55078125 431.5 686.895507812 429.416015625 691.784179688 c 0
 422.020507812 709.131835938 411.287109375 724.379882812 397.366210938 737.373046875 c 0
 370.640625 764.098632812 333.235351562 780.48828125 292.926757812 780.48828125 c 0
 210.5390625 780.48828125 144.633789062 713.670898438 144.633789062 632.1953125 c 0
 144.633789062 592.014648438 172.666015625 538.543945312 205.995117188 514.22265625 c 2
 424.602539062 355.145507812 l 2
 476.370117188 315.802734375 497.8046875 257.091796875 497.8046875 201.951171875 c 0
 497.8046875 93.5439453125 412.840820312 4.3818359375 305.609375 -0.7431640625 c 1
 305.609375 -59.51171875 l 2
 305.609375 -64.826171875 301.16796875 -69.2685546875 295.853515625 -69.2685546875 c 0
 290.5390625 -69.2685546875 286.09765625 -64.826171875 286.09765625 -59.51171875 c 2
 286.09765625 -0.7490234375 l 1
 233.659179688 1.69140625 186.157226562 23.7041015625 151.39453125 58.466796875 c 0
 132.932617188 76.9287109375 118.536132812 98.5380859375 108.311523438 123.077148438 c 0
 106.267578125 127.982421875 108.659179688 133.791015625 113.564453125 135.834960938 c 0
EndSplineSet
Validated: 1
EndChar

StartChar: percent
Encoding: 37 37 52
Width: 741
VWidth: 9
Flags: W
HStem: 0 19.5117<453.036 542.574> 253.658 19.5127<453.036 542.574> 526.829 19.5127<199.378 288.915> 780.488 19.5117<199.378 288.915>
VStem: 107.561 19.5127<618.646 708.184> 361.22 19.5117<91.8165 181.354 618.646 708.184> 614.878 19.5127<91.8164 181.354>
CounterMasks: 1 0e
LayerCount: 2
Back
Fore
SplineSet
380.731445312 136.584960938 m 0
 380.731445312 71.71875 432.936523438 19.51171875 497.8046875 19.51171875 c 0
 562.671875 19.51171875 614.877929688 71.7177734375 614.877929688 136.584960938 c 0
 614.877929688 201.452148438 562.672851562 253.658203125 497.8046875 253.658203125 c 0
 432.9375 253.658203125 380.731445312 201.453125 380.731445312 136.584960938 c 0
361.219726562 136.584960938 m 0
 361.219726562 212.205078125 422.18359375 273.170898438 497.8046875 273.170898438 c 0
 573.424804688 273.170898438 634.390625 212.206054688 634.390625 136.584960938 c 0
 634.390625 60.9658203125 573.42578125 0 497.8046875 0 c 0
 422.185546875 0 361.219726562 60.96484375 361.219726562 136.584960938 c 0
127.073242188 663.415039062 m 0
 127.073242188 598.547851562 179.278320312 546.341796875 244.146484375 546.341796875 c 0
 309.013671875 546.341796875 361.219726562 598.546875 361.219726562 663.415039062 c 0
 361.219726562 728.28125 309.014648438 780.48828125 244.146484375 780.48828125 c 0
 179.279296875 780.48828125 127.073242188 728.282226562 127.073242188 663.415039062 c 0
107.560546875 663.415039062 m 0
 107.560546875 739.034179688 168.525390625 800 244.146484375 800 c 0
 319.766601562 800 380.731445312 739.03515625 380.731445312 663.415039062 c 0
 380.731445312 587.794921875 319.767578125 526.829101562 244.146484375 526.829101562 c 0
 168.526367188 526.829101562 107.560546875 587.793945312 107.560546875 663.415039062 c 0
629.951171875 798.423828125 m 0
 634.40625 795.52734375 635.709960938 789.3828125 632.814453125 784.926757812 c 2
 125.497070312 4.439453125 l 2
 122.600585938 -0.0166015625 116.456054688 -1.3203125 112 1.576171875 c 0
 107.544921875 4.47265625 106.241210938 10.6171875 109.13671875 15.0732421875 c 2
 616.454101562 795.560546875 l 2
 619.350585938 800.016601562 625.495117188 801.3203125 629.951171875 798.423828125 c 0
EndSplineSet
Validated: 1
EndChar

StartChar: ampersand
Encoding: 38 38 53
Width: 803
VWidth: 9
Flags: W
HStem: -0.975586 19.5117<281.809 403.894> 780.488 19.5117<291.064 392.35>
VStem: 136.829 19.5127<144.888 261.19> 173.902 19.5127<589.915 682.463> 490 19.5117<587.954 682.463>
LayerCount: 2
Back
Fore
SplineSet
599.330078125 195.706054688 m 1
 652.712890625 250.104492188 697.321289062 305.366210938 709.609375 305.366210938 c 0
 714.923828125 305.366210938 719.366210938 300.923828125 719.366210938 295.609375 c 0
 719.366210938 293.0390625 718.329101562 290.532226562 716.50390625 288.706054688 c 0
 714.340820312 286.469726562 666.484375 236.280273438 613.663085938 182.453125 c 1
 721.989257812 82.28515625 l 2
 725.891601562 78.6767578125 726.13671875 72.400390625 722.529296875 68.498046875 c 0
 718.920898438 64.5966796875 712.643554688 64.3505859375 708.7421875 67.958984375 c 2
 599.97265625 168.537109375 l 1
 544.251953125 112.0390625 489.061523438 56.603515625 471.21484375 47.447265625 c 1
 435.03125 12.54296875 393.622070312 -0.9755859375 338.780273438 -0.9755859375 c 0
 226.9921875 -0.9755859375 136.829101562 90.27734375 136.829101562 201.951171875 c 0
 136.829101562 257.092773438 158.26171875 315.801757812 210.03125 355.145507812 c 2
 315.313476562 431.7578125 l 1
 242.400390625 499.178710938 l 2
 208.387695312 530.630859375 173.90234375 583.903320312 173.90234375 632.1953125 c 0
 173.90234375 724.377929688 248.485351562 800 341.70703125 800 c 0
 434.9296875 800 509.51171875 724.377929688 509.51171875 632.1953125 c 0
 509.51171875 584.556640625 479.005859375 526.821289062 440.130859375 498.453125 c 2
 346.000976562 429.95703125 l 1
 599.330078125 195.706054688 l 1
331.396484375 443.4609375 m 1
 428.649414062 514.23046875 l 2
 461.969726562 538.544921875 490 592.029296875 490 632.1953125 c 0
 490 713.670898438 424.094726562 780.48828125 341.70703125 780.48828125 c 0
 259.3203125 780.48828125 193.415039062 713.670898438 193.415039062 632.1953125 c 0
 193.415039062 592.682617188 224.260742188 542.528320312 255.6484375 513.504882812 c 2
 331.396484375 443.4609375 l 1
329.916992188 418.252929688 m 1
 221.67578125 339.48828125 l 2
 175.884765625 304.686523438 156.341796875 252.174804688 156.341796875 201.951171875 c 0
 156.341796875 100.942382812 237.885742188 18.5361328125 338.780273438 18.5361328125 c 0
 390.877929688 18.5361328125 425.603515625 29.9306640625 458.766601562 62.5634765625 c 0
 459.728515625 63.5107421875 461.135742188 64.3427734375 462.171875 64.740234375 c 0
 471.426757812 69.2666015625 530.479492188 125.8828125 585.638671875 181.791015625 c 1
 329.916992188 418.252929688 l 1
EndSplineSet
Validated: 1
EndChar

StartChar: semicolon
Encoding: 59 59 54
Width: 234
VWidth: 9
Flags: W
HStem: 423.415 19.5117<107.564 127.07>
VStem: 104.634 19.5127<-147.314 19.5085 423.928 442.414>
LayerCount: 2
Back
Fore
SplineSet
107.560546875 433.170898438 m 0
 107.560546875 438.555664062 111.931640625 442.926757812 117.317382812 442.926757812 c 0
 122.702148438 442.926757812 127.073242188 438.555664062 127.073242188 433.170898438 c 0
 127.073242188 427.78515625 122.702148438 423.415039062 117.317382812 423.415039062 c 0
 111.931640625 423.415039062 107.560546875 427.78515625 107.560546875 433.170898438 c 0
114.390625 -147.317382812 m 0
 109.076171875 -147.317382812 104.633789062 -142.875 104.633789062 -137.560546875 c 2
 104.633789062 9.755859375 l 2
 104.633789062 15.0703125 109.076171875 19.51171875 114.390625 19.51171875 c 0
 119.704101562 19.51171875 124.146484375 15.0703125 124.146484375 9.755859375 c 2
 124.146484375 -137.560546875 l 2
 124.146484375 -142.875 119.704101562 -147.317382812 114.390625 -147.317382812 c 0
EndSplineSet
Validated: 1
EndChar

StartChar: at
Encoding: 64 64 55
Width: 1015
VWidth: 9
Flags: W
HStem: 0.348633 19.5127<426.45 592.235> 212.713 19.5117<727.495 808.126> 224.01 19.5127<452.68 551.467> 555.108 19.5127<460.994 560.031> 780.335 19.5127<424.132 588.376>
VStem: 107.561 19.5127<316.723 480.967> 341.642 19.5117<340.709 449.753> 651.556 19.5127<349.105 458.499> 888.39 19.5127<316.448 482.16>
LayerCount: 2
Back
Fore
SplineSet
474.077148438 246.569335938 m 0xbf80
 483.5859375 244.51171875 493.077148438 243.522460938 502.462890625 243.522460938 c 0
 569.696289062 243.522460938 632.204101562 294.581054688 647.908203125 369.532226562 c 0
 650.375976562 381.30859375 651.555664062 392.987304688 651.555664062 404.41796875 c 0
 651.555664062 475.948242188 605.514648438 537.545898438 538.631835938 552.025390625 c 0
 529.014648438 554.108398438 519.4140625 555.108398438 509.922851562 555.108398438 c 0
 442.76171875 555.108398438 380.47265625 504.717773438 364.80078125 429.920898438 c 0
 362.333984375 418.146484375 361.153320312 406.451171875 361.153320312 394.991210938 c 0
 361.153320312 323.245117188 407.25 261.037109375 474.077148438 246.569335938 c 0xbf80
469.94921875 227.499023438 m 0
 393.19140625 244.1171875 341.641601562 315.083984375 341.641601562 394.991210938 c 0
 341.641601562 407.791992188 342.9609375 420.83203125 345.704101562 433.922851562 c 0
 363.135742188 517.123046875 432.849609375 574.62109375 509.922851562 574.62109375 c 0
 520.786132812 574.62109375 531.782226562 573.473632812 542.760742188 571.095703125 c 0
 619.46484375 554.490234375 671.068359375 484.19140625 671.068359375 404.41796875 c 0
 671.068359375 391.669921875 669.75390625 378.674804688 667.022460938 365.611328125 c 0
 667.016601562 365.579101562 667.009765625 365.546875 667.002929688 365.514648438 c 0
 665.16796875 356.834960938 664.293945312 348.227539062 664.293945312 339.844726562 c 0
 664.293945312 294.629882812 705.418945312 243.075195312 747.424804688 233.973632812 c 0
 752.880859375 232.791992188 758.318359375 232.224609375 763.713867188 232.224609375 c 0
 809.087890625 232.224609375 868.515625 265.250976562 880.296875 321.014648438 c 0
 885.762695312 347.250976562 888.389648438 373.413085938 888.389648438 399.188476562 c 0
 888.389648438 575.385742188 765.600585938 733.748046875 586.3515625 771.920898438 c 0
 559.657226562 777.606445312 533.04296875 780.334960938 506.833007812 780.334960938 c 0
 331.20703125 780.334960938 173.564453125 657.736328125 135.487304688 478.943359375 c 0
 129.802734375 452.249023438 127.073242188 425.633789062 127.073242188 399.423828125 c 0
 127.073242188 223.799804688 249.6875 66.1513671875 428.447265625 28.08203125 c 0
 454.961914062 22.5390625 481.474609375 19.861328125 507.549804688 19.861328125 c 0
 567.55859375 19.861328125 625.517578125 34.0048828125 677.58203125 59.8544921875 c 0
 682.341796875 62.2177734375 688.294921875 60.21484375 690.658203125 55.455078125 c 0
 693.021484375 50.6953125 691.018554688 44.7412109375 686.258789062 42.3779296875 c 0
 631.569335938 15.224609375 570.6328125 0.3486328125 507.549804688 0.3486328125 c 0
 480.129882812 0.3486328125 452.307617188 3.1591796875 424.436523438 8.9873046875 c 0
 236.430664062 49.025390625 107.560546875 214.716796875 107.560546875 399.423828125 c 0
 107.560546875 426.98828125 110.43359375 454.97265625 116.403320312 483.0078125 c 0
 156.427734375 670.94921875 322.127929688 799.84765625 506.833007812 799.84765625 c 0
 534.397460938 799.84765625 562.380859375 796.9765625 590.416015625 791.005859375 c 0
 778.842773438 750.877929688 907.90234375 584.435546875 907.90234375 399.188476562 c 0
 907.90234375 372.086914062 905.138671875 344.5859375 899.3984375 317.034179688 c 0
 885.141601562 249.548828125 816.380859375 212.712890625 763.713867188 212.712890625 c 0xdf80
 756.946289062 212.712890625 750.112304688 213.427734375 743.294921875 214.903320312 c 0
 699.299804688 224.436523438 659.444335938 267.708984375 648.038085938 313.9609375 c 1
 618.067382812 259.188476562 562.502929688 224.009765625 502.462890625 224.009765625 c 0
 491.705078125 224.009765625 480.8203125 225.145507812 469.94921875 227.499023438 c 0
EndSplineSet
Validated: 1
EndChar

StartChar: equal
Encoding: 61 61 56
Width: 491
VWidth: 9
Flags: W
HStem: 216.585 19.5127<107.564 383.655> 423.415 19.5117<107.564 383.655>
VStem: 107.561 276.098<216.585 236.098 423.415 442.927>
LayerCount: 2
Back
Fore
SplineSet
383.658203125 226.341796875 m 0
 383.658203125 221.02734375 379.216796875 216.584960938 373.90234375 216.584960938 c 2
 117.317382812 216.584960938 l 2
 112.002929688 216.584960938 107.560546875 221.02734375 107.560546875 226.341796875 c 0
 107.560546875 231.655273438 112.002929688 236.09765625 117.317382812 236.09765625 c 2
 373.90234375 236.09765625 l 2
 379.216796875 236.09765625 383.658203125 231.655273438 383.658203125 226.341796875 c 0
383.658203125 433.170898438 m 0
 383.658203125 427.856445312 379.216796875 423.415039062 373.90234375 423.415039062 c 2
 117.317382812 423.415039062 l 2
 112.002929688 423.415039062 107.560546875 427.856445312 107.560546875 433.170898438 c 0
 107.560546875 438.484375 112.002929688 442.926757812 117.317382812 442.926757812 c 2
 373.90234375 442.926757812 l 2
 379.216796875 442.926757812 383.658203125 438.484375 383.658203125 433.170898438 c 0
EndSplineSet
Validated: 1
EndChar

StartChar: less
Encoding: 60 60 57
Width: 484
VWidth: 9
Flags: W
LayerCount: 2
Back
Fore
SplineSet
374.500976562 1.4794921875 m 0
 371.055664062 -2.56640625 364.793945312 -3.068359375 360.748046875 0.376953125 c 2
 110.9921875 213.059570312 l 2
 108.73828125 214.978515625 103.166015625 221.250976562 110.9921875 227.916015625 c 2
 360.748046875 440.598632812 l 2
 364.793945312 444.043945312 371.055664062 443.541992188 374.500976562 439.49609375 c 0
 377.946289062 435.450195312 377.444335938 429.188476562 373.3984375 425.743164062 c 2
 132.365234375 220.48828125 l 1
 373.3984375 15.232421875 l 2
 377.444335938 11.787109375 377.946289062 5.525390625 374.500976562 1.4794921875 c 0
EndSplineSet
Validated: 1
EndChar

StartChar: greater
Encoding: 62 62 58
Width: 484
VWidth: 9
Flags: W
LayerCount: 2
Back
Fore
SplineSet
109.889648438 1.4794921875 m 0
 106.444335938 5.525390625 106.946289062 11.787109375 110.9921875 15.232421875 c 2
 352.025390625 220.48828125 l 1
 110.9921875 425.743164062 l 2
 106.946289062 429.188476562 106.444335938 435.450195312 109.889648438 439.49609375 c 0
 113.334960938 443.541992188 119.596679688 444.043945312 123.642578125 440.598632812 c 2
 373.3984375 227.916015625 l 2
 381.224609375 221.250976562 375.651367188 214.978515625 373.3984375 213.059570312 c 2
 123.642578125 0.376953125 l 2
 119.596679688 -3.068359375 113.334960938 -2.56640625 109.889648438 1.4794921875 c 0
EndSplineSet
Validated: 1
EndChar

StartChar: bracketleft
Encoding: 91 91 59
Width: 305
VWidth: 9
Flags: W
HStem: 0 19.5117<127.085 197.314> 780.488 19.5117<128.036 198.29>
VStem: 107.561 89.7568<0 19.5117 780.488 800> 107.561 19.5244<19.5117 780.488>
LayerCount: 2
Back
Fore
SplineSet
197.317382812 9.755859375 m 0xe0
 197.317382812 4.4423828125 192.875 0 187.560546875 0 c 2
 117.317382812 0 l 2
 112.0078125 0 107.5546875 4.431640625 107.560546875 9.7685546875 c 2xe0
 108.536132812 790.255859375 l 2
 108.543945312 795.802734375 113.427734375 800 118.29296875 800 c 2
 188.536132812 800 l 2
 193.850585938 800 198.29296875 795.557617188 198.29296875 790.244140625 c 0
 198.29296875 784.9296875 193.850585938 780.48828125 188.536132812 780.48828125 c 2
 128.036132812 780.48828125 l 1
 127.084960938 19.51171875 l 1xd0
 187.560546875 19.51171875 l 2
 192.875 19.51171875 197.317382812 15.0703125 197.317382812 9.755859375 c 0xe0
EndSplineSet
Validated: 1
EndChar

StartChar: backslash
Encoding: 92 92 60
Width: 484
VWidth: 9
Flags: W
VStem: 108.025 268.34
LayerCount: 2
Back
Fore
SplineSet
114.34375 799.536132812 m 0
 119.405273438 801.155273438 124.989257812 798.278320312 126.609375 793.217773438 c 2
 376.365234375 12.7294921875 l 2
 377.984375 7.66796875 375.107421875 2.083984375 370.046875 0.4638671875 c 0
 364.985351562 -1.1552734375 359.400390625 1.7216796875 357.78125 6.7822265625 c 2
 108.025390625 787.270507812 l 2
 106.405273438 792.33203125 109.282226562 797.916015625 114.34375 799.536132812 c 0
EndSplineSet
Validated: 1
EndChar

StartChar: bracketright
Encoding: 93 93 61
Width: 305
VWidth: 9
Flags: W
HStem: 0 19.5117<108.539 178.769> 780.488 19.5117<107.564 177.817>
VStem: 108.536 89.7568<0 19.5117 780.488 800> 178.769 19.5244<19.5117 780.488>
LayerCount: 2
Back
Fore
SplineSet
108.536132812 9.755859375 m 0xe0
 108.536132812 15.0703125 112.978515625 19.51171875 118.29296875 19.51171875 c 2
 178.768554688 19.51171875 l 1xd0
 177.817382812 780.48828125 l 1
 117.317382812 780.48828125 l 2
 112.002929688 780.48828125 107.560546875 784.9296875 107.560546875 790.244140625 c 0
 107.560546875 795.557617188 112.002929688 800 117.317382812 800 c 2
 187.560546875 800 l 2
 192.42578125 800 197.310546875 795.802734375 197.317382812 790.255859375 c 2
 198.29296875 9.7685546875 l 2
 198.299804688 4.431640625 193.845703125 0 188.536132812 0 c 2
 118.29296875 0 l 2
 112.978515625 0 108.536132812 4.4423828125 108.536132812 9.755859375 c 0xe0
EndSplineSet
Validated: 1
EndChar

StartChar: asciicircum
Encoding: 94 94 62
Width: 533
VWidth: 9
Flags: W
HStem: 844.69 120.473
VStem: 109.324 314.521
LayerCount: 2
Back
Fore
SplineSet
109.32421875 847.087890625 m 0
 106.27734375 851.44140625 107.369140625 857.627929688 111.72265625 860.67578125 c 2
 260.990234375 965.163085938 l 2
 264.315429688 967.490234375 268.86328125 967.484375 272.1796875 965.163085938 c 2
 421.448242188 860.67578125 l 2
 425.801757812 857.627929688 426.893554688 851.44140625 423.845703125 847.087890625 c 0
 420.798828125 842.734375 414.612304688 841.642578125 410.258789062 844.690429688 c 2
 266.584960938 945.26171875 l 1
 122.912109375 844.690429688 l 2
 118.55859375 841.642578125 112.372070312 842.734375 109.32421875 847.087890625 c 0
EndSplineSet
Validated: 1
EndChar

StartChar: a
Encoding: 97 97 63
Width: 621
VWidth: 9
Flags: W
HStem: 265.366 19.5117<145.201 476.304> 780 20G<310.575 312.214> 780 20G<310.575 312.214>
LayerCount: 2
Back
Fore
SplineSet
145.201171875 284.877929688 m 1x80
 476.303710938 284.877929688 l 1
 405.26953125 488.4765625 335.258789062 689.368164062 310.522460938 760.623046875 c 1
 145.201171875 284.877929688 l 1x80
585.900390625 0.5458984375 m 0
 580.883789062 -1.20703125 575.225585938 1.521484375 573.47265625 6.5380859375 c 0
 545.994140625 85.1923828125 514.590820312 175.147460938 483.112304688 265.366210938 c 1
 138.420898438 265.366210938 l 1
 48.4833984375 6.5537109375 l 2
 46.7392578125 1.5341796875 41.0859375 -1.2041015625 36.0654296875 0.541015625 c 0
 31.0458984375 2.28515625 28.30859375 7.9384765625 30.052734375 12.9580078125 c 2
 301.272460938 793.446289062 l 2
 302.653320312 797.420898438 306.486328125 799.965820312 310.514648438 799.985351562 c 0
 310.541992188 799.995117188 310.564453125 800 310.584960938 800 c 0xc0
 313.84375 800 315.776367188 799.206054688 317.259765625 797.235351562 c 0
 319.029296875 795.493164062 320.102539062 793.108398438 320.21875 790.619140625 c 0
 320.259765625 790.49609375 320.30078125 790.370117188 320.341796875 790.244140625 c 0
 321.1640625 787.823242188 410.30078125 532.717773438 499.029296875 278.768554688 c 0
 499.166015625 278.4375 499.28515625 278.09765625 499.384765625 277.750976562 c 0
 531.72265625 185.197265625 563.991210938 92.841796875 591.893554688 12.9736328125 c 0
 593.645507812 7.95703125 590.916992188 2.298828125 585.900390625 0.5458984375 c 0
EndSplineSet
Validated: 1
EndChar

StartChar: b
Encoding: 98 98 64
Width: 644
VWidth: 9
Flags: W
HStem: 0.975586 19.4717<127.066 418.151> 468.293 19.5117<127.066 326.574 353.284 414.093> 780.488 19.5117<127.066 323.307>
VStem: 107.555 19.5117<20.4473 468.293 487.805 780.488> 419.76 19.5117<582.285 683.658> 575.854 19.5117<182.348 304.783>
LayerCount: 2
Back
Fore
SplineSet
268.958007812 468.29296875 m 2
 127.06640625 468.29296875 l 1
 127.06640625 20.447265625 l 1
 351.497070312 19.51171875 l 2
 475.235351562 19.51171875 575.854492188 119.145507812 575.854492188 243.78515625 c 0
 575.854492188 367.375 477.112304688 467.362304688 353.334960938 468.29296875 c 2
 291.57421875 468.29296875 l 2
 285.63671875 467.655273438 279.530273438 467.317382812 273.505859375 467.317382812 c 0
 272.500976562 467.317382812 270.487304688 467.795898438 268.958007812 468.29296875 c 2
127.06640625 487.8046875 m 1
 290.487304688 487.8046875 l 2
 300.12109375 488.948242188 309.596679688 491.016601562 318.432617188 493.875976562 c 0
 377.096679688 512.856445312 419.759765625 567.999023438 419.759765625 633.997070312 c 0
 419.759765625 714.576171875 354.208007812 779.580078125 274.328125 780.48828125 c 2
 127.06640625 780.48828125 l 1
 127.06640625 487.8046875 l 1
353.284179688 487.805664062 m 1
 487.907226562 486.793945312 595.366210938 378.021484375 595.366210938 243.784179688 c 0
 595.366210938 108.321289062 485.999023438 0 351.436523438 0 c 2
 117.26953125 0.9755859375 l 2
 111.712890625 0.9990234375 107.5546875 5.9189453125 107.5546875 10.7314453125 c 2
 107.5546875 790.244140625 l 2
 107.5546875 796.149414062 113.123046875 800 117.310546875 800 c 2
 274.439453125 800 l 2
 365.07421875 798.969726562 439.271484375 725.416992188 439.271484375 634.0078125 c 0
 439.271484375 570.788085938 404.30078125 516.28125 353.284179688 487.805664062 c 1
EndSplineSet
Validated: 1
EndChar

StartChar: c
Encoding: 99 99 65
Width: 709
VWidth: 9
Flags: W
HStem: 0 19.5117<336.686 485.32> 780.488 19.5117<336.686 485.322>
VStem: 88.0488 19.5117<249.15 550.85>
LayerCount: 2
Back
Fore
SplineSet
638.362304688 108.362304688 m 0
 642.120117188 104.604492188 642.120117188 98.322265625 638.362304688 94.564453125 c 0
 580.071289062 36.2734375 500.494140625 0 410.975585938 0 c 0
 232.940429688 0 88.048828125 143.846679688 88.048828125 321.951171875 c 2
 88.048828125 478.048828125 l 2
 88.048828125 656.153320312 232.940429688 800 410.975585938 800 c 0
 500.494140625 800 580.069335938 763.725585938 638.454101562 705.44140625 c 0
 642.21484375 701.686523438 642.219726562 695.405273438 638.465820312 691.643554688 c 0
 634.7109375 687.8828125 628.428710938 687.877929688 624.66796875 691.631835938 c 0
 569.686523438 746.518554688 495.115234375 780.48828125 410.975585938 780.48828125 c 0
 243.64453125 780.48828125 107.560546875 645.309570312 107.560546875 478.048828125 c 2
 107.560546875 321.951171875 l 2
 107.560546875 154.690429688 243.64453125 19.51171875 410.975585938 19.51171875 c 0
 495.116210938 19.51171875 569.684570312 53.482421875 624.564453125 108.362304688 c 0
 628.322265625 112.120117188 634.604492188 112.120117188 638.362304688 108.362304688 c 0
EndSplineSet
Validated: 1
EndChar

StartChar: d
Encoding: 100 100 66
Width: 780
VWidth: 9
Flags: W
HStem: 0 19.5117<127.073 392.59> 780.488 19.5117<127.073 393.792>
VStem: 107.561 19.5127<19.5117 780.488> 691.947 19.5195<316.157 483.843>
LayerCount: 2
Back
Fore
SplineSet
127.073242188 19.51171875 m 1
 311.463867188 19.51171875 l 2
 407.526367188 19.51171875 506.49609375 56.634765625 580.662109375 130.80078125 c 0
 654.852539062 204.991210938 691.947265625 302.49609375 691.947265625 400 c 0
 691.947265625 497.50390625 654.852539062 595.008789062 580.662109375 669.19921875 c 0
 506.448242188 743.413085938 409.471679688 780.48828125 312.439453125 780.48828125 c 2
 127.073242188 780.48828125 l 1
 127.073242188 19.51171875 l 1
107.560546875 9.755859375 m 2
 107.560546875 790.244140625 l 2
 107.560546875 796.149414062 113.129882812 800 117.317382812 800 c 2
 312.439453125 800 l 2
 414.430664062 800 516.478515625 760.9765625 594.459960938 682.99609375 c 0
 672.46484375 604.9921875 711.466796875 502.49609375 711.466796875 400 c 0
 711.466796875 297.50390625 672.46484375 195.0078125 594.459960938 117.00390625 c 0
 516.430664062 38.9755859375 412.473632812 0 311.463867188 0 c 2
 117.317382812 0 l 2
 111.412109375 0 107.560546875 5.568359375 107.560546875 9.755859375 c 2
EndSplineSet
Validated: 1
EndChar

StartChar: e
Encoding: 101 101 67
Width: 615
VWidth: 9
Flags: W
HStem: 0 19.5117<127.073 556.339> 390.244 19.5117<127.073 478.29> 780.488 19.5117<127.073 556.339>
VStem: 107.561 19.5127<19.5117 390.244 409.756 780.488>
CounterMasks: 1 e0
LayerCount: 2
Back
Fore
SplineSet
556.341796875 790.244140625 m 0
 556.341796875 784.9296875 551.899414062 780.48828125 546.584960938 780.48828125 c 2
 127.073242188 780.48828125 l 1
 127.073242188 409.755859375 l 1
 468.536132812 409.755859375 l 2
 473.850585938 409.755859375 478.29296875 405.314453125 478.29296875 400 c 0
 478.29296875 394.685546875 473.850585938 390.244140625 468.536132812 390.244140625 c 2
 127.073242188 390.244140625 l 1
 127.073242188 19.51171875 l 1
 546.584960938 19.51171875 l 2
 551.899414062 19.51171875 556.341796875 15.0703125 556.341796875 9.755859375 c 0
 556.341796875 4.4423828125 551.899414062 0 546.584960938 0 c 2
 117.317382812 0 l 2
 113.129882812 0 107.560546875 3.8505859375 107.560546875 9.755859375 c 2
 107.560546875 400 l 1
 107.560546875 790.244140625 l 2
 107.560546875 794.431640625 111.412109375 800 117.317382812 800 c 2
 546.584960938 800 l 2
 551.899414062 800 556.341796875 795.557617188 556.341796875 790.244140625 c 0
EndSplineSet
Validated: 1
EndChar

StartChar: f
Encoding: 102 102 68
Width: 566
VWidth: 9
Flags: W
HStem: 0 21G<114.66 119.974> 0 21G<114.66 119.974> 390.244 19.5117<127.073 478.29> 780.488 19.5117<127.073 556.339>
VStem: 107.561 19.5127<0.00324007 390.244 409.756 780.488>
LayerCount: 2
Back
Fore
SplineSet
556.341796875 790.244140625 m 0xb8
 556.341796875 784.9296875 551.899414062 780.48828125 546.584960938 780.48828125 c 2
 127.073242188 780.48828125 l 1
 127.073242188 409.755859375 l 1
 468.536132812 409.755859375 l 2
 473.850585938 409.755859375 478.29296875 405.314453125 478.29296875 400 c 0
 478.29296875 394.685546875 473.850585938 390.244140625 468.536132812 390.244140625 c 2
 127.073242188 390.244140625 l 1
 127.073242188 9.755859375 l 2
 127.073242188 4.4423828125 122.630859375 0 117.317382812 0 c 0
 112.002929688 0 107.560546875 4.4423828125 107.560546875 9.755859375 c 2
 107.560546875 400 l 1
 107.560546875 790.244140625 l 2
 107.560546875 794.431640625 111.412109375 800 117.317382812 800 c 2
 546.584960938 800 l 2
 551.899414062 800 556.341796875 795.557617188 556.341796875 790.244140625 c 0xb8
EndSplineSet
Validated: 1
EndChar

StartChar: g
Encoding: 103 103 69
Width: 842
VWidth: 9
Flags: W
HStem: 0 19.5117<384.906 553.76> 365.854 19.5127<519.272 734.878> 780.488 19.5117<384.118 553.433>
VStem: 68.5361 19.5127<316.369 483.631> 734.878 19.5127<121.235 365.854>
LayerCount: 2
Back
Fore
SplineSet
519.268554688 375.609375 m 0
 519.268554688 380.923828125 523.709960938 385.366210938 529.024414062 385.366210938 c 2
 744.633789062 385.366210938 l 2
 750.5390625 385.366210938 754.390625 379.796875 754.390625 375.609375 c 2
 754.390625 123.90234375 l 2
 754.390625 121.266601562 753.052734375 118.5234375 751.533203125 117.00390625 c 0
 673.526367188 38.9970703125 570.515625 0 468.536132812 0 c 0
 366.557617188 0 263.546875 38.9970703125 185.540039062 117.00390625 c 0
 107.534179688 195.010742188 68.5361328125 298.020507812 68.5361328125 400 c 0
 68.5361328125 501.979492188 107.534179688 604.989257812 185.540039062 682.99609375 c 0
 263.521484375 760.9765625 365.569335938 800 467.560546875 800 c 0
 569.47265625 800 672.510742188 762.015625 750.650390625 683.9765625 c 0
 754.41015625 680.220703125 754.4140625 673.939453125 750.659179688 670.178710938 c 0
 746.904296875 666.418945312 740.622070312 666.415039062 736.862304688 670.169921875 c 0
 662.611328125 744.325195312 564.673828125 780.48828125 467.560546875 780.48828125 c 0
 370.528320312 780.48828125 273.551757812 743.413085938 199.337890625 669.19921875 c 0
 125.149414062 595.010742188 88.048828125 497.044921875 88.048828125 400 c 0
 88.048828125 302.955078125 125.149414062 204.989257812 199.337890625 130.80078125 c 0
 273.526367188 56.6123046875 371.491210938 19.51171875 468.536132812 19.51171875 c 0
 564.328125 19.51171875 659.975585938 54.9306640625 734.877929688 127.97265625 c 1
 734.877929688 365.853515625 l 1
 529.024414062 365.853515625 l 2
 523.709960938 365.853515625 519.268554688 370.295898438 519.268554688 375.609375 c 0
EndSplineSet
Validated: 1
EndChar

StartChar: h
Encoding: 104 104 70
Width: 702
VWidth: 9
Flags: W
HStem: 0 21G<114.66 119.974 582.953 588.267> 0 21G<114.66 119.974 582.953 588.267> 390.244 19.5117<127.073 575.854> 780 20G<114.66 119.974 582.953 588.267> 780 20G<114.66 119.974 582.953 588.267>
VStem: 107.561 19.5127<0.00324007 390.244 409.756 799.997> 575.854 19.5127<0.00324007 390.244 409.756 799.997>
LayerCount: 2
Back
Fore
SplineSet
117.317382812 0 m 0xb6
 112.002929688 0 107.560546875 4.4423828125 107.560546875 9.755859375 c 2
 107.560546875 400 l 1
 107.560546875 790.244140625 l 2
 107.560546875 795.557617188 112.002929688 800 117.317382812 800 c 0
 122.630859375 800 127.073242188 795.557617188 127.073242188 790.244140625 c 2
 127.073242188 409.755859375 l 1
 575.853515625 409.755859375 l 1
 575.853515625 790.244140625 l 2
 575.853515625 795.557617188 580.295898438 800 585.609375 800 c 0
 590.923828125 800 595.366210938 795.557617188 595.366210938 790.244140625 c 2
 595.366210938 9.755859375 l 2
 595.366210938 4.4423828125 590.923828125 0 585.609375 0 c 0
 580.295898438 0 575.853515625 4.4423828125 575.853515625 9.755859375 c 2
 575.853515625 390.244140625 l 1
 127.073242188 390.244140625 l 1
 127.073242188 9.755859375 l 2
 127.073242188 4.4423828125 122.630859375 0 117.317382812 0 c 0xb6
EndSplineSet
Validated: 1
EndChar

StartChar: i
Encoding: 105 105 71
Width: 258
VWidth: 9
Flags: W
HStem: 0 21G<126.367 131.682> 0 21G<126.367 131.682> 780 20G<126.367 131.682> 780 20G<126.367 131.682>
VStem: 119.269 19.5117<0.00324007 799.997>
LayerCount: 2
Back
Fore
SplineSet
129.024414062 800 m 0xa8
 134.338867188 800 138.780273438 795.557617188 138.780273438 790.244140625 c 2
 138.780273438 9.755859375 l 2
 138.780273438 4.4423828125 134.338867188 0 129.024414062 0 c 0
 123.709960938 0 119.268554688 4.4423828125 119.268554688 9.755859375 c 2
 119.268554688 790.244140625 l 2
 119.268554688 795.557617188 123.709960938 800 129.024414062 800 c 0xa8
EndSplineSet
Validated: 1
EndChar

StartChar: j
Encoding: 106 106 72
Width: 440
VWidth: 9
Flags: W
HStem: 0 19.5117<132.773 235.278> 780 20G<340.026 345.34> 780 20G<340.026 345.34>
VStem: 332.927 19.5127<117.722 799.997>
LayerCount: 2
Back
Fore
SplineSet
35.482421875 113.381835938 m 0xd0
 40.3798828125 115.444335938 46.197265625 113.07421875 48.259765625 108.17578125 c 0
 55.5498046875 90.86328125 66.27734375 75.6162109375 80.1943359375 62.626953125 c 0
 106.920898438 35.9013671875 144.325195312 19.51171875 184.633789062 19.51171875 c 0
 267.075195312 19.51171875 332.926757812 85.3642578125 332.926757812 167.8046875 c 2
 332.926757812 790.244140625 l 2
 332.926757812 795.557617188 337.369140625 800 342.682617188 800 c 0
 347.997070312 800 352.439453125 795.557617188 352.439453125 790.244140625 c 2
 352.439453125 167.8046875 l 2
 352.439453125 74.6357421875 277.802734375 0 184.633789062 0 c 0
 139.08984375 0 96.494140625 18.7333984375 66.634765625 48.591796875 c 0
 51.283203125 62.919921875 38.5966796875 80.84375 30.2763671875 100.604492188 c 0
 28.21484375 105.501953125 30.5849609375 111.319335938 35.482421875 113.381835938 c 0xd0
EndSplineSet
Validated: 1
EndChar

StartChar: k
Encoding: 107 107 73
Width: 624
VWidth: 9
Flags: W
HStem: 0 21G<114.66 119.974> 0 21G<114.66 119.974> 780 20G<114.66 119.974> 780 20G<114.66 119.974>
VStem: 107.561 19.5127<0.00324007 799.997>
LayerCount: 2
Back
Fore
SplineSet
117.317382812 800 m 0xa8
 122.630859375 800 127.073242188 795.557617188 127.073242188 790.244140625 c 2
 127.073242188 9.755859375 l 2
 127.073242188 4.4423828125 122.630859375 0 117.317382812 0 c 0
 112.002929688 0 107.560546875 4.4423828125 107.560546875 9.755859375 c 2
 107.560546875 790.244140625 l 2
 107.560546875 795.557617188 112.002929688 800 117.317382812 800 c 0xa8
573.030273438 797.108398438 m 0
 576.76953125 793.33203125 576.73828125 787.049804688 572.961914062 783.311523438 c 2
 185.817382812 400 l 1
 572.961914062 16.6884765625 l 2
 576.73828125 12.9501953125 576.76953125 6.66796875 573.030273438 2.8916015625 c 0
 569.291015625 -0.884765625 563.009765625 -0.916015625 559.233398438 2.8232421875 c 2
 165.086914062 393.067382812 l 2
 161.184570312 396.931640625 161.33984375 403.22265625 165.086914062 406.932617188 c 2
 559.233398438 797.176757812 l 2
 563.009765625 800.916015625 569.291015625 800.884765625 573.030273438 797.108398438 c 0
EndSplineSet
Validated: 1
EndChar

StartChar: l
Encoding: 108 108 74
Width: 624
VWidth: 9
Flags: W
HStem: 0 19.5117<127.073 595.363> 780 20G<114.66 119.974> 780 20G<114.66 119.974>
VStem: 107.561 19.5127<19.5117 799.997>
LayerCount: 2
Back
Fore
SplineSet
117.317382812 800 m 0xd0
 122.630859375 800 127.073242188 795.557617188 127.073242188 790.244140625 c 2
 127.073242188 19.51171875 l 1
 585.609375 19.51171875 l 2
 590.923828125 19.51171875 595.366210938 15.0703125 595.366210938 9.755859375 c 0
 595.366210938 4.4423828125 590.923828125 0 585.609375 0 c 2
 117.317382812 0 l 2
 113.129882812 0 107.560546875 3.8505859375 107.560546875 9.755859375 c 2
 107.560546875 790.244140625 l 2
 107.560546875 795.557617188 112.002929688 800 117.317382812 800 c 0xd0
EndSplineSet
Validated: 1
EndChar

StartChar: m
Encoding: 109 109 75
Width: 1017
VWidth: 9
Flags: W
HStem: 0 21G<114.66 119.974 897.099 902.413> 0 21G<114.66 119.974 897.099 902.413> 780 20G<114.625 119.255 898.83 900.141> 780 20G<114.625 119.255 898.83 900.141>
VStem: 107.561 19.5127<0.00324007 749.1 794.461 799.997> 890 19.5117<0.00324007 748.916>
LayerCount: 2
Back
Fore
SplineSet
107.560546875 790.244140625 m 2xac
 107.560546875 795.62890625 111.931640625 800 117.317382812 800 c 0
 121.192382812 800 124.541992188 797.737304688 126.116210938 794.4609375 c 2
 509.490234375 31.52734375 l 1
 891.030273438 794.607421875 l 2
 891.8671875 796.282226562 893.149414062 797.61328125 894.666015625 798.53125 c 0
 896.15625 799.459960938 897.903320312 800 899.755859375 800 c 0
 900.526367188 800 901.278320312 799.90625 902.000976562 799.73046875 c 0
 902.72265625 799.564453125 903.43359375 799.3125 904.119140625 798.969726562 c 0
 905.790039062 798.134765625 907.119140625 796.856445312 908.036132812 795.34375 c 0
 908.96875 793.8515625 909.51171875 792.1015625 909.51171875 790.244140625 c 2
 909.51171875 9.755859375 l 2
 909.51171875 4.4423828125 905.0703125 0 899.755859375 0 c 0
 894.442382812 0 890 4.4423828125 890 9.755859375 c 2
 890 748.916015625 l 1
 518.23828125 5.392578125 l 2
 517.755859375 4.427734375 517.125 3.576171875 516.38671875 2.8525390625 c 0
 515.673828125 2.130859375 514.837890625 1.5146484375 513.892578125 1.0390625 c 0
 512.499023438 0.3388671875 511 0.013671875 509.518554688 0.0244140625 c 0
 508.0390625 0.01171875 506.541992188 0.333984375 505.149414062 1.0302734375 c 0
 504.197265625 1.505859375 503.356445312 2.1259765625 502.639648438 2.8505859375 c 0
 501.905273438 3.5703125 501.27734375 4.416015625 500.794921875 5.3759765625 c 2
 127.073242188 749.099609375 l 1
 127.073242188 9.755859375 l 2
 127.073242188 4.4423828125 122.630859375 0 117.317382812 0 c 0
 112.002929688 0 107.560546875 4.4423828125 107.560546875 9.755859375 c 2
 107.560546875 790.244140625 l 2xac
EndSplineSet
Validated: 1
EndChar

StartChar: n
Encoding: 110 110 76
Width: 780
VWidth: 9
Flags: W
HStem: 0 21G<114.66 119.974 662.855 664.166> 0 21G<114.66 119.974 662.855 664.166> 780 20G<116.81 118.12 661.001 666.315> 780 20G<116.81 118.12 661.001 666.315>
VStem: 107.561 19.5127<0.00324007 759.294> 653.902 19.5127<40.7061 799.997>
LayerCount: 2
Back
Fore
SplineSet
663.658203125 800 m 0xac
 668.97265625 800 673.415039062 795.557617188 673.415039062 790.244140625 c 2
 673.415039062 9.755859375 l 2
 673.415039062 8.1357421875 673.001953125 6.59765625 672.278320312 5.2412109375 c 0
 671.58203125 3.88671875 670.56640625 2.6826171875 669.252929688 1.763671875 c 0
 668.418945312 1.1796875 667.516601562 0.7470703125 666.583007812 0.4609375 c 0
 665.65625 0.162109375 664.672851562 0 663.658203125 0 c 0
 662.052734375 0 660.526367188 0.40625 659.177734375 1.119140625 c 0
 657.810546875 1.814453125 656.592773438 2.8369140625 655.666015625 4.1611328125 c 2
 127.073242188 759.293945312 l 1
 127.073242188 9.755859375 l 2
 127.073242188 4.4423828125 122.630859375 0 117.317382812 0 c 0
 112.002929688 0 107.560546875 4.4423828125 107.560546875 9.755859375 c 2
 107.560546875 790.244140625 l 2
 107.560546875 791.864257812 107.973632812 793.40234375 108.697265625 794.758789062 c 0
 109.393554688 796.11328125 110.409179688 797.317382812 111.72265625 798.236328125 c 0
 112.556640625 798.8203125 113.458984375 799.252929688 114.392578125 799.5390625 c 0
 115.319335938 799.837890625 116.302734375 800 117.317382812 800 c 0
 118.922851562 800 120.44921875 799.59375 121.797851562 798.880859375 c 0
 123.165039062 798.185546875 124.3828125 797.163085938 125.309570312 795.838867188 c 2
 653.90234375 40.7060546875 l 1
 653.90234375 790.244140625 l 2
 653.90234375 795.557617188 658.344726562 800 663.658203125 800 c 0xac
EndSplineSet
Validated: 1
EndChar

StartChar: o
Encoding: 111 111 77
Width: 937
VWidth: 9
Flags: W
HStem: 0 19.5117<385.24 551.832> 780.488 19.5117<385.24 551.832>
VStem: 68.5361 19.5127<316.704 483.296> 849.024 19.5117<316.704 483.296>
LayerCount: 2
Back
Fore
SplineSet
468.536132812 19.51171875 m 0
 678.760742188 19.51171875 849.024414062 189.775390625 849.024414062 400 c 0
 849.024414062 610.224609375 678.760742188 780.48828125 468.536132812 780.48828125 c 0
 258.3125 780.48828125 88.048828125 610.224609375 88.048828125 400 c 0
 88.048828125 189.775390625 258.3125 19.51171875 468.536132812 19.51171875 c 0
468.536132812 0 m 0
 247.541992188 0 68.5361328125 179.004882812 68.5361328125 400 c 0
 68.5361328125 620.995117188 247.541992188 800 468.536132812 800 c 0
 689.53125 800 868.536132812 620.995117188 868.536132812 400 c 0
 868.536132812 179.004882812 689.53125 0 468.536132812 0 c 0
EndSplineSet
Validated: 1
EndChar

StartChar: p
Encoding: 112 112 78
Width: 642
VWidth: 9
Flags: W
HStem: 0 21G<114.66 119.974> 0 21G<114.66 119.974> 312.195 19.5117<127.073 410.408> 780.488 19.5117<127.073 412.272>
VStem: 107.561 19.5127<0.00324007 312.195 331.707 780.488> 573.909 19.5117<494.535 616.969>
LayerCount: 2
Back
Fore
SplineSet
127.073242188 312.1953125 m 1xbc
 127.073242188 9.755859375 l 2
 127.073242188 4.4423828125 122.630859375 0 117.317382812 0 c 0
 112.002929688 0 107.560546875 4.4423828125 107.560546875 9.755859375 c 2
 107.560546875 790.244140625 l 2
 107.560546875 794.431640625 111.412109375 800 117.317382812 800 c 2
 351.463867188 800 l 2
 486.110351562 798.987304688 593.420898438 690.2109375 593.420898438 555.970703125 c 0
 593.420898438 420.512695312 484.037109375 312.1953125 349.51171875 312.1953125 c 2
 127.073242188 312.1953125 l 1xbc
127.073242188 331.70703125 m 1
 349.51171875 331.70703125 l 2
 473.322265625 331.70703125 573.909179688 431.336914062 573.909179688 555.965820312 c 0
 573.909179688 679.563476562 475.142578125 779.557617188 351.426757812 780.48828125 c 2
 127.073242188 780.48828125 l 1
 127.073242188 331.70703125 l 1
EndSplineSet
Validated: 1
EndChar

StartChar: q
Encoding: 113 113 79
Width: 940
VWidth: 9
Flags: W
HStem: 0 19.5117<387.097 553.432> 780.488 19.5117<387.097 553.879>
VStem: 68.5361 19.5127<321.328 478.672> 852.927 19.5127<316.768 478.672>
LayerCount: 2
Back
Fore
SplineSet
470.48828125 0 m 0
 249.5390625 0 68.5361328125 178.939453125 68.5361328125 400 c 0
 68.5361328125 621.060546875 249.5390625 800 470.48828125 800 c 0
 691.436523438 800 872.439453125 621.060546875 872.439453125 400 c 0
 872.439453125 292.733398438 829.821289062 195.383789062 760.701171875 123.583984375 c 1
 867.629882812 16.654296875 l 2
 871.387695312 12.8974609375 871.387695312 6.615234375 867.629882812 2.857421875 c 0
 863.873046875 -0.900390625 857.590820312 -0.900390625 853.833007812 2.857421875 c 2
 746.833984375 109.856445312 l 1
 674.643554688 41.7607421875 577.2265625 0 470.48828125 0 c 0
625.540039062 244.947265625 m 0
 629.297851562 248.705078125 635.580078125 248.705078125 639.337890625 244.947265625 c 2
 746.895507812 137.388671875 l 1
 812.498046875 205.672851562 852.926757812 298.16015625 852.926757812 400 c 0
 852.926757812 610.159179688 680.758789062 780.48828125 470.48828125 780.48828125 c 0
 260.216796875 780.48828125 88.048828125 610.159179688 88.048828125 400 c 0
 88.048828125 189.840820312 260.216796875 19.51171875 470.48828125 19.51171875 c 0
 571.866210938 19.51171875 664.38671875 59.1044921875 733.025390625 123.665039062 c 1
 625.540039062 231.150390625 l 2
 621.783203125 234.908203125 621.783203125 241.189453125 625.540039062 244.947265625 c 0
EndSplineSet
Validated: 1
EndChar

StartChar: r
Encoding: 114 114 80
Width: 585
VWidth: 9
Flags: W
HStem: 0 21G<114.651 119.966> 0 21G<114.651 119.966> 390.244 19.5117<127.064 285.927 307.764 368.487> 780.488 19.5117<127.064 369.251>
VStem: 107.553 19.5117<0.00324007 390.244 409.756 780.488> 497.805 19.5117<536.946 652.682>
LayerCount: 2
Back
Fore
SplineSet
127.064453125 390.244140625 m 1xbc
 127.064453125 9.755859375 l 2
 127.064453125 4.4423828125 122.623046875 0 117.30859375 0 c 0
 111.994140625 0 107.552734375 4.4423828125 107.552734375 9.755859375 c 2
 107.552734375 790.244140625 l 2
 107.552734375 796.149414062 113.12109375 800 117.30859375 800 c 2
 314.381835938 800 l 2
 427.560546875 800 517.31640625 707.717773438 517.31640625 595.012695312 c 0
 517.31640625 481.005859375 425.490234375 390.244140625 312.430664062 390.244140625 c 2
 307.763671875 390.244140625 l 1
 496.7578125 14.13671875 l 2
 499.143554688 9.388671875 497.168945312 3.4248046875 492.420898438 1.0390625 c 0
 487.672851562 -1.34765625 481.708984375 0.626953125 479.323242188 5.3759765625 c 2
 285.926757812 390.244140625 l 1
 127.064453125 390.244140625 l 1xbc
127.064453125 409.755859375 m 1
 312.430664062 409.755859375 l 2
 414.791992188 409.755859375 497.8046875 491.833984375 497.8046875 595.013671875 c 0
 497.8046875 697.21875 416.55859375 780.48828125 314.381835938 780.48828125 c 2
 127.064453125 780.48828125 l 1
 127.064453125 409.755859375 l 1
EndSplineSet
Validated: 1
EndChar

StartChar: s
Encoding: 115 115 81
Width: 527
VWidth: 9
Flags: W
HStem: 0 19.5117<198.028 313.801> 780.488 19.5117<203.259 305.763>
VStem: 86.0977 19.5117<587.954 682.463> 439.269 19.5117<145.863 262.126>
LayerCount: 2
Back
Fore
SplineSet
74.5400390625 136.810546875 m 0
 79.4453125 138.854492188 85.2548828125 136.462890625 87.2978515625 131.557617188 c 0
 96.5859375 109.266601562 109.506835938 89.900390625 126.166992188 73.240234375 c 0
 159.50390625 39.9033203125 205.799804688 19.51171875 256.829101562 19.51171875 c 0
 357.724609375 19.51171875 439.268554688 101.91796875 439.268554688 202.926757812 c 0
 439.268554688 253.291015625 420.494140625 305.606445312 374.015625 339.428710938 c 2
 155.46875 498.4609375 l 2
 116.602539062 526.822265625 86.09765625 584.5703125 86.09765625 632.1953125 c 0
 86.09765625 724.377929688 160.6796875 800 253.90234375 800 c 0
 299.447265625 800 342.041992188 781.267578125 371.901367188 751.408203125 c 0
 387.249023438 737.083007812 399.930664062 719.161132812 408.340820312 699.435546875 c 0
 410.424804688 694.546875 408.080078125 688.71875 403.19140625 686.634765625 c 0
 398.303710938 684.55078125 392.475585938 686.895507812 390.391601562 691.784179688 c 0
 382.99609375 709.131835938 372.262695312 724.379882812 358.341796875 737.373046875 c 0
 331.616210938 764.098632812 294.2109375 780.48828125 253.90234375 780.48828125 c 0
 171.514648438 780.48828125 105.609375 713.670898438 105.609375 632.1953125 c 0
 105.609375 592.014648438 133.641601562 538.543945312 166.970703125 514.22265625 c 2
 385.49609375 355.206054688 l 2
 438.078125 316.942382812 458.780273438 257.928710938 458.780273438 202.926757812 c 0
 458.780273438 91.2529296875 368.6171875 0 256.829101562 0 c 0
 200.541992188 0 149.276367188 22.5361328125 112.370117188 59.4423828125 c 0
 93.908203125 77.904296875 79.51171875 99.513671875 69.287109375 124.052734375 c 0
 67.2431640625 128.958007812 69.634765625 134.766601562 74.5400390625 136.810546875 c 0
EndSplineSet
Validated: 1
EndChar

StartChar: t
Encoding: 116 116 82
Width: 624
VWidth: 9
Flags: W
HStem: 0 21G<309.782 315.096> 0 21G<309.782 315.096> 780.488 19.5117<-9.50848 302.683 322.195 634.387>
VStem: 302.683 19.5127<0.00324007 780.488>
LayerCount: 2
Back
Fore
SplineSet
-9.51171875 790.244140625 m 0xb0
 -9.51171875 795.557617188 -5.0703125 800 0.244140625 800 c 2
 312.439453125 800 l 1
 624.633789062 800 l 2
 629.948242188 800 634.390625 795.557617188 634.390625 790.244140625 c 0
 634.390625 784.9296875 629.948242188 780.48828125 624.633789062 780.48828125 c 2
 322.1953125 780.48828125 l 1
 322.1953125 9.755859375 l 2
 322.1953125 4.4423828125 317.752929688 0 312.439453125 0 c 0
 307.125 0 302.682617188 4.4423828125 302.682617188 9.755859375 c 2
 302.682617188 780.48828125 l 1
 0.244140625 780.48828125 l 2
 -5.0703125 780.48828125 -9.51171875 784.9296875 -9.51171875 790.244140625 c 0xb0
EndSplineSet
Validated: 1
EndChar

StartChar: u
Encoding: 117 117 83
Width: 820
VWidth: 9
Flags: W
HStem: 0 19.5117<335.769 484.231> 780 20G<95.1479 100.462 719.538 724.852> 780 20G<95.1479 100.462 719.538 724.852>
VStem: 88.0488 19.5117<249.195 799.997> 712.439 19.5117<249.163 799.997>
LayerCount: 2
Back
Fore
SplineSet
722.1953125 800 m 0xd8
 727.508789062 800 731.951171875 795.557617188 731.951171875 790.244140625 c 2
 731.951171875 321.951171875 l 2
 731.951171875 143.887695312 588.063476562 0 410 0 c 0
 231.93359375 0 88.048828125 143.98828125 88.048828125 321.951171875 c 2
 88.048828125 790.244140625 l 2
 88.048828125 795.557617188 92.4912109375 800 97.8046875 800 c 0
 103.119140625 800 107.560546875 795.557617188 107.560546875 790.244140625 c 2
 107.560546875 321.951171875 l 2
 107.560546875 154.749023438 242.701171875 19.51171875 410 19.51171875 c 0
 577.301757812 19.51171875 712.439453125 154.649414062 712.439453125 321.951171875 c 2
 712.439453125 790.244140625 l 2
 712.439453125 795.557617188 716.880859375 800 722.1953125 800 c 0xd8
EndSplineSet
Validated: 1
EndChar

StartChar: v
Encoding: 118 118 84
Width: 663
VWidth: 9
Flags: W
LayerCount: 2
Back
Fore
SplineSet
35.8427734375 799.37890625 m 0
 40.818359375 801.245117188 46.537109375 798.645507812 48.4033203125 793.669921875 c 2
 331.951171875 37.541015625 l 1
 615.499023438 793.669921875 l 2
 617.365234375 798.645507812 623.083984375 801.245117188 628.059570312 799.37890625 c 0
 633.03515625 797.512695312 635.634765625 791.793945312 633.76953125 786.818359375 c 2
 341.0859375 6.330078125 l 2
 334.465820312 -11.32421875 322.81640625 6.330078125 322.81640625 6.330078125 c 1
 30.1337890625 786.818359375 l 2
 28.267578125 791.793945312 30.8671875 797.512695312 35.8427734375 799.37890625 c 0
EndSplineSet
Validated: 1
EndChar

StartChar: w
Encoding: 119 119 85
Width: 1028
VWidth: 9
Flags: W
LayerCount: 2
Back
Fore
SplineSet
511.5546875 799.579101562 m 0
 512.500976562 799.866210938 513.461914062 799.998046875 514.411132812 799.98828125 c 0
 515.349609375 799.993164062 516.30078125 799.860351562 517.236328125 799.575195312 c 0
 518.807617188 799.095703125 520.17578125 798.235351562 521.26953125 797.124023438 c 0
 522.383789062 796.02734375 523.247070312 794.655273438 523.725585938 793.079101562 c 2
 751.482421875 43.26171875 l 1
 980.180664062 793.08984375 l 2
 981.73046875 798.172851562 987.275390625 801.125976562 992.358398438 799.575195312 c 0
 997.44140625 798.025390625 1000.39453125 792.48046875 998.84375 787.397460938 c 2
 760.794921875 6.91015625 l 2
 760.315429688 5.3388671875 759.455078125 3.970703125 758.34375 2.876953125 c 0
 757.247070312 1.7626953125 755.875 0.8994140625 754.298828125 0.4208984375 c 0
 753.352539062 0.1337890625 752.391601562 0.001953125 751.442382812 0.01171875 c 0
 750.50390625 0.0068359375 749.552734375 0.1396484375 748.6171875 0.4248046875 c 0
 747.041015625 0.9052734375 745.668945312 1.7705078125 744.573242188 2.88671875 c 0
 743.46484375 3.9814453125 742.60546875 5.349609375 742.12890625 6.9208984375 c 2
 514.37109375 756.740234375 l 1
 285.672851562 6.91015625 l 2
 285.193359375 5.3388671875 284.333007812 3.970703125 283.221679688 2.876953125 c 0
 282.125 1.7626953125 280.752929688 0.8994140625 279.176757812 0.4208984375 c 0
 278.23046875 0.1337890625 277.26953125 0.001953125 276.3203125 0.01171875 c 0
 275.381835938 0.0068359375 274.430664062 0.1396484375 273.495117188 0.4248046875 c 0
 271.918945312 0.9052734375 270.546875 1.7705078125 269.451171875 2.88671875 c 0
 268.342773438 3.9814453125 267.483398438 5.349609375 267.006835938 6.9208984375 c 2
 29.93359375 787.408203125 l 2
 28.388671875 792.493164062 31.34765625 798.034179688 36.4326171875 799.579101562 c 0
 41.517578125 801.123046875 47.05859375 798.1640625 48.603515625 793.079101562 c 2
 276.360351562 43.26171875 l 1
 505.05859375 793.08984375 l 2
 505.538085938 794.662109375 506.399414062 796.030273438 507.510742188 797.125 c 0
 508.607421875 798.23828125 509.979492188 799.100585938 511.5546875 799.579101562 c 0
EndSplineSet
Validated: 5
EndChar

StartChar: x
Encoding: 120 120 86
Width: 710
VWidth: 9
Flags: W
LayerCount: 2
Back
Fore
SplineSet
92.4306640625 1.61328125 m 0
 87.9951171875 4.541015625 86.7353515625 10.6953125 89.662109375 15.1298828125 c 2
 343.676757812 400 l 1
 89.662109375 784.870117188 l 2
 86.7353515625 789.3046875 87.9951171875 795.458984375 92.4306640625 798.38671875 c 0
 96.8662109375 801.313476562 103.020507812 800.052734375 105.947265625 795.618164062 c 2
 355.365234375 417.7109375 l 1
 604.784179688 795.618164062 l 2
 607.711914062 800.052734375 613.865234375 801.313476562 618.30078125 798.38671875 c 0
 622.736328125 795.458984375 623.997070312 789.3046875 621.069335938 784.870117188 c 2
 367.0546875 400 l 1
 621.069335938 15.1298828125 l 2
 623.997070312 10.6953125 622.736328125 4.541015625 618.30078125 1.61328125 c 0
 613.865234375 -1.3134765625 607.711914062 -0.052734375 604.784179688 4.3818359375 c 2
 355.365234375 382.2890625 l 1
 105.947265625 4.3818359375 l 2
 103.020507812 -0.052734375 96.8662109375 -1.3134765625 92.4306640625 1.61328125 c 0
EndSplineSet
Validated: 1
EndChar

StartChar: y
Encoding: 121 121 87
Width: 643
VWidth: 9
Flags: W
HStem: 0 21G<318.562 323.876> 0 21G<318.562 323.876>
VStem: 311.464 19.5117<0.00324007 396.835>
LayerCount: 2
Back
Fore
SplineSet
33.5546875 798.15234375 m 0xa0
 37.8623046875 801.263671875 44.064453125 800.264648438 47.1767578125 795.95703125 c 2
 321.233398438 416.639648438 l 1
 596.248046875 795.970703125 l 2
 599.3671875 800.272460938 605.5703125 801.26171875 609.873046875 798.142578125 c 0
 614.174804688 795.0234375 615.1640625 788.819335938 612.044921875 784.517578125 c 2
 330.975585938 396.834960938 l 1
 330.975585938 9.755859375 l 2
 330.975585938 4.4423828125 326.533203125 0 321.219726562 0 c 0
 315.905273438 0 311.463867188 4.4423828125 311.463867188 9.755859375 c 2
 311.463867188 396.84375 l 1
 31.3603515625 784.530273438 l 2
 28.248046875 788.837890625 29.2470703125 795.040039062 33.5546875 798.15234375 c 0xa0
EndSplineSet
Validated: 1
EndChar

StartChar: z
Encoding: 122 122 88
Width: 663
VWidth: 9
Flags: W
HStem: 0 19.5117<115.036 575.85> 780.488 19.5117<88.0521 548.866>
LayerCount: 2
Back
Fore
SplineSet
88.048828125 790.244140625 m 0
 88.048828125 795.557617188 92.4912109375 800 97.8046875 800 c 2
 566.09765625 800 l 2
 566.999023438 800 567.875976562 799.872070312 568.708984375 799.633789062 c 0
 569.540039062 799.409179688 570.350585938 799.069335938 571.1171875 798.609375 c 0
 572.603515625 797.717773438 573.767578125 796.46875 574.565429688 795.03125 c 0
 575.3828125 793.609375 575.853515625 791.97265625 575.853515625 790.244140625 c 0
 575.853515625 789.340820312 575.725585938 788.462890625 575.486328125 787.627929688 c 0
 575.26171875 786.798828125 574.921875 785.990234375 574.462890625 785.224609375 c 2
 115.036132812 19.51171875 l 1
 566.09765625 19.51171875 l 2
 571.412109375 19.51171875 575.853515625 15.0703125 575.853515625 9.755859375 c 0
 575.853515625 4.4423828125 571.412109375 0 566.09765625 0 c 2
 97.8046875 0 l 2
 79.4150390625 0 89.439453125 14.775390625 89.439453125 14.775390625 c 1
 548.866210938 780.48828125 l 1
 97.8046875 780.48828125 l 2
 92.4912109375 780.48828125 88.048828125 784.9296875 88.048828125 790.244140625 c 0
EndSplineSet
Validated: 1
EndChar

StartChar: underscore
Encoding: 95 95 89
Width: 639
VWidth: 9
Flags: W
HStem: -195.122 19.5127<107.564 531.948>
LayerCount: 2
Back
Fore
SplineSet
107.560546875 -185.366210938 m 0
 107.560546875 -180.051757812 112.002929688 -175.609375 117.317382812 -175.609375 c 2
 522.1953125 -175.609375 l 2
 527.508789062 -175.609375 531.951171875 -180.051757812 531.951171875 -185.366210938 c 0
 531.951171875 -190.6796875 527.508789062 -195.122070312 522.1953125 -195.122070312 c 2
 117.317382812 -195.122070312 l 2
 112.002929688 -195.122070312 107.560546875 -190.6796875 107.560546875 -185.366210938 c 0
EndSplineSet
Validated: 1
EndChar

StartChar: grave
Encoding: 96 96 90
Width: 383
VWidth: 9
Flags: W
HStem: 844.69 120.473
VStem: 109.324 165.254
LayerCount: 2
Back
Fore
SplineSet
109.32421875 962.764648438 m 0
 112.372070312 967.118164062 118.55859375 968.209960938 122.912109375 965.163085938 c 2
 272.1796875 860.67578125 l 2
 276.533203125 857.627929688 277.625 851.44140625 274.578125 847.087890625 c 0
 271.530273438 842.734375 265.34375 841.642578125 260.990234375 844.690429688 c 2
 111.72265625 949.177734375 l 2
 107.369140625 952.225585938 106.27734375 958.411132812 109.32421875 962.764648438 c 0
EndSplineSet
Validated: 1
EndChar

StartChar: bar
Encoding: 124 124 91
Width: 234
VWidth: 9
Flags: W
HStem: 780 20G<114.66 119.974> 780 20G<114.66 119.974>
VStem: 107.561 19.5127<-195.119 799.997>
LayerCount: 2
Back
Fore
SplineSet
117.317382812 800 m 0xa0
 122.630859375 800 127.073242188 795.557617188 127.073242188 790.244140625 c 2
 127.073242188 -185.366210938 l 2
 127.073242188 -190.6796875 122.630859375 -195.122070312 117.317382812 -195.122070312 c 0
 112.002929688 -195.122070312 107.560546875 -190.6796875 107.560546875 -185.366210938 c 2
 107.560546875 790.244140625 l 2
 107.560546875 795.557617188 112.002929688 800 117.317382812 800 c 0xa0
EndSplineSet
Validated: 1
EndChar

StartChar: braceleft
Encoding: 123 123 92
Width: 404
VWidth: 9
Flags: W
HStem: 0 19.5117<251.35 297.02> 390.244 19.5117<107.564 153.235> 780.488 19.5117<251.379 297.118>
VStem: 192.536 19.5127<58.8148 350.945 449.059 741.184>
CounterMasks: 1 e0
LayerCount: 2
Back
Fore
SplineSet
297.0234375 9.755859375 m 0
 297.0234375 4.4423828125 292.58203125 0 287.267578125 0 c 0
 234.829101562 0 192.536132812 42.2900390625 192.536132812 94.7314453125 c 2
 192.536132812 315.024414062 l 2
 192.536132812 356.716796875 158.9921875 390.244140625 117.415039062 390.244140625 c 2
 117.317382812 390.244140625 l 2
 112.002929688 390.244140625 107.560546875 394.685546875 107.560546875 400 c 0
 107.560546875 405.314453125 112.002929688 409.755859375 117.317382812 409.755859375 c 0
 159.00390625 409.755859375 192.536132812 443.291015625 192.536132812 484.975585938 c 2
 192.536132812 705.268554688 l 2
 192.536132812 757.711914062 234.834960938 800 287.365234375 800 c 0
 292.6796875 800 297.12109375 795.557617188 297.12109375 790.244140625 c 0
 297.12109375 784.9296875 292.6796875 780.48828125 287.365234375 780.48828125 c 0
 245.575195312 780.48828125 212.048828125 746.950195312 212.048828125 705.268554688 c 2
 212.048828125 484.975585938 l 2
 212.048828125 447.64453125 190.618164062 415.458007812 159.3515625 400.008789062 c 1
 190.60546875 384.565429688 212.048828125 352.365234375 212.048828125 315.024414062 c 2
 212.048828125 94.7314453125 l 2
 212.048828125 53.0478515625 245.581054688 19.51171875 287.267578125 19.51171875 c 0
 292.58203125 19.51171875 297.0234375 15.0703125 297.0234375 9.755859375 c 0
EndSplineSet
Validated: 1
EndChar

StartChar: braceright
Encoding: 125 125 93
Width: 404
VWidth: 9
Flags: W
HStem: 0 19.5117<107.564 153.103> 390.244 19.5117<251.317 296.924> 780.488 19.5117<107.661 153.13>
VStem: 192.439 19.5117<58.8493 350.905 449.093 741.154>
CounterMasks: 1 e0
LayerCount: 2
Back
Fore
SplineSet
107.560546875 9.755859375 m 0
 107.560546875 15.0703125 112.002929688 19.51171875 117.317382812 19.51171875 c 0
 158.755859375 19.51171875 192.439453125 53.197265625 192.439453125 94.6337890625 c 2
 192.439453125 315.122070312 l 2
 192.439453125 352.313476562 213.953125 384.526367188 245.23046875 399.991210938 c 1
 213.966796875 415.448242188 192.439453125 447.673828125 192.439453125 484.877929688 c 2
 192.439453125 705.366210938 l 2
 192.439453125 746.809570312 158.745117188 780.48828125 117.415039062 780.48828125 c 0
 112.100585938 780.48828125 107.658203125 784.9296875 107.658203125 790.244140625 c 0
 107.658203125 795.557617188 112.100585938 800 117.415039062 800 c 0
 169.546875 800 211.951171875 757.581054688 211.951171875 705.366210938 c 2
 211.951171875 484.877929688 l 2
 211.951171875 443.44140625 245.634765625 409.755859375 287.073242188 409.755859375 c 2
 287.170898438 409.755859375 l 2
 292.484375 409.755859375 296.926757812 405.314453125 296.926757812 400 c 0
 296.926757812 394.685546875 292.484375 390.244140625 287.170898438 390.244140625 c 0
 245.627929688 390.244140625 211.951171875 356.555664062 211.951171875 315.122070312 c 2
 211.951171875 94.6337890625 l 2
 211.951171875 42.412109375 169.537109375 0 117.317382812 0 c 0
 112.002929688 0 107.560546875 4.4423828125 107.560546875 9.755859375 c 0
EndSplineSet
Validated: 1
EndChar

StartChar: asciitilde
Encoding: 126 126 94
Width: 474
VWidth: 9
Flags: W
HStem: 330.307 19.5127<260.744 333.998> 379.978 19.5117<140.731 213.962>
VStem: 110.536 253.752
LayerCount: 2
Back
Fore
SplineSet
364.288085938 371.796875 m 0
 368.045898438 368.0390625 368.045898438 361.756835938 364.288085938 357.999023438 c 0
 345.836914062 339.548828125 321.569335938 330.306640625 297.37109375 330.306640625 c 0
 273.171875 330.306640625 248.907226562 339.546875 230.455078125 357.999023438 c 0
 215.791992188 372.662109375 196.599609375 379.977539062 177.334960938 379.977539062 c 0
 158.069335938 379.977539062 138.883789062 372.65625 124.333984375 358.01953125 c 0
 120.586914062 354.250976562 114.305664062 354.232421875 110.536132812 357.979492188 c 0
 106.767578125 361.725585938 106.749023438 368.0078125 110.49609375 371.776367188 c 0
 128.864257812 390.252929688 153.138671875 399.489257812 177.334960938 399.489257812 c 0
 201.533203125 399.489257812 225.80078125 390.248046875 244.251953125 371.796875 c 0
 258.912109375 357.135742188 278.108398438 349.819335938 297.37109375 349.819335938 c 0
 316.635742188 349.819335938 335.828125 357.133789062 350.491210938 371.796875 c 0
 354.248046875 375.5546875 360.530273438 375.5546875 364.288085938 371.796875 c 0
EndSplineSet
Validated: 1
EndChar

StartChar: acute
Encoding: 180 180 95
Width: 382
VWidth: 9
Flags: W
HStem: 844.705 120.346
VStem: 109.34 164.248
LayerCount: 2
Back
Fore
SplineSet
273.587890625 962.689453125 m 0
 276.646484375 958.34375 275.571289062 952.154296875 271.225585938 949.095703125 c 2
 122.932617188 844.705078125 l 2
 118.587890625 841.646484375 112.3984375 842.721679688 109.33984375 847.067382812 c 0
 106.280273438 851.412109375 107.35546875 857.6015625 111.701171875 860.66015625 c 2
 259.994140625 965.05078125 l 2
 264.338867188 968.109375 270.528320312 967.034179688 273.587890625 962.689453125 c 0
EndSplineSet
Validated: 1
EndChar

StartChar: exclamdown
Encoding: 161 161 97
Width: 234
VWidth: 9
Flags: W
HStem: 760.977 19.5117<107.564 127.07>
VStem: 107.561 19.5127<-19.5085 597.07 760.98 780.485>
LayerCount: 2
Back
Fore
SplineSet
117.31640625 597.073242188 m 0
 122.630859375 597.073242188 127.073242188 592.631835938 127.073242188 587.317382812 c 2
 127.073242188 -9.755859375 l 2
 127.073242188 -15.0693359375 122.630859375 -19.51171875 117.31640625 -19.51171875 c 0
 112.002929688 -19.51171875 107.560546875 -15.0693359375 107.560546875 -9.755859375 c 2
 107.560546875 587.317382812 l 2
 107.560546875 592.631835938 112.002929688 597.073242188 117.31640625 597.073242188 c 0
127.073242188 770.732421875 m 0
 127.073242188 765.346679688 122.702148438 760.9765625 117.31640625 760.9765625 c 0
 111.931640625 760.9765625 107.560546875 765.346679688 107.560546875 770.732421875 c 0
 107.560546875 776.1171875 111.931640625 780.48828125 117.31640625 780.48828125 c 0
 122.702148438 780.48828125 127.073242188 776.1171875 127.073242188 770.732421875 c 0
EndSplineSet
Validated: 1
EndChar

StartChar: questiondown
Encoding: 191 191 98
Width: 538
VWidth: 9
Flags: W
HStem: -18.5371 19.5117<224.722 327.227> 760.975 19.5127<294.881 314.386>
VStem: 107.561 19.5117<99.0001 194.429> 294.878 19.5117<505.972 597.068 760.978 780.484>
LayerCount: 2
Back
Fore
SplineSet
424.517578125 95.8203125 m 0
 429.415039062 93.7578125 431.78515625 87.9404296875 429.72265625 83.04296875 c 0
 421.456054688 63.41015625 408.880859375 44.537109375 393.364257812 30.0546875 c 0
 363.505859375 0.1962890625 320.91015625 -18.537109375 275.365234375 -18.537109375 c 0
 182.143554688 -18.537109375 107.560546875 57.0849609375 107.560546875 149.267578125 c 0
 107.560546875 173.001953125 115.9296875 199.5703125 128.1796875 223.048828125 c 0
 128.262695312 223.208984375 128.387695312 223.428710938 128.456054688 223.543945312 c 2
 250.407226562 427.446289062 l 2
 287.700195312 489.799804688 294.78125 534.069335938 294.78125 586.235351562 c 0
 294.78125 592.272460938 298.555664062 597.061523438 304.518554688 597.072265625 c 0
 310.42578125 597.083007812 314.29296875 592.328125 314.29296875 586.334960938 c 0
 314.29296875 532.041992188 306.146484375 482.626953125 267.153320312 417.430664062 c 2
 145.338867188 213.7578125 l 2
 134.493164062 192.7109375 127.072265625 168.47265625 127.072265625 149.267578125 c 0
 127.072265625 67.7919921875 192.977539062 0.974609375 275.365234375 0.974609375 c 0
 315.674804688 0.974609375 353.079101562 17.3642578125 379.805664062 44.08984375 c 0
 393.557617188 56.92578125 404.396484375 73.173828125 411.739257812 90.6142578125 c 0
 413.801757812 95.5126953125 419.619140625 97.8828125 424.517578125 95.8203125 c 0
314.389648438 770.731445312 m 0
 314.389648438 765.345703125 310.01953125 760.974609375 304.633789062 760.974609375 c 0
 299.248046875 760.974609375 294.877929688 765.345703125 294.877929688 770.731445312 c 0
 294.877929688 776.116210938 299.248046875 780.487304688 304.633789062 780.487304688 c 0
 310.01953125 780.487304688 314.389648438 776.116210938 314.389648438 770.731445312 c 0
EndSplineSet
Validated: 1
EndChar

StartChar: dieresis
Encoding: 168 168 99
Width: 384
VWidth: 9
Flags: W
HStem: 842.927 20.4883<117.069 117.566 266.337 266.833>
VStem: 107.561 19.5127<842.93 863.412> 256.829 19.5127<842.93 863.412>
LayerCount: 2
Back
Fore
SplineSet
266.584960938 863.415039062 m 0
 271.899414062 863.415039062 276.341796875 858.97265625 276.341796875 853.658203125 c 2
 276.341796875 852.682617188 l 2
 276.341796875 847.369140625 271.899414062 842.926757812 266.584960938 842.926757812 c 0
 261.271484375 842.926757812 256.829101562 847.369140625 256.829101562 852.682617188 c 2
 256.829101562 853.658203125 l 2
 256.829101562 858.97265625 261.271484375 863.415039062 266.584960938 863.415039062 c 0
117.317382812 863.415039062 m 0
 122.630859375 863.415039062 127.073242188 858.97265625 127.073242188 853.658203125 c 2
 127.073242188 852.682617188 l 2
 127.073242188 847.297851562 122.702148438 842.926757812 117.317382812 842.926757812 c 0
 111.931640625 842.926757812 107.560546875 847.297851562 107.560546875 852.682617188 c 2
 107.560546875 853.658203125 l 2
 107.560546875 858.97265625 112.002929688 863.415039062 117.317382812 863.415039062 c 0
EndSplineSet
Validated: 1
EndChar

StartChar: guillemotleft
Encoding: 171 171 100
Width: 581
VWidth: 9
Flags: W
LayerCount: 2
Back
Fore
SplineSet
470.544921875 0.04296875 m 0
 466.31640625 -3.1767578125 460.091796875 -2.3330078125 456.872070312 1.89453125 c 2
 294.920898438 214.577148438 l 2
 292.291992188 218.030273438 292.294921875 222.950195312 294.920898438 226.3984375 c 2
 456.872070312 439.081054688 l 2
 460.091796875 443.309570312 466.31640625 444.15234375 470.544921875 440.932617188 c 0
 474.772460938 437.712890625 475.615234375 431.48828125 472.396484375 427.260742188 c 2
 314.9453125 220.48828125 l 1
 472.396484375 13.7158203125 l 2
 475.615234375 9.4873046875 474.772460938 3.2626953125 470.544921875 0.04296875 c 0
285.178710938 0.04296875 m 0
 280.951171875 -3.1767578125 274.725585938 -2.3330078125 271.506835938 1.89453125 c 2
 109.5546875 214.577148438 l 2
 106.92578125 218.030273438 106.9296875 222.950195312 109.5546875 226.3984375 c 2
 271.506835938 439.081054688 l 2
 274.725585938 443.309570312 280.951171875 444.15234375 285.178710938 440.932617188 c 0
 289.40625 437.712890625 290.25 431.48828125 287.030273438 427.260742188 c 2
 129.580078125 220.48828125 l 1
 287.030273438 13.7158203125 l 2
 290.25 9.4873046875 289.40625 3.2626953125 285.178710938 0.04296875 c 0
EndSplineSet
Validated: 1
EndChar

StartChar: guillemotright
Encoding: 187 187 101
Width: 581
VWidth: 9
Flags: W
LayerCount: 2
Back
Fore
SplineSet
111.40625 0.04296875 m 0
 107.178710938 3.2626953125 106.3359375 9.4873046875 109.5546875 13.7158203125 c 2
 267.005859375 220.48828125 l 1
 109.5546875 427.260742188 l 2
 106.3359375 431.48828125 107.178710938 437.712890625 111.40625 440.932617188 c 0
 115.634765625 444.15234375 121.859375 443.309570312 125.079101562 439.081054688 c 2
 287.030273438 226.3984375 l 2
 289.65625 222.950195312 289.659179688 218.030273438 287.030273438 214.577148438 c 2
 125.079101562 1.89453125 l 2
 121.859375 -2.3330078125 115.634765625 -3.1767578125 111.40625 0.04296875 c 0
296.772460938 0.04296875 m 0
 292.544921875 3.2626953125 291.701171875 9.4873046875 294.920898438 13.7158203125 c 2
 452.37109375 220.48828125 l 1
 294.920898438 427.260742188 l 2
 291.701171875 431.48828125 292.544921875 437.712890625 296.772460938 440.932617188 c 0
 301 444.15234375 307.225585938 443.309570312 310.444335938 439.081054688 c 2
 472.396484375 226.3984375 l 2
 475.021484375 222.950195312 475.025390625 218.030273438 472.396484375 214.577148438 c 2
 310.444335938 1.89453125 l 2
 307.225585938 -2.3330078125 301 -3.1767578125 296.772460938 0.04296875 c 0
EndSplineSet
Validated: 1
EndChar

StartChar: uni00AD
Encoding: 173 173 102
Width: 491
VWidth: 9
Flags: W
HStem: 320 19.5117<107.564 383.655>
VStem: 107.561 276.098<320 339.512>
LayerCount: 2
Back
Fore
SplineSet
107.560546875 329.755859375 m 0
 107.560546875 335.0703125 112.002929688 339.51171875 117.317382812 339.51171875 c 2
 373.90234375 339.51171875 l 2
 379.216796875 339.51171875 383.658203125 335.0703125 383.658203125 329.755859375 c 0
 383.658203125 324.442382812 379.216796875 320 373.90234375 320 c 2
 117.317382812 320 l 2
 112.002929688 320 107.560546875 324.442382812 107.560546875 329.755859375 c 0
EndSplineSet
Validated: 1
EndChar

StartChar: degree
Encoding: 176 176 103
Width: 488
VWidth: 9
Flags: W
HStem: 526.829 19.5127<199.378 288.915> 780.488 19.5117<199.378 288.915>
VStem: 107.561 19.5127<618.646 708.184> 361.22 19.5117<618.646 708.184>
LayerCount: 2
Back
Fore
SplineSet
127.073242188 663.415039062 m 0
 127.073242188 598.547851562 179.278320312 546.341796875 244.146484375 546.341796875 c 0
 309.013671875 546.341796875 361.219726562 598.546875 361.219726562 663.415039062 c 0
 361.219726562 728.28125 309.014648438 780.48828125 244.146484375 780.48828125 c 0
 179.279296875 780.48828125 127.073242188 728.282226562 127.073242188 663.415039062 c 0
107.560546875 663.415039062 m 0
 107.560546875 739.034179688 168.525390625 800 244.146484375 800 c 0
 319.766601562 800 380.731445312 739.03515625 380.731445312 663.415039062 c 0
 380.731445312 587.794921875 319.767578125 526.829101562 244.146484375 526.829101562 c 0
 168.526367188 526.829101562 107.560546875 587.793945312 107.560546875 663.415039062 c 0
EndSplineSet
Validated: 1
EndChar

StartChar: periodcentered
Encoding: 183 183 104
Width: 234
VWidth: 9
Flags: W
HStem: 390.244 19.5117<107.564 127.07>
VStem: 107.561 19.5127<390.247 409.753>
LayerCount: 2
Back
Fore
SplineSet
107.560546875 400 m 0
 107.560546875 405.385742188 111.931640625 409.755859375 117.317382812 409.755859375 c 0
 122.702148438 409.755859375 127.073242188 405.385742188 127.073242188 400 c 0
 127.073242188 394.614257812 122.702148438 390.244140625 117.317382812 390.244140625 c 0
 111.931640625 390.244140625 107.560546875 394.614257812 107.560546875 400 c 0
EndSplineSet
Validated: 1
EndChar

StartChar: cedilla
Encoding: 184 184 105
Width: 234
VWidth: 9
Flags: W
HStem: -147.317 166.829<107.561 127.073>
VStem: 107.561 19.5127<-147.314 19.5085>
LayerCount: 2
Back
Fore
SplineSet
117.317382812 -147.317382812 m 0
 112.002929688 -147.317382812 107.560546875 -142.875 107.560546875 -137.560546875 c 2
 107.560546875 9.755859375 l 2
 107.560546875 15.0703125 112.002929688 19.51171875 117.317382812 19.51171875 c 0
 122.630859375 19.51171875 127.073242188 15.0703125 127.073242188 9.755859375 c 2
 127.073242188 -137.560546875 l 2
 127.073242188 -142.875 122.630859375 -147.317382812 117.317382812 -147.317382812 c 0
EndSplineSet
Validated: 1
EndChar

StartChar: Agrave
Encoding: 192 192 106
Width: 621
VWidth: 9
Flags: W
HStem: 265.366 19.5117<145.201 476.304> 780 20G<310.575 312.214> 780 20G<310.575 312.214>
LayerCount: 2
Back
Fore
SplineSet
224.446289062 962.764648438 m 0x80
 227.494140625 967.118164062 233.680664062 968.209960938 238.034179688 965.163085938 c 2
 387.301757812 860.67578125 l 2
 391.655273438 857.627929688 392.747070312 851.44140625 389.700195312 847.087890625 c 0
 386.65234375 842.734375 380.465820312 841.642578125 376.112304688 844.690429688 c 2
 226.844726562 949.177734375 l 2
 222.491210938 952.225585938 221.399414062 958.411132812 224.446289062 962.764648438 c 0x80
145.201171875 284.877929688 m 1
 476.303710938 284.877929688 l 1
 405.26953125 488.4765625 335.2578125 689.368164062 310.522460938 760.623046875 c 1
 145.201171875 284.877929688 l 1
585.900390625 0.5458984375 m 0
 580.883789062 -1.20703125 575.225585938 1.521484375 573.47265625 6.5380859375 c 0
 545.994140625 85.1923828125 514.590820312 175.147460938 483.111328125 265.366210938 c 1
 138.420898438 265.366210938 l 1
 48.4833984375 6.5537109375 l 2
 46.7392578125 1.5341796875 41.0859375 -1.2041015625 36.0654296875 0.541015625 c 0
 31.0458984375 2.28515625 28.30859375 7.9384765625 30.052734375 12.9580078125 c 2
 301.272460938 793.446289062 l 2
 302.653320312 797.420898438 306.486328125 799.965820312 310.514648438 799.985351562 c 0
 310.541015625 799.995117188 310.564453125 800 310.584960938 800 c 0xc0
 313.84375 800 315.776367188 799.206054688 317.259765625 797.235351562 c 0
 319.029296875 795.493164062 320.102539062 793.108398438 320.21875 790.619140625 c 0
 320.259765625 790.49609375 320.30078125 790.370117188 320.341796875 790.244140625 c 0
 321.1640625 787.823242188 410.30078125 532.717773438 499.029296875 278.768554688 c 0
 499.166015625 278.4375 499.28515625 278.09765625 499.384765625 277.750976562 c 0
 531.72265625 185.197265625 563.990234375 92.841796875 591.893554688 12.9736328125 c 0
 593.645507812 7.95703125 590.916992188 2.298828125 585.900390625 0.5458984375 c 0
EndSplineSet
Validated: 1
EndChar

StartChar: Aacute
Encoding: 193 193 107
Width: 621
VWidth: 9
Flags: W
HStem: 265.366 19.5117<145.201 476.304> 780 20G<310.575 312.214> 780 20G<310.575 312.214>
LayerCount: 2
Back
Fore
SplineSet
386.758789062 962.689453125 m 0x80
 389.817382812 958.34375 388.7421875 952.154296875 384.396484375 949.095703125 c 2
 236.103515625 844.705078125 l 2
 231.758789062 841.646484375 225.569335938 842.721679688 222.510742188 847.067382812 c 0
 219.451171875 851.412109375 220.526367188 857.6015625 224.872070312 860.66015625 c 2
 373.165039062 965.05078125 l 2
 377.509765625 968.109375 383.69921875 967.034179688 386.758789062 962.689453125 c 0x80
145.201171875 284.877929688 m 1
 476.303710938 284.877929688 l 1
 405.26953125 488.4765625 335.2578125 689.368164062 310.522460938 760.623046875 c 1
 145.201171875 284.877929688 l 1
585.900390625 0.5458984375 m 0
 580.883789062 -1.20703125 575.225585938 1.521484375 573.47265625 6.5380859375 c 0
 545.994140625 85.1923828125 514.590820312 175.147460938 483.111328125 265.366210938 c 1
 138.420898438 265.366210938 l 1
 48.4833984375 6.5537109375 l 2
 46.7392578125 1.5341796875 41.0859375 -1.2041015625 36.0654296875 0.541015625 c 0
 31.0458984375 2.28515625 28.30859375 7.9384765625 30.052734375 12.9580078125 c 2
 301.272460938 793.446289062 l 2
 302.653320312 797.420898438 306.486328125 799.965820312 310.514648438 799.985351562 c 0
 310.541015625 799.995117188 310.564453125 800 310.584960938 800 c 0xc0
 313.84375 800 315.776367188 799.206054688 317.259765625 797.235351562 c 0
 319.029296875 795.493164062 320.102539062 793.108398438 320.21875 790.619140625 c 0
 320.259765625 790.49609375 320.30078125 790.370117188 320.341796875 790.244140625 c 0
 321.1640625 787.823242188 410.30078125 532.717773438 499.029296875 278.768554688 c 0
 499.166015625 278.4375 499.28515625 278.09765625 499.384765625 277.750976562 c 0
 531.72265625 185.197265625 563.990234375 92.841796875 591.893554688 12.9736328125 c 0
 593.645507812 7.95703125 590.916992188 2.298828125 585.900390625 0.5458984375 c 0
EndSplineSet
Validated: 1
EndChar

StartChar: Acircumflex
Encoding: 194 194 108
Width: 621
VWidth: 9
Flags: W
HStem: 265.366 19.5117<145.201 476.304> 780 20G<310.575 312.214> 780 20G<310.575 312.214>
LayerCount: 2
Back
Fore
SplineSet
150.299804688 847.087890625 m 0x80
 147.252929688 851.44140625 148.344726562 857.627929688 152.698242188 860.67578125 c 2
 301.965820312 965.163085938 l 2
 305.291015625 967.490234375 309.838867188 967.484375 313.155273438 965.163085938 c 2
 462.423828125 860.67578125 l 2
 466.77734375 857.627929688 467.869140625 851.44140625 464.821289062 847.087890625 c 0
 461.774414062 842.734375 455.587890625 841.642578125 451.234375 844.690429688 c 2
 307.560546875 945.26171875 l 1
 163.887695312 844.690429688 l 2
 159.534179688 841.642578125 153.34765625 842.734375 150.299804688 847.087890625 c 0x80
145.201171875 284.877929688 m 1
 476.303710938 284.877929688 l 1
 405.26953125 488.4765625 335.2578125 689.368164062 310.522460938 760.623046875 c 1
 145.201171875 284.877929688 l 1
585.900390625 0.5458984375 m 0
 580.883789062 -1.20703125 575.225585938 1.521484375 573.47265625 6.5380859375 c 0
 545.994140625 85.1923828125 514.590820312 175.147460938 483.111328125 265.366210938 c 1
 138.420898438 265.366210938 l 1
 48.4833984375 6.5537109375 l 2
 46.7392578125 1.5341796875 41.0859375 -1.2041015625 36.0654296875 0.541015625 c 0
 31.0458984375 2.28515625 28.30859375 7.9384765625 30.052734375 12.9580078125 c 2
 301.272460938 793.446289062 l 2
 302.653320312 797.420898438 306.486328125 799.965820312 310.514648438 799.985351562 c 0
 310.541015625 799.995117188 310.564453125 800 310.584960938 800 c 0xc0
 313.84375 800 315.776367188 799.206054688 317.259765625 797.235351562 c 0
 319.029296875 795.493164062 320.102539062 793.108398438 320.21875 790.619140625 c 0
 320.259765625 790.49609375 320.30078125 790.370117188 320.341796875 790.244140625 c 0
 321.1640625 787.823242188 410.30078125 532.717773438 499.029296875 278.768554688 c 0
 499.166015625 278.4375 499.28515625 278.09765625 499.384765625 277.750976562 c 0
 531.72265625 185.197265625 563.990234375 92.841796875 591.893554688 12.9736328125 c 0
 593.645507812 7.95703125 590.916992188 2.298828125 585.900390625 0.5458984375 c 0
EndSplineSet
Validated: 1
EndChar

StartChar: Atilde
Encoding: 195 195 109
Width: 621
VWidth: 9
Flags: W
HStem: 265.366 19.5117<145.201 476.304> 780 20G<310.575 312.214> 780 20G<310.575 312.214> 841.526 19.5127<336.842 410.096> 891.197 19.5117<216.828 290.06>
LayerCount: 2
Back
Fore
SplineSet
440.385742188 883.016601562 m 0x98
 444.143554688 879.258789062 444.143554688 872.9765625 440.385742188 869.21875 c 0
 421.934570312 850.768554688 397.666992188 841.526367188 373.46875 841.526367188 c 0
 349.26953125 841.526367188 325.004882812 850.766601562 306.552734375 869.21875 c 0
 291.889648438 883.881835938 272.697265625 891.197265625 253.432617188 891.197265625 c 0
 234.166992188 891.197265625 214.981445312 883.875976562 200.431640625 869.239257812 c 0
 196.684570312 865.470703125 190.403320312 865.452148438 186.633789062 869.19921875 c 0
 182.865234375 872.9453125 182.846679688 879.227539062 186.59375 882.99609375 c 0
 204.961914062 901.47265625 229.236328125 910.708984375 253.432617188 910.708984375 c 0
 277.630859375 910.708984375 301.8984375 901.467773438 320.349609375 883.016601562 c 0
 335.009765625 868.35546875 354.206054688 861.0390625 373.46875 861.0390625 c 0
 392.733398438 861.0390625 411.92578125 868.353515625 426.588867188 883.016601562 c 0
 430.345703125 886.774414062 436.627929688 886.774414062 440.385742188 883.016601562 c 0x98
145.201171875 284.877929688 m 1
 476.303710938 284.877929688 l 1
 405.26953125 488.4765625 335.2578125 689.368164062 310.522460938 760.623046875 c 1
 145.201171875 284.877929688 l 1
585.900390625 0.5458984375 m 0
 580.883789062 -1.20703125 575.225585938 1.521484375 573.47265625 6.5380859375 c 0
 545.994140625 85.1923828125 514.590820312 175.147460938 483.111328125 265.366210938 c 1
 138.420898438 265.366210938 l 1
 48.4833984375 6.5537109375 l 2
 46.7392578125 1.5341796875 41.0859375 -1.2041015625 36.0654296875 0.541015625 c 0
 31.0458984375 2.28515625 28.30859375 7.9384765625 30.052734375 12.9580078125 c 2
 301.272460938 793.446289062 l 2
 302.653320312 797.420898438 306.486328125 799.965820312 310.514648438 799.985351562 c 0
 310.541015625 799.995117188 310.564453125 800 310.584960938 800 c 0xd8
 313.84375 800 315.776367188 799.206054688 317.259765625 797.235351562 c 0
 319.029296875 795.493164062 320.102539062 793.108398438 320.21875 790.619140625 c 0
 320.259765625 790.49609375 320.30078125 790.370117188 320.341796875 790.244140625 c 0
 321.1640625 787.823242188 410.30078125 532.717773438 499.029296875 278.768554688 c 0
 499.166015625 278.4375 499.28515625 278.09765625 499.384765625 277.750976562 c 0
 531.72265625 185.197265625 563.990234375 92.841796875 591.893554688 12.9736328125 c 0
 593.645507812 7.95703125 590.916992188 2.298828125 585.900390625 0.5458984375 c 0
EndSplineSet
Validated: 1
EndChar

StartChar: Adieresis
Encoding: 196 196 110
Width: 621
VWidth: 9
Flags: W
HStem: 265.366 19.5117<145.201 476.304> 780 20G<310.575 312.214> 780 20G<310.575 312.214>
VStem: 221.707 19.5127<842.93 863.412> 370.976 19.5127<842.93 863.412>
LayerCount: 2
Back
Fore
SplineSet
380.731445312 863.415039062 m 0x98
 386.045898438 863.415039062 390.48828125 858.97265625 390.48828125 853.658203125 c 2
 390.48828125 852.682617188 l 2
 390.48828125 847.369140625 386.045898438 842.926757812 380.731445312 842.926757812 c 0
 375.41796875 842.926757812 370.975585938 847.369140625 370.975585938 852.682617188 c 2
 370.975585938 853.658203125 l 2
 370.975585938 858.97265625 375.41796875 863.415039062 380.731445312 863.415039062 c 0x98
231.463867188 863.415039062 m 0
 236.77734375 863.415039062 241.219726562 858.97265625 241.219726562 853.658203125 c 2
 241.219726562 852.682617188 l 2
 241.219726562 847.297851562 236.848632812 842.926757812 231.463867188 842.926757812 c 0
 226.078125 842.926757812 221.70703125 847.297851562 221.70703125 852.682617188 c 2
 221.70703125 853.658203125 l 2
 221.70703125 858.97265625 226.149414062 863.415039062 231.463867188 863.415039062 c 0
145.201171875 284.877929688 m 1
 476.303710938 284.877929688 l 1
 405.26953125 488.4765625 335.2578125 689.368164062 310.522460938 760.623046875 c 1
 145.201171875 284.877929688 l 1
585.900390625 0.5458984375 m 0
 580.883789062 -1.20703125 575.225585938 1.521484375 573.47265625 6.5380859375 c 0
 545.994140625 85.1923828125 514.590820312 175.147460938 483.111328125 265.366210938 c 1
 138.420898438 265.366210938 l 1
 48.4833984375 6.5537109375 l 2
 46.7392578125 1.5341796875 41.0859375 -1.2041015625 36.0654296875 0.541015625 c 0
 31.0458984375 2.28515625 28.30859375 7.9384765625 30.052734375 12.9580078125 c 2
 301.272460938 793.446289062 l 2
 302.653320312 797.420898438 306.486328125 799.965820312 310.514648438 799.985351562 c 0
 310.541015625 799.995117188 310.564453125 800 310.584960938 800 c 0xd8
 313.84375 800 315.776367188 799.206054688 317.259765625 797.235351562 c 0
 319.029296875 795.493164062 320.102539062 793.108398438 320.21875 790.619140625 c 0
 320.259765625 790.49609375 320.30078125 790.370117188 320.341796875 790.244140625 c 0
 321.1640625 787.823242188 410.30078125 532.717773438 499.029296875 278.768554688 c 0
 499.166015625 278.4375 499.28515625 278.09765625 499.384765625 277.750976562 c 0
 531.72265625 185.197265625 563.990234375 92.841796875 591.893554688 12.9736328125 c 0
 593.645507812 7.95703125 590.916992188 2.298828125 585.900390625 0.5458984375 c 0
EndSplineSet
Validated: 1
EndChar

StartChar: Aring
Encoding: 197 197 111
Width: 621
VWidth: 9
Flags: W
HStem: 265.366 19.5117<145.201 476.304> 780 20G<310.575 311.945> 780 20G<310.575 311.945> 1032.2 19.5117<267.671 357.208>
VStem: 175.854 19.5127<868.439 959.891> 429.512 19.5127<870.376 959.891>
LayerCount: 2
Back
Fore
SplineSet
175.853515625 915.122070312 m 0x9c
 175.853515625 990.7421875 236.818359375 1051.70703125 312.439453125 1051.70703125 c 0
 388.05859375 1051.70703125 449.024414062 990.743164062 449.024414062 915.122070312 c 0
 449.024414062 843.481445312 394.307617188 784.994140625 324.250976562 779.036132812 c 1
 342.41015625 727.018554688 420.877929688 502.4453125 499.029296875 278.768554688 c 0
 499.166015625 278.4375 499.28515625 278.09765625 499.384765625 277.750976562 c 0
 531.72265625 185.197265625 563.990234375 92.841796875 591.893554688 12.9736328125 c 0
 593.645507812 7.95703125 590.916992188 2.298828125 585.900390625 0.5458984375 c 0
 580.883789062 -1.20703125 575.225585938 1.521484375 573.47265625 6.5380859375 c 0
 545.994140625 85.1923828125 514.590820312 175.147460938 483.111328125 265.366210938 c 1
 138.420898438 265.366210938 l 1
 48.4833984375 6.5537109375 l 2
 46.7392578125 1.5341796875 41.0859375 -1.2041015625 36.0654296875 0.541015625 c 0
 31.0458984375 2.28515625 28.30859375 7.9384765625 30.052734375 12.9580078125 c 2
 296.412109375 779.459960938 l 1
 228.387695312 787.356445312 175.853515625 844.924804688 175.853515625 915.122070312 c 0x9c
145.201171875 284.877929688 m 1
 476.303710938 284.877929688 l 1
 405.26953125 488.4765625 335.2578125 689.368164062 310.522460938 760.623046875 c 1
 145.201171875 284.877929688 l 1
316.484375 798.1171875 m 0
 379.462890625 800.233398438 429.51171875 851.608398438 429.51171875 915.122070312 c 0
 429.51171875 979.989257812 377.306640625 1032.1953125 312.439453125 1032.1953125 c 0
 247.572265625 1032.1953125 195.366210938 979.990234375 195.366210938 915.122070312 c 0
 195.366210938 852.749023438 243.634765625 802.08203125 305.016601562 798.278320312 c 0
 306.626953125 799.364257812 308.547851562 799.975585938 310.514648438 799.985351562 c 0
 310.541015625 799.995117188 310.564453125 800 310.584960938 800 c 0xdc
 313.305664062 800 315.102539062 799.446289062 316.484375 798.1171875 c 0
EndSplineSet
Validated: 1
EndChar

StartChar: Ccedilla
Encoding: 199 199 112
Width: 709
VWidth: 9
Flags: W
HStem: 0.144531 19.3672<337.938 401.22 420.732 486.671> 780.488 19.5117<336.686 485.322>
VStem: 88.0488 19.5117<250.437 550.85> 401.22 19.5127<-147.314 0.144531>
LayerCount: 2
Back
Fore
SplineSet
410.9765625 -147.317382812 m 0
 405.662109375 -147.317382812 401.219726562 -142.875 401.219726562 -137.560546875 c 2
 401.219726562 0.14453125 l 1
 227.677734375 5.28515625 88.048828125 147.111328125 88.048828125 321.951171875 c 2
 88.048828125 478.048828125 l 2
 88.048828125 656.153320312 232.940429688 800 410.975585938 800 c 0
 500.494140625 800 580.069335938 763.725585938 638.454101562 705.44140625 c 0
 642.21484375 701.686523438 642.219726562 695.405273438 638.465820312 691.643554688 c 0
 634.7109375 687.8828125 628.428710938 687.877929688 624.66796875 691.631835938 c 0
 569.686523438 746.518554688 495.115234375 780.48828125 410.975585938 780.48828125 c 0
 243.64453125 780.48828125 107.560546875 645.309570312 107.560546875 478.048828125 c 2
 107.560546875 321.951171875 l 2
 107.560546875 154.690429688 243.64453125 19.51171875 410.975585938 19.51171875 c 2
 410.9765625 19.51171875 l 2
 495.1171875 19.51171875 569.684570312 53.482421875 624.564453125 108.362304688 c 0
 628.322265625 112.120117188 634.604492188 112.120117188 638.362304688 108.362304688 c 0
 642.120117188 104.604492188 642.120117188 98.322265625 638.362304688 94.564453125 c 0
 582.198242188 38.400390625 506.271484375 2.67578125 420.732421875 0.14453125 c 1
 420.732421875 -137.560546875 l 2
 420.732421875 -142.875 416.290039062 -147.317382812 410.9765625 -147.317382812 c 0
EndSplineSet
Validated: 1
EndChar

StartChar: Egrave
Encoding: 200 200 113
Width: 615
VWidth: 9
Flags: W
HStem: 0 19.5117<127.073 556.339> 390.244 19.5117<127.073 478.29> 780.488 19.5117<127.073 556.339>
VStem: 107.561 19.5127<19.5117 390.244 409.756 780.488>
CounterMasks: 1 e0
LayerCount: 2
Back
Fore
SplineSet
247.6171875 962.764648438 m 0
 250.665039062 967.118164062 256.8515625 968.209960938 261.205078125 965.163085938 c 2
 410.47265625 860.67578125 l 2
 414.826171875 857.627929688 415.91796875 851.44140625 412.87109375 847.087890625 c 0
 409.823242188 842.734375 403.63671875 841.642578125 399.283203125 844.690429688 c 2
 250.015625 949.177734375 l 2
 245.662109375 952.225585938 244.5703125 958.411132812 247.6171875 962.764648438 c 0
556.341796875 790.244140625 m 0
 556.341796875 784.9296875 551.899414062 780.48828125 546.584960938 780.48828125 c 2
 127.073242188 780.48828125 l 1
 127.073242188 409.755859375 l 1
 468.536132812 409.755859375 l 2
 473.850585938 409.755859375 478.29296875 405.314453125 478.29296875 400 c 0
 478.29296875 394.685546875 473.850585938 390.244140625 468.536132812 390.244140625 c 2
 127.073242188 390.244140625 l 1
 127.073242188 19.51171875 l 1
 546.584960938 19.51171875 l 2
 551.899414062 19.51171875 556.341796875 15.0703125 556.341796875 9.755859375 c 0
 556.341796875 4.4423828125 551.899414062 0 546.584960938 0 c 2
 117.317382812 0 l 2
 113.129882812 0 107.560546875 3.8505859375 107.560546875 9.755859375 c 2
 107.560546875 400 l 1
 107.560546875 790.244140625 l 2
 107.560546875 794.431640625 111.412109375 800 117.317382812 800 c 2
 546.584960938 800 l 2
 551.899414062 800 556.341796875 795.557617188 556.341796875 790.244140625 c 0
EndSplineSet
Validated: 1
EndChar

StartChar: Eacute
Encoding: 201 201 114
Width: 615
VWidth: 9
Flags: W
HStem: 0 19.5117<127.073 556.339> 390.244 19.5117<127.073 478.29> 780.488 19.5117<127.073 556.339>
VStem: 107.561 19.5127<19.5117 390.244 409.756 780.488>
CounterMasks: 1 e0
LayerCount: 2
Back
Fore
SplineSet
422.612304688 962.689453125 m 0
 425.670898438 958.34375 424.595703125 952.154296875 420.25 949.095703125 c 2
 271.95703125 844.705078125 l 2
 267.612304688 841.646484375 261.422851562 842.721679688 258.364257812 847.067382812 c 0
 255.3046875 851.412109375 256.379882812 857.6015625 260.725585938 860.66015625 c 2
 409.018554688 965.05078125 l 2
 413.36328125 968.109375 419.552734375 967.034179688 422.612304688 962.689453125 c 0
556.341796875 790.244140625 m 0
 556.341796875 784.9296875 551.899414062 780.48828125 546.584960938 780.48828125 c 2
 127.073242188 780.48828125 l 1
 127.073242188 409.755859375 l 1
 468.536132812 409.755859375 l 2
 473.850585938 409.755859375 478.29296875 405.314453125 478.29296875 400 c 0
 478.29296875 394.685546875 473.850585938 390.244140625 468.536132812 390.244140625 c 2
 127.073242188 390.244140625 l 1
 127.073242188 19.51171875 l 1
 546.584960938 19.51171875 l 2
 551.899414062 19.51171875 556.341796875 15.0703125 556.341796875 9.755859375 c 0
 556.341796875 4.4423828125 551.899414062 0 546.584960938 0 c 2
 117.317382812 0 l 2
 113.129882812 0 107.560546875 3.8505859375 107.560546875 9.755859375 c 2
 107.560546875 400 l 1
 107.560546875 790.244140625 l 2
 107.560546875 794.431640625 111.412109375 800 117.317382812 800 c 2
 546.584960938 800 l 2
 551.899414062 800 556.341796875 795.557617188 556.341796875 790.244140625 c 0
EndSplineSet
Validated: 1
EndChar

StartChar: Ecircumflex
Encoding: 202 202 115
Width: 615
VWidth: 9
Flags: W
HStem: 0 19.5117<127.073 556.339> 390.244 19.5117<127.073 478.29> 780.488 19.5117<127.073 556.339>
VStem: 107.561 19.5127<19.5117 390.244 409.756 780.488>
CounterMasks: 1 e0
LayerCount: 2
Back
Fore
SplineSet
180.299804688 847.087890625 m 0
 177.252929688 851.44140625 178.344726562 857.627929688 182.698242188 860.67578125 c 2
 331.965820312 965.163085938 l 2
 335.291015625 967.490234375 339.838867188 967.484375 343.155273438 965.163085938 c 2
 492.423828125 860.67578125 l 2
 496.77734375 857.627929688 497.869140625 851.44140625 494.821289062 847.087890625 c 0
 491.774414062 842.734375 485.587890625 841.642578125 481.234375 844.690429688 c 2
 337.560546875 945.26171875 l 1
 193.887695312 844.690429688 l 2
 189.534179688 841.642578125 183.34765625 842.734375 180.299804688 847.087890625 c 0
556.341796875 790.244140625 m 0
 556.341796875 784.9296875 551.899414062 780.48828125 546.584960938 780.48828125 c 2
 127.073242188 780.48828125 l 1
 127.073242188 409.755859375 l 1
 468.536132812 409.755859375 l 2
 473.850585938 409.755859375 478.29296875 405.314453125 478.29296875 400 c 0
 478.29296875 394.685546875 473.850585938 390.244140625 468.536132812 390.244140625 c 2
 127.073242188 390.244140625 l 1
 127.073242188 19.51171875 l 1
 546.584960938 19.51171875 l 2
 551.899414062 19.51171875 556.341796875 15.0703125 556.341796875 9.755859375 c 0
 556.341796875 4.4423828125 551.899414062 0 546.584960938 0 c 2
 117.317382812 0 l 2
 113.129882812 0 107.560546875 3.8505859375 107.560546875 9.755859375 c 2
 107.560546875 400 l 1
 107.560546875 790.244140625 l 2
 107.560546875 794.431640625 111.412109375 800 117.317382812 800 c 2
 546.584960938 800 l 2
 551.899414062 800 556.341796875 795.557617188 556.341796875 790.244140625 c 0
EndSplineSet
Validated: 1
EndChar

StartChar: Edieresis
Encoding: 203 203 116
Width: 615
VWidth: 9
Flags: W
HStem: 0 19.5117<127.073 556.339> 390.244 19.5117<127.073 478.29> 780.488 19.5117<127.073 556.339>
VStem: 107.561 19.5127<19.5117 390.244 409.756 780.488> 246.828 19.5127<840.979 861.461> 396.097 19.5127<840.979 861.461>
CounterMasks: 1 e0
LayerCount: 2
Back
Fore
SplineSet
405.852539062 861.463867188 m 0
 411.166992188 861.463867188 415.609375 857.021484375 415.609375 851.70703125 c 2
 415.609375 850.731445312 l 2
 415.609375 845.41796875 411.166992188 840.975585938 405.852539062 840.975585938 c 0
 400.5390625 840.975585938 396.096679688 845.41796875 396.096679688 850.731445312 c 2
 396.096679688 851.70703125 l 2
 396.096679688 857.021484375 400.5390625 861.463867188 405.852539062 861.463867188 c 0
256.584960938 861.463867188 m 0
 261.8984375 861.463867188 266.340820312 857.021484375 266.340820312 851.70703125 c 2
 266.340820312 850.731445312 l 2
 266.340820312 845.346679688 261.969726562 840.975585938 256.584960938 840.975585938 c 0
 251.19921875 840.975585938 246.828125 845.346679688 246.828125 850.731445312 c 2
 246.828125 851.70703125 l 2
 246.828125 857.021484375 251.270507812 861.463867188 256.584960938 861.463867188 c 0
556.341796875 790.244140625 m 0
 556.341796875 784.9296875 551.899414062 780.48828125 546.584960938 780.48828125 c 2
 127.073242188 780.48828125 l 1
 127.073242188 409.755859375 l 1
 468.536132812 409.755859375 l 2
 473.850585938 409.755859375 478.29296875 405.314453125 478.29296875 400 c 0
 478.29296875 394.685546875 473.850585938 390.244140625 468.536132812 390.244140625 c 2
 127.073242188 390.244140625 l 1
 127.073242188 19.51171875 l 1
 546.584960938 19.51171875 l 2
 551.899414062 19.51171875 556.341796875 15.0703125 556.341796875 9.755859375 c 0
 556.341796875 4.4423828125 551.899414062 0 546.584960938 0 c 2
 117.317382812 0 l 2
 113.129882812 0 107.560546875 3.8505859375 107.560546875 9.755859375 c 2
 107.560546875 400 l 1
 107.560546875 790.244140625 l 2
 107.560546875 794.431640625 111.412109375 800 117.317382812 800 c 2
 546.584960938 800 l 2
 551.899414062 800 556.341796875 795.557617188 556.341796875 790.244140625 c 0
EndSplineSet
Validated: 1
EndChar

StartChar: Igrave
Encoding: 204 204 117
Width: 258
VWidth: 9
Flags: W
HStem: 0 21G<127.83 133.145> 0 21G<127.83 133.145> 780 20G<127.83 133.145> 780 20G<127.83 133.145>
VStem: 120.731 19.5117<0.00324007 799.997>
LayerCount: 2
Back
Fore
SplineSet
46.3974609375 962.764648438 m 0x08
 49.4453125 967.118164062 55.6318359375 968.209960938 59.9853515625 965.163085938 c 2
 209.252929688 860.67578125 l 2
 213.606445312 857.627929688 214.698242188 851.44140625 211.651367188 847.087890625 c 0
 208.603515625 842.734375 202.416992188 841.642578125 198.063476562 844.690429688 c 2
 48.7958984375 949.177734375 l 2
 44.4423828125 952.225585938 43.3505859375 958.411132812 46.3974609375 962.764648438 c 0x08
130.487304688 800 m 0xa8
 135.801757812 800 140.243164062 795.557617188 140.243164062 790.244140625 c 2
 140.243164062 9.755859375 l 2
 140.243164062 4.4423828125 135.801757812 0 130.487304688 0 c 0
 125.172851562 0 120.731445312 4.4423828125 120.731445312 9.755859375 c 2
 120.731445312 790.244140625 l 2
 120.731445312 795.557617188 125.172851562 800 130.487304688 800 c 0xa8
EndSplineSet
Validated: 1
EndChar

StartChar: Iacute
Encoding: 205 205 118
Width: 258
VWidth: 9
Flags: W
HStem: 0 21G<130.27 135.584> 0 21G<130.27 135.584> 780 20G<130.27 135.584> 780 20G<130.27 135.584>
VStem: 123.171 19.5117<0.00324007 799.997>
LayerCount: 2
Back
Fore
SplineSet
211.149414062 962.689453125 m 0x08
 214.208007812 958.34375 213.1328125 952.154296875 208.787109375 949.095703125 c 2
 60.494140625 844.705078125 l 2
 56.1494140625 841.646484375 49.9599609375 842.721679688 46.9013671875 847.067382812 c 0
 43.841796875 851.412109375 44.9169921875 857.6015625 49.2626953125 860.66015625 c 2
 197.555664062 965.05078125 l 2
 201.900390625 968.109375 208.08984375 967.034179688 211.149414062 962.689453125 c 0x08
132.926757812 800 m 0xa8
 138.241210938 800 142.682617188 795.557617188 142.682617188 790.244140625 c 2
 142.682617188 9.755859375 l 2
 142.682617188 4.4423828125 138.241210938 0 132.926757812 0 c 0
 127.612304688 0 123.170898438 4.4423828125 123.170898438 9.755859375 c 2
 123.170898438 790.244140625 l 2
 123.170898438 795.557617188 127.612304688 800 132.926757812 800 c 0xa8
EndSplineSet
Validated: 1
EndChar

StartChar: Icircumflex
Encoding: 206 206 119
Width: 258
VWidth: 9
Flags: W
HStem: 0 21G<123.44 128.755> 0 21G<123.44 128.755> 780 20G<123.44 128.755> 780 20G<123.44 128.755>
VStem: 116.342 19.5117<0.00324007 799.997>
LayerCount: 2
Back
Fore
SplineSet
-28.236328125 847.087890625 m 0x08
 -31.283203125 851.44140625 -30.19140625 857.627929688 -25.837890625 860.67578125 c 2
 123.4296875 965.163085938 l 2
 126.754882812 967.490234375 131.302734375 967.484375 134.619140625 965.163085938 c 2
 283.887695312 860.67578125 l 2
 288.241210938 857.627929688 289.333007812 851.44140625 286.28515625 847.087890625 c 0
 283.23828125 842.734375 277.051757812 841.642578125 272.698242188 844.690429688 c 2
 129.024414062 945.26171875 l 1
 -14.6484375 844.690429688 l 2
 -19.001953125 841.642578125 -25.1884765625 842.734375 -28.236328125 847.087890625 c 0x08
126.09765625 800 m 0xa8
 131.412109375 800 135.853515625 795.557617188 135.853515625 790.244140625 c 2
 135.853515625 9.755859375 l 2
 135.853515625 4.4423828125 131.412109375 0 126.09765625 0 c 0
 120.783203125 0 116.341796875 4.4423828125 116.341796875 9.755859375 c 2
 116.341796875 790.244140625 l 2
 116.341796875 795.557617188 120.783203125 800 126.09765625 800 c 0xa8
EndSplineSet
Validated: 1
EndChar

StartChar: Idieresis
Encoding: 207 207 120
Width: 258
VWidth: 9
Flags: W
HStem: 0 21G<137.099 142.413> 0 21G<137.099 142.413> 780 20G<137.099 142.413> 780 20G<137.099 142.413>
VStem: 44.1465 19.5127<844.881 865.363> 130 19.5117<0.00324007 799.997> 193.415 19.5127<844.881 865.363>
LayerCount: 2
Back
Fore
SplineSet
203.170898438 865.366210938 m 0x0e
 208.485351562 865.366210938 212.927734375 860.923828125 212.927734375 855.609375 c 2
 212.927734375 854.633789062 l 2
 212.927734375 849.3203125 208.485351562 844.877929688 203.170898438 844.877929688 c 0
 197.857421875 844.877929688 193.415039062 849.3203125 193.415039062 854.633789062 c 2
 193.415039062 855.609375 l 2
 193.415039062 860.923828125 197.857421875 865.366210938 203.170898438 865.366210938 c 0x0e
53.9033203125 865.366210938 m 0
 59.216796875 865.366210938 63.6591796875 860.923828125 63.6591796875 855.609375 c 2
 63.6591796875 854.633789062 l 2
 63.6591796875 849.249023438 59.2880859375 844.877929688 53.9033203125 844.877929688 c 0
 48.517578125 844.877929688 44.146484375 849.249023438 44.146484375 854.633789062 c 2
 44.146484375 855.609375 l 2
 44.146484375 860.923828125 48.5888671875 865.366210938 53.9033203125 865.366210938 c 0
139.755859375 800 m 0xae
 145.0703125 800 149.51171875 795.557617188 149.51171875 790.244140625 c 2
 149.51171875 9.755859375 l 2
 149.51171875 4.4423828125 145.0703125 0 139.755859375 0 c 0
 134.44140625 0 130 4.4423828125 130 9.755859375 c 2
 130 790.244140625 l 2
 130 795.557617188 134.44140625 800 139.755859375 800 c 0xae
EndSplineSet
Validated: 1
EndChar

StartChar: Ntilde
Encoding: 209 209 121
Width: 780
VWidth: 9
Flags: W
HStem: 0 21G<114.66 119.974 662.855 664.166> 0 21G<114.66 119.974 662.855 664.166> 780 20G<116.81 118.121 661.001 666.315> 780 20G<116.81 118.121 661.001 666.315> 841.526 19.5127<413.671 486.925> 891.197 19.5117<293.657 366.889>
VStem: 107.561 19.5127<0.00324007 759.294> 653.902 19.5127<40.7061 799.997>
LayerCount: 2
Back
Fore
SplineSet
517.21484375 883.016601562 m 0x0f
 520.97265625 879.258789062 520.97265625 872.9765625 517.21484375 869.21875 c 0
 498.763671875 850.768554688 474.49609375 841.526367188 450.297851562 841.526367188 c 0
 426.098632812 841.526367188 401.833984375 850.766601562 383.381835938 869.21875 c 0
 368.71875 883.881835938 349.526367188 891.197265625 330.26171875 891.197265625 c 0
 310.99609375 891.197265625 291.810546875 883.875976562 277.260742188 869.239257812 c 0
 273.513671875 865.470703125 267.232421875 865.452148438 263.462890625 869.19921875 c 0
 259.694335938 872.9453125 259.67578125 879.227539062 263.422851562 882.99609375 c 0
 281.791015625 901.47265625 306.065429688 910.708984375 330.26171875 910.708984375 c 0
 354.459960938 910.708984375 378.727539062 901.467773438 397.178710938 883.016601562 c 0
 411.838867188 868.35546875 431.03515625 861.0390625 450.297851562 861.0390625 c 0
 469.5625 861.0390625 488.754882812 868.353515625 503.41796875 883.016601562 c 0
 507.174804688 886.774414062 513.45703125 886.774414062 517.21484375 883.016601562 c 0x0f
663.658203125 800 m 0xaf
 668.97265625 800 673.415039062 795.557617188 673.415039062 790.244140625 c 2
 673.415039062 9.755859375 l 2
 673.415039062 8.1357421875 673.002929688 6.59765625 672.278320312 5.2412109375 c 0
 671.583007812 3.88671875 670.56640625 2.6826171875 669.252929688 1.763671875 c 0
 668.418945312 1.1796875 667.517578125 0.7470703125 666.583007812 0.4609375 c 0
 665.65625 0.162109375 664.673828125 0 663.658203125 0 c 0
 662.052734375 0 660.526367188 0.40625 659.177734375 1.119140625 c 0
 657.810546875 1.814453125 656.59375 2.8369140625 655.666015625 4.1611328125 c 2
 127.073242188 759.293945312 l 1
 127.073242188 9.755859375 l 2
 127.073242188 4.4423828125 122.630859375 0 117.317382812 0 c 0
 112.002929688 0 107.560546875 4.4423828125 107.560546875 9.755859375 c 2
 107.560546875 790.244140625 l 2
 107.560546875 791.864257812 107.973632812 793.40234375 108.698242188 794.758789062 c 0
 109.393554688 796.11328125 110.41015625 797.317382812 111.72265625 798.236328125 c 0
 112.557617188 798.8203125 113.458984375 799.252929688 114.393554688 799.5390625 c 0
 115.319335938 799.837890625 116.302734375 800 117.317382812 800 c 0
 118.923828125 800 120.450195312 799.59375 121.797851562 798.880859375 c 0
 123.166015625 798.185546875 124.3828125 797.163085938 125.309570312 795.838867188 c 2
 653.90234375 40.7060546875 l 1
 653.90234375 790.244140625 l 2
 653.90234375 795.557617188 658.344726562 800 663.658203125 800 c 0xaf
EndSplineSet
Validated: 1
EndChar

StartChar: Ograve
Encoding: 210 210 122
Width: 937
VWidth: 9
Flags: W
HStem: 0 19.5117<385.24 551.832> 780.488 19.5117<385.24 551.832>
VStem: 68.5361 19.5127<316.704 483.296> 849.024 19.5117<316.704 483.296>
LayerCount: 2
Back
Fore
SplineSet
384.446289062 962.764648438 m 0
 387.494140625 967.118164062 393.680664062 968.209960938 398.034179688 965.163085938 c 2
 547.301757812 860.67578125 l 2
 551.655273438 857.627929688 552.747070312 851.44140625 549.700195312 847.087890625 c 0
 546.65234375 842.734375 540.465820312 841.642578125 536.112304688 844.690429688 c 2
 386.844726562 949.177734375 l 2
 382.491210938 952.225585938 381.399414062 958.411132812 384.446289062 962.764648438 c 0
468.536132812 19.51171875 m 0
 678.760742188 19.51171875 849.024414062 189.775390625 849.024414062 400 c 0
 849.024414062 610.224609375 678.760742188 780.48828125 468.536132812 780.48828125 c 0
 258.3125 780.48828125 88.048828125 610.224609375 88.048828125 400 c 0
 88.048828125 189.775390625 258.3125 19.51171875 468.536132812 19.51171875 c 0
468.536132812 0 m 0
 247.541992188 0 68.5361328125 179.004882812 68.5361328125 400 c 0
 68.5361328125 620.995117188 247.541992188 800 468.536132812 800 c 0
 689.53125 800 868.536132812 620.995117188 868.536132812 400 c 0
 868.536132812 179.004882812 689.53125 0 468.536132812 0 c 0
EndSplineSet
Validated: 1
EndChar

StartChar: Oacute
Encoding: 211 211 123
Width: 937
VWidth: 9
Flags: W
HStem: 0 19.5117<385.24 551.832> 780.488 19.5117<385.24 551.832>
VStem: 68.5361 19.5127<316.704 483.296> 849.024 19.5117<316.704 483.296>
LayerCount: 2
Back
Fore
SplineSet
546.758789062 962.689453125 m 0
 549.817382812 958.34375 548.7421875 952.154296875 544.396484375 949.095703125 c 2
 396.103515625 844.705078125 l 2
 391.758789062 841.646484375 385.569335938 842.721679688 382.510742188 847.067382812 c 0
 379.451171875 851.412109375 380.526367188 857.6015625 384.872070312 860.66015625 c 2
 533.165039062 965.05078125 l 2
 537.509765625 968.109375 543.69921875 967.034179688 546.758789062 962.689453125 c 0
468.536132812 19.51171875 m 0
 678.760742188 19.51171875 849.024414062 189.775390625 849.024414062 400 c 0
 849.024414062 610.224609375 678.760742188 780.48828125 468.536132812 780.48828125 c 0
 258.3125 780.48828125 88.048828125 610.224609375 88.048828125 400 c 0
 88.048828125 189.775390625 258.3125 19.51171875 468.536132812 19.51171875 c 0
468.536132812 0 m 0
 247.541992188 0 68.5361328125 179.004882812 68.5361328125 400 c 0
 68.5361328125 620.995117188 247.541992188 800 468.536132812 800 c 0
 689.53125 800 868.536132812 620.995117188 868.536132812 400 c 0
 868.536132812 179.004882812 689.53125 0 468.536132812 0 c 0
EndSplineSet
Validated: 1
EndChar

StartChar: Ocircumflex
Encoding: 212 212 124
Width: 937
VWidth: 9
Flags: W
HStem: 0 19.5117<385.24 551.832> 780.488 19.5117<385.24 551.832>
VStem: 68.5361 19.5127<316.704 483.296> 849.024 19.5117<316.704 483.296>
LayerCount: 2
Back
Fore
SplineSet
312.250976562 847.087890625 m 0
 309.204101562 851.44140625 310.295898438 857.627929688 314.649414062 860.67578125 c 2
 463.916992188 965.163085938 l 2
 467.2421875 967.490234375 471.790039062 967.484375 475.106445312 965.163085938 c 2
 624.375 860.67578125 l 2
 628.728515625 857.627929688 629.8203125 851.44140625 626.772460938 847.087890625 c 0
 623.725585938 842.734375 617.5390625 841.642578125 613.185546875 844.690429688 c 2
 469.51171875 945.26171875 l 1
 325.838867188 844.690429688 l 2
 321.485351562 841.642578125 315.298828125 842.734375 312.250976562 847.087890625 c 0
468.536132812 19.51171875 m 0
 678.760742188 19.51171875 849.024414062 189.775390625 849.024414062 400 c 0
 849.024414062 610.224609375 678.760742188 780.48828125 468.536132812 780.48828125 c 0
 258.3125 780.48828125 88.048828125 610.224609375 88.048828125 400 c 0
 88.048828125 189.775390625 258.3125 19.51171875 468.536132812 19.51171875 c 0
468.536132812 0 m 0
 247.541992188 0 68.5361328125 179.004882812 68.5361328125 400 c 0
 68.5361328125 620.995117188 247.541992188 800 468.536132812 800 c 0
 689.53125 800 868.536132812 620.995117188 868.536132812 400 c 0
 868.536132812 179.004882812 689.53125 0 468.536132812 0 c 0
EndSplineSet
Validated: 1
EndChar

StartChar: Otilde
Encoding: 213 213 125
Width: 937
VWidth: 9
Flags: W
HStem: 0 19.5117<385.24 551.832> 780.488 19.5117<385.24 551.832> 841.526 19.5127<494.891 568.145> 891.197 19.5117<374.877 448.109>
VStem: 68.5361 19.5127<316.704 483.296> 849.024 19.5117<316.704 483.296>
LayerCount: 2
Back
Fore
SplineSet
598.434570312 883.016601562 m 0
 602.192382812 879.258789062 602.192382812 872.9765625 598.434570312 869.21875 c 0
 579.983398438 850.768554688 555.715820312 841.526367188 531.517578125 841.526367188 c 0
 507.318359375 841.526367188 483.053710938 850.766601562 464.6015625 869.21875 c 0
 449.938476562 883.881835938 430.74609375 891.197265625 411.481445312 891.197265625 c 0
 392.215820312 891.197265625 373.030273438 883.875976562 358.48046875 869.239257812 c 0
 354.733398438 865.470703125 348.452148438 865.452148438 344.682617188 869.19921875 c 0
 340.9140625 872.9453125 340.895507812 879.227539062 344.642578125 882.99609375 c 0
 363.010742188 901.47265625 387.28515625 910.708984375 411.481445312 910.708984375 c 0
 435.6796875 910.708984375 459.947265625 901.467773438 478.3984375 883.016601562 c 0
 493.05859375 868.35546875 512.254882812 861.0390625 531.517578125 861.0390625 c 0
 550.782226562 861.0390625 569.974609375 868.353515625 584.637695312 883.016601562 c 0
 588.39453125 886.774414062 594.676757812 886.774414062 598.434570312 883.016601562 c 0
468.536132812 19.51171875 m 0
 678.760742188 19.51171875 849.024414062 189.775390625 849.024414062 400 c 0
 849.024414062 610.224609375 678.760742188 780.48828125 468.536132812 780.48828125 c 0
 258.3125 780.48828125 88.048828125 610.224609375 88.048828125 400 c 0
 88.048828125 189.775390625 258.3125 19.51171875 468.536132812 19.51171875 c 0
468.536132812 0 m 0
 247.541992188 0 68.5361328125 179.004882812 68.5361328125 400 c 0
 68.5361328125 620.995117188 247.541992188 800 468.536132812 800 c 0
 689.53125 800 868.536132812 620.995117188 868.536132812 400 c 0
 868.536132812 179.004882812 689.53125 0 468.536132812 0 c 0
EndSplineSet
Validated: 1
EndChar

StartChar: Odieresis
Encoding: 214 214 126
Width: 937
VWidth: 9
Flags: W
HStem: 0 19.5117<385.24 551.832> 780.488 19.5117<385.24 551.832>
VStem: 68.5361 19.5127<316.704 483.296> 380.731 19.5127<842.93 863.412> 530 19.5127<842.93 863.412> 849.024 19.5117<316.704 483.296>
LayerCount: 2
Back
Fore
SplineSet
539.755859375 863.415039062 m 0
 545.0703125 863.415039062 549.512695312 858.97265625 549.512695312 853.658203125 c 2
 549.512695312 852.682617188 l 2
 549.512695312 847.369140625 545.0703125 842.926757812 539.755859375 842.926757812 c 0
 534.442382812 842.926757812 530 847.369140625 530 852.682617188 c 2
 530 853.658203125 l 2
 530 858.97265625 534.442382812 863.415039062 539.755859375 863.415039062 c 0
390.48828125 863.415039062 m 0
 395.801757812 863.415039062 400.244140625 858.97265625 400.244140625 853.658203125 c 2
 400.244140625 852.682617188 l 2
 400.244140625 847.297851562 395.873046875 842.926757812 390.48828125 842.926757812 c 0
 385.102539062 842.926757812 380.731445312 847.297851562 380.731445312 852.682617188 c 2
 380.731445312 853.658203125 l 2
 380.731445312 858.97265625 385.173828125 863.415039062 390.48828125 863.415039062 c 0
468.536132812 19.51171875 m 0
 678.760742188 19.51171875 849.024414062 189.775390625 849.024414062 400 c 0
 849.024414062 610.224609375 678.760742188 780.48828125 468.536132812 780.48828125 c 0
 258.3125 780.48828125 88.048828125 610.224609375 88.048828125 400 c 0
 88.048828125 189.775390625 258.3125 19.51171875 468.536132812 19.51171875 c 0
468.536132812 0 m 0
 247.541992188 0 68.5361328125 179.004882812 68.5361328125 400 c 0
 68.5361328125 620.995117188 247.541992188 800 468.536132812 800 c 0
 689.53125 800 868.536132812 620.995117188 868.536132812 400 c 0
 868.536132812 179.004882812 689.53125 0 468.536132812 0 c 0
EndSplineSet
Validated: 1
EndChar

StartChar: multiply
Encoding: 215 215 127
Width: 415
VWidth: 9
Flags: W
HStem: 206.029 195.23
VStem: 117.316 195.23
LayerCount: 2
Back
Fore
SplineSet
117.31640625 206.029296875 m 0
 113.559570312 209.786132812 113.559570312 216.069335938 117.317382812 219.827148438 c 2
 201.134765625 303.64453125 l 1
 117.317382812 387.461914062 l 2
 113.559570312 391.220703125 113.559570312 397.502929688 117.31640625 401.259765625 c 0
 121.07421875 405.017578125 127.356445312 405.017578125 131.114257812 401.258789062 c 2
 214.931640625 317.44140625 l 1
 298.75 401.259765625 l 2
 302.5078125 405.017578125 308.790039062 405.017578125 312.546875 401.259765625 c 0
 316.3046875 397.501953125 316.305664062 391.220703125 312.547851562 387.461914062 c 2
 228.729492188 303.643554688 l 1
 312.546875 219.826171875 l 2
 316.3046875 216.068359375 316.3046875 209.787109375 312.546875 206.029296875 c 0
 308.790039062 202.272460938 302.5078125 202.271484375 298.75 206.029296875 c 2
 214.932617188 289.846679688 l 1
 131.114257812 206.029296875 l 2
 127.356445312 202.271484375 121.07421875 202.271484375 117.31640625 206.029296875 c 0
EndSplineSet
Validated: 1
EndChar

StartChar: Ugrave
Encoding: 217 217 128
Width: 821
VWidth: 9
Flags: W
HStem: 0 19.5117<335.769 484.231> 780 20G<95.1479 100.462 719.538 724.852> 780 20G<95.1479 100.462 719.538 724.852>
VStem: 88.0488 19.5117<249.195 799.997> 712.439 19.5117<249.163 799.997>
LayerCount: 2
Back
Fore
SplineSet
329.568359375 962.764648438 m 0x98
 332.616210938 967.118164062 338.802734375 968.209960938 343.15625 965.163085938 c 2
 492.423828125 860.67578125 l 2
 496.77734375 857.627929688 497.869140625 851.44140625 494.822265625 847.087890625 c 0
 491.774414062 842.734375 485.587890625 841.642578125 481.234375 844.690429688 c 2
 331.966796875 949.177734375 l 2
 327.61328125 952.225585938 326.521484375 958.411132812 329.568359375 962.764648438 c 0x98
722.1953125 800 m 0xd8
 727.508789062 800 731.951171875 795.557617188 731.951171875 790.244140625 c 2
 731.951171875 321.951171875 l 2
 731.951171875 143.887695312 588.063476562 0 410 0 c 0
 231.93359375 0 88.048828125 143.98828125 88.048828125 321.951171875 c 2
 88.048828125 790.244140625 l 2
 88.048828125 795.557617188 92.4912109375 800 97.8046875 800 c 0
 103.119140625 800 107.560546875 795.557617188 107.560546875 790.244140625 c 2
 107.560546875 321.951171875 l 2
 107.560546875 154.749023438 242.701171875 19.51171875 410 19.51171875 c 0
 577.301757812 19.51171875 712.439453125 154.649414062 712.439453125 321.951171875 c 2
 712.439453125 790.244140625 l 2
 712.439453125 795.557617188 716.880859375 800 722.1953125 800 c 0xd8
EndSplineSet
Validated: 1
EndChar

StartChar: Uacute
Encoding: 218 218 129
Width: 821
VWidth: 9
Flags: W
HStem: 0 19.5117<335.769 484.231> 780 20G<95.1479 100.462 719.538 724.852> 780 20G<95.1479 100.462 719.538 724.852>
VStem: 88.0488 19.5117<249.195 799.997> 712.439 19.5117<249.163 799.997>
LayerCount: 2
Back
Fore
SplineSet
491.880859375 962.689453125 m 0x98
 494.939453125 958.34375 493.864257812 952.154296875 489.518554688 949.095703125 c 2
 341.225585938 844.705078125 l 2
 336.880859375 841.646484375 330.69140625 842.721679688 327.6328125 847.067382812 c 0
 324.573242188 851.412109375 325.6484375 857.6015625 329.994140625 860.66015625 c 2
 478.287109375 965.05078125 l 2
 482.631835938 968.109375 488.821289062 967.034179688 491.880859375 962.689453125 c 0x98
722.1953125 800 m 0xd8
 727.508789062 800 731.951171875 795.557617188 731.951171875 790.244140625 c 2
 731.951171875 321.951171875 l 2
 731.951171875 143.887695312 588.063476562 0 410 0 c 0
 231.93359375 0 88.048828125 143.98828125 88.048828125 321.951171875 c 2
 88.048828125 790.244140625 l 2
 88.048828125 795.557617188 92.4912109375 800 97.8046875 800 c 0
 103.119140625 800 107.560546875 795.557617188 107.560546875 790.244140625 c 2
 107.560546875 321.951171875 l 2
 107.560546875 154.749023438 242.701171875 19.51171875 410 19.51171875 c 0
 577.301757812 19.51171875 712.439453125 154.649414062 712.439453125 321.951171875 c 2
 712.439453125 790.244140625 l 2
 712.439453125 795.557617188 716.880859375 800 722.1953125 800 c 0xd8
EndSplineSet
Validated: 1
EndChar

StartChar: Ucircumflex
Encoding: 219 219 130
Width: 821
VWidth: 9
Flags: W
HStem: 0 19.5117<335.769 484.231> 780 20G<95.1479 100.462 719.538 724.852> 780 20G<95.1479 100.462 719.538 724.852>
VStem: 88.0488 19.5117<249.195 799.997> 712.439 19.5117<249.163 799.997>
LayerCount: 2
Back
Fore
SplineSet
253.470703125 847.087890625 m 0x98
 250.423828125 851.44140625 251.515625 857.627929688 255.869140625 860.67578125 c 2
 405.13671875 965.163085938 l 2
 408.461914062 967.490234375 413.009765625 967.484375 416.326171875 965.163085938 c 2
 565.594726562 860.67578125 l 2
 569.948242188 857.627929688 571.040039062 851.44140625 567.9921875 847.087890625 c 0
 564.9453125 842.734375 558.758789062 841.642578125 554.405273438 844.690429688 c 2
 410.731445312 945.26171875 l 1
 267.05859375 844.690429688 l 2
 262.705078125 841.642578125 256.518554688 842.734375 253.470703125 847.087890625 c 0x98
722.1953125 800 m 0xd8
 727.508789062 800 731.951171875 795.557617188 731.951171875 790.244140625 c 2
 731.951171875 321.951171875 l 2
 731.951171875 143.887695312 588.063476562 0 410 0 c 0
 231.93359375 0 88.048828125 143.98828125 88.048828125 321.951171875 c 2
 88.048828125 790.244140625 l 2
 88.048828125 795.557617188 92.4912109375 800 97.8046875 800 c 0
 103.119140625 800 107.560546875 795.557617188 107.560546875 790.244140625 c 2
 107.560546875 321.951171875 l 2
 107.560546875 154.749023438 242.701171875 19.51171875 410 19.51171875 c 0
 577.301757812 19.51171875 712.439453125 154.649414062 712.439453125 321.951171875 c 2
 712.439453125 790.244140625 l 2
 712.439453125 795.557617188 716.880859375 800 722.1953125 800 c 0xd8
EndSplineSet
Validated: 1
EndChar

StartChar: Udieresis
Encoding: 220 220 131
Width: 820
VWidth: 9
Flags: W
HStem: 0 19.5117<335.769 484.231> 780 20G<95.1479 100.462 719.538 724.852> 780 20G<95.1479 100.462 719.538 724.852>
VStem: 88.0488 19.5117<249.195 799.997> 325.121 19.5127<842.93 863.412> 474.39 19.5127<842.93 863.412> 712.439 19.5117<249.163 799.997>
LayerCount: 2
Back
Fore
SplineSet
484.145507812 863.415039062 m 0x9e
 489.459960938 863.415039062 493.90234375 858.97265625 493.90234375 853.658203125 c 2
 493.90234375 852.682617188 l 2
 493.90234375 847.369140625 489.459960938 842.926757812 484.145507812 842.926757812 c 0
 478.83203125 842.926757812 474.389648438 847.369140625 474.389648438 852.682617188 c 2
 474.389648438 853.658203125 l 2
 474.389648438 858.97265625 478.83203125 863.415039062 484.145507812 863.415039062 c 0x9e
334.877929688 863.415039062 m 0
 340.19140625 863.415039062 344.633789062 858.97265625 344.633789062 853.658203125 c 2
 344.633789062 852.682617188 l 2
 344.633789062 847.297851562 340.262695312 842.926757812 334.877929688 842.926757812 c 0
 329.4921875 842.926757812 325.12109375 847.297851562 325.12109375 852.682617188 c 2
 325.12109375 853.658203125 l 2
 325.12109375 858.97265625 329.563476562 863.415039062 334.877929688 863.415039062 c 0
722.1953125 800 m 0xde
 727.508789062 800 731.951171875 795.557617188 731.951171875 790.244140625 c 2
 731.951171875 321.951171875 l 2
 731.951171875 143.887695312 588.063476562 0 410 0 c 0
 231.93359375 0 88.048828125 143.98828125 88.048828125 321.951171875 c 2
 88.048828125 790.244140625 l 2
 88.048828125 795.557617188 92.4912109375 800 97.8046875 800 c 0
 103.119140625 800 107.560546875 795.557617188 107.560546875 790.244140625 c 2
 107.560546875 321.951171875 l 2
 107.560546875 154.749023438 242.701171875 19.51171875 410 19.51171875 c 0
 577.301757812 19.51171875 712.439453125 154.649414062 712.439453125 321.951171875 c 2
 712.439453125 790.244140625 l 2
 712.439453125 795.557617188 716.880859375 800 722.1953125 800 c 0xde
EndSplineSet
Validated: 1
EndChar

StartChar: Yacute
Encoding: 221 221 132
Width: 643
VWidth: 9
Flags: W
HStem: 0 21G<318.562 323.876> 0 21G<318.562 323.876>
VStem: 311.464 19.5117<0.00324007 396.835>
LayerCount: 2
Back
Fore
SplineSet
413.977539062 962.689453125 m 0x20
 417.036132812 958.34375 415.9609375 952.154296875 411.615234375 949.095703125 c 2
 263.322265625 844.705078125 l 2
 258.977539062 841.646484375 252.788085938 842.721679688 249.729492188 847.067382812 c 0
 246.669921875 851.412109375 247.745117188 857.6015625 252.090820312 860.66015625 c 2
 400.383789062 965.05078125 l 2
 404.728515625 968.109375 410.91796875 967.034179688 413.977539062 962.689453125 c 0x20
33.5546875 798.15234375 m 0
 37.8623046875 801.263671875 44.064453125 800.264648438 47.1767578125 795.95703125 c 2
 321.233398438 416.639648438 l 1
 596.248046875 795.970703125 l 2
 599.3671875 800.272460938 605.5703125 801.26171875 609.873046875 798.142578125 c 0
 614.174804688 795.0234375 615.1640625 788.819335938 612.044921875 784.517578125 c 2
 330.975585938 396.834960938 l 1
 330.975585938 9.755859375 l 2
 330.975585938 4.4423828125 326.533203125 0 321.219726562 0 c 0xa0
 315.905273438 0 311.463867188 4.4423828125 311.463867188 9.755859375 c 2
 311.463867188 396.84375 l 1
 31.3603515625 784.530273438 l 2
 28.248046875 788.837890625 29.2470703125 795.040039062 33.5546875 798.15234375 c 0
EndSplineSet
Validated: 1
EndChar

StartChar: Oslash
Encoding: 216 216 133
Width: 937
VWidth: 9
Flags: W
HStem: 0 19.5117<383.872 551.832> 19.6279 18.5947<329.487 344.37 369.001 376.466> 780.488 19.5117<385.24 553.827>
VStem: 68.5361 19.5127<317.254 483.296> 849.024 19.5117<316.704 480.474>
LayerCount: 2
Back
Fore
SplineSet
581.46875 763.465820312 m 1
 545.791015625 774.530273438 507.86328125 780.48828125 468.536132812 780.48828125 c 0
 258.3125 780.48828125 88.048828125 610.224609375 88.048828125 400 c 0
 88.048828125 231.05859375 198.006835938 87.923828125 350.297851562 38.22265625 c 1
 581.46875 763.465820312 l 1
603.20703125 799.5390625 m 0
 608.26953125 797.92578125 611.153320312 792.34375 609.5390625 787.28125 c 2
 605.884765625 775.81640625 l 1
 759.176757812 719.815429688 868.536132812 572.734375 868.536132812 400 c 0
 868.536132812 179.004882812 689.53125 0 468.536132812 0 c 0
 432.028320312 0 396.666015625 4.884765625 363.068359375 14.0380859375 c 1
 360.758789062 6.79296875 l 2
 359.14453125 1.73046875 353.563476562 -1.1533203125 348.500976562 0.4609375 c 0
 343.4375 2.07421875 340.5546875 7.65625 342.16796875 12.71875 c 2
 344.370117188 19.6279296875 l 1
 184.204101562 71.8408203125 68.5361328125 222.353515625 68.5361328125 400 c 0
 68.5361328125 620.995117188 247.541992188 800 468.536132812 800 c 0
 509.928710938 800 549.848632812 793.719726562 587.395507812 782.060546875 c 1
 590.948242188 793.20703125 l 2
 592.5625 798.26953125 598.143554688 801.153320312 603.20703125 799.5390625 c 0
468.536132812 19.51171875 m 0
 678.760742188 19.51171875 849.024414062 189.775390625 849.024414062 400 c 0
 849.024414062 564.028320312 745.368164062 703.729492188 599.952148438 757.206054688 c 1
 369.000976562 32.6494140625 l 1
 400.724609375 24.08203125 434.09375 19.51171875 468.536132812 19.51171875 c 0
EndSplineSet
Validated: 1
EndChar

StartChar: Eth
Encoding: 208 208 134
Width: 801
VWidth: 9
Flags: W
HStem: 0 19.5117<149.024 414.541> 390.244 19.5117<-0.240901 129.512 149.024 275.85> 780.488 19.5117<149.024 415.743>
VStem: 129.512 19.5127<19.5117 390.244 409.756 780.488> 713.898 19.5195<316.157 483.843>
CounterMasks: 1 e0
LayerCount: 2
Back
Fore
SplineSet
-0.244140625 400 m 0
 -0.244140625 405.314453125 4.1982421875 409.755859375 9.51171875 409.755859375 c 2
 129.51171875 409.755859375 l 1
 129.51171875 790.244140625 l 2
 129.51171875 796.149414062 135.081054688 800 139.268554688 800 c 2
 334.390625 800 l 2
 436.381835938 800 538.4296875 760.9765625 616.411132812 682.99609375 c 0
 694.416015625 604.9921875 733.41796875 502.49609375 733.41796875 400 c 0
 733.41796875 297.50390625 694.416015625 195.0078125 616.411132812 117.00390625 c 0
 538.381835938 38.9755859375 434.424804688 0 333.415039062 0 c 2
 139.268554688 0 l 2
 133.36328125 0 129.51171875 5.568359375 129.51171875 9.755859375 c 2
 129.51171875 390.244140625 l 1
 9.51171875 390.244140625 l 2
 4.1982421875 390.244140625 -0.244140625 394.685546875 -0.244140625 400 c 0
149.024414062 19.51171875 m 1
 333.415039062 19.51171875 l 2
 429.477539062 19.51171875 528.447265625 56.634765625 602.61328125 130.80078125 c 0
 676.803710938 204.991210938 713.8984375 302.49609375 713.8984375 400 c 0
 713.8984375 497.50390625 676.803710938 595.008789062 602.61328125 669.19921875 c 0
 528.399414062 743.413085938 431.422851562 780.48828125 334.390625 780.48828125 c 2
 149.024414062 780.48828125 l 1
 149.024414062 409.755859375 l 1
 266.09765625 409.755859375 l 2
 271.412109375 409.755859375 275.853515625 405.314453125 275.853515625 400 c 0
 275.853515625 394.685546875 271.412109375 390.244140625 266.09765625 390.244140625 c 2
 149.024414062 390.244140625 l 1
 149.024414062 19.51171875 l 1
EndSplineSet
Validated: 1
EndChar

StartChar: AE
Encoding: 198 198 135
Width: 1046
VWidth: 9
Flags: W
HStem: 0 19.5117<514.391 943.655> 267.283 19.4385<222.623 494.878> 390.244 19.5117<514.391 865.606> 780.488 19.5117<514.391 943.655>
VStem: 494.878 19.5127<19.5117 265.43 284.942 390.244 409.756 754.111>
LayerCount: 2
Back
Fore
SplineSet
222.623046875 286.721679688 m 1
 494.877929688 284.942382812 l 1
 494.877929688 400 l 1
 494.877929688 754.111328125 l 1
 222.623046875 286.721679688 l 1
943.658203125 790.244140625 m 0
 943.658203125 784.9296875 939.216796875 780.48828125 933.90234375 780.48828125 c 2
 514.390625 780.48828125 l 1
 514.390625 409.755859375 l 1
 855.853515625 409.755859375 l 2
 861.16796875 409.755859375 865.609375 405.314453125 865.609375 400 c 0
 865.609375 394.685546875 861.16796875 390.244140625 855.853515625 390.244140625 c 2
 514.390625 390.244140625 l 1
 514.390625 19.51171875 l 1
 933.90234375 19.51171875 l 2
 939.216796875 19.51171875 943.658203125 15.0703125 943.658203125 9.755859375 c 0
 943.658203125 4.4423828125 939.216796875 0 933.90234375 0 c 2
 504.633789062 0 l 2
 500.447265625 0 494.877929688 3.8505859375 494.877929688 9.755859375 c 2
 494.877929688 265.4296875 l 1
 211.299804688 267.283203125 l 1
 58.4296875 4.845703125 l 2
 55.755859375 0.25390625 49.681640625 -1.3486328125 45.08984375 1.326171875 c 0
 40.4970703125 4.0009765625 38.8955078125 10.0751953125 41.5703125 14.6669921875 c 2
 496.204101562 795.154296875 l 2
 497.41015625 797.224609375 499.306640625 798.686523438 501.446289062 799.423828125 c 0
 502.422851562 799.791015625 503.490234375 800 504.633789062 800 c 2
 933.90234375 800 l 2
 939.216796875 800 943.658203125 795.557617188 943.658203125 790.244140625 c 0
EndSplineSet
Validated: 1
EndChar

StartChar: plusminus
Encoding: 177 177 136
Width: 491
VWidth: 9
Flags: W
HStem: 124.878 19.5117<107.564 383.655> 320 19.5117<107.564 235.854 255.366 383.655>
VStem: 235.854 19.5127<191.71 320 339.512 467.801>
LayerCount: 2
Back
Fore
SplineSet
107.560546875 134.633789062 m 0
 107.560546875 139.948242188 112.002929688 144.389648438 117.317382812 144.389648438 c 2
 373.90234375 144.389648438 l 2
 379.216796875 144.389648438 383.658203125 139.948242188 383.658203125 134.633789062 c 0
 383.658203125 129.3203125 379.216796875 124.877929688 373.90234375 124.877929688 c 2
 117.317382812 124.877929688 l 2
 112.002929688 124.877929688 107.560546875 129.3203125 107.560546875 134.633789062 c 0
245.609375 191.70703125 m 0
 240.295898438 191.70703125 235.853515625 196.149414062 235.853515625 201.463867188 c 2
 235.853515625 320 l 1
 117.317382812 320 l 2
 112.002929688 320 107.560546875 324.442382812 107.560546875 329.755859375 c 0
 107.560546875 335.0703125 112.002929688 339.51171875 117.317382812 339.51171875 c 2
 235.853515625 339.51171875 l 1
 235.853515625 458.048828125 l 2
 235.853515625 463.36328125 240.295898438 467.8046875 245.609375 467.8046875 c 0
 250.923828125 467.8046875 255.366210938 463.36328125 255.366210938 458.048828125 c 2
 255.366210938 339.51171875 l 1
 373.90234375 339.51171875 l 2
 379.216796875 339.51171875 383.658203125 335.0703125 383.658203125 329.755859375 c 0
 383.658203125 324.442382812 379.216796875 320 373.90234375 320 c 2
 255.366210938 320 l 1
 255.366210938 201.463867188 l 2
 255.366210938 196.149414062 250.923828125 191.70703125 245.609375 191.70703125 c 0
EndSplineSet
Validated: 1
EndChar

StartChar: agrave
Encoding: 224 224 137
Width: 621
VWidth: 9
Flags: W
HStem: 265.366 19.5117<145.201 476.304> 780 20G<310.575 312.214> 780 20G<310.575 312.214>
LayerCount: 2
Back
Fore
SplineSet
224.446289062 962.764648438 m 0x80
 227.494140625 967.118164062 233.680664062 968.209960938 238.034179688 965.163085938 c 2
 387.301757812 860.67578125 l 2
 391.655273438 857.627929688 392.747070312 851.44140625 389.700195312 847.087890625 c 0
 386.65234375 842.734375 380.465820312 841.642578125 376.112304688 844.690429688 c 2
 226.844726562 949.177734375 l 2
 222.491210938 952.225585938 221.399414062 958.411132812 224.446289062 962.764648438 c 0x80
145.201171875 284.877929688 m 1
 476.303710938 284.877929688 l 1
 405.26953125 488.4765625 335.2578125 689.368164062 310.522460938 760.623046875 c 1
 145.201171875 284.877929688 l 1
585.900390625 0.5458984375 m 0
 580.883789062 -1.20703125 575.225585938 1.521484375 573.47265625 6.5380859375 c 0
 545.994140625 85.1923828125 514.590820312 175.147460938 483.111328125 265.366210938 c 1
 138.420898438 265.366210938 l 1
 48.4833984375 6.5537109375 l 2
 46.7392578125 1.5341796875 41.0859375 -1.2041015625 36.0654296875 0.541015625 c 0
 31.0458984375 2.28515625 28.30859375 7.9384765625 30.052734375 12.9580078125 c 2
 301.272460938 793.446289062 l 2
 302.653320312 797.420898438 306.486328125 799.965820312 310.514648438 799.985351562 c 0
 310.541015625 799.995117188 310.564453125 800 310.584960938 800 c 0xc0
 313.84375 800 315.776367188 799.206054688 317.259765625 797.235351562 c 0
 319.029296875 795.493164062 320.102539062 793.108398438 320.21875 790.619140625 c 0
 320.259765625 790.49609375 320.30078125 790.370117188 320.341796875 790.244140625 c 0
 321.1640625 787.823242188 410.30078125 532.717773438 499.029296875 278.768554688 c 0
 499.166015625 278.4375 499.28515625 278.09765625 499.384765625 277.750976562 c 0
 531.72265625 185.197265625 563.990234375 92.841796875 591.893554688 12.9736328125 c 0
 593.645507812 7.95703125 590.916992188 2.298828125 585.900390625 0.5458984375 c 0
EndSplineSet
Validated: 1
EndChar

StartChar: aacute
Encoding: 225 225 138
Width: 621
VWidth: 9
Flags: W
HStem: 265.366 19.5117<145.201 476.304> 780 20G<310.575 312.214> 780 20G<310.575 312.214>
LayerCount: 2
Back
Fore
SplineSet
386.758789062 962.689453125 m 0x80
 389.817382812 958.34375 388.7421875 952.154296875 384.396484375 949.095703125 c 2
 236.103515625 844.705078125 l 2
 231.758789062 841.646484375 225.569335938 842.721679688 222.510742188 847.067382812 c 0
 219.451171875 851.412109375 220.526367188 857.6015625 224.872070312 860.66015625 c 2
 373.165039062 965.05078125 l 2
 377.509765625 968.109375 383.69921875 967.034179688 386.758789062 962.689453125 c 0x80
145.201171875 284.877929688 m 1
 476.303710938 284.877929688 l 1
 405.26953125 488.4765625 335.2578125 689.368164062 310.522460938 760.623046875 c 1
 145.201171875 284.877929688 l 1
585.900390625 0.5458984375 m 0
 580.883789062 -1.20703125 575.225585938 1.521484375 573.47265625 6.5380859375 c 0
 545.994140625 85.1923828125 514.590820312 175.147460938 483.111328125 265.366210938 c 1
 138.420898438 265.366210938 l 1
 48.4833984375 6.5537109375 l 2
 46.7392578125 1.5341796875 41.0859375 -1.2041015625 36.0654296875 0.541015625 c 0
 31.0458984375 2.28515625 28.30859375 7.9384765625 30.052734375 12.9580078125 c 2
 301.272460938 793.446289062 l 2
 302.653320312 797.420898438 306.486328125 799.965820312 310.514648438 799.985351562 c 0
 310.541015625 799.995117188 310.564453125 800 310.584960938 800 c 0xc0
 313.84375 800 315.776367188 799.206054688 317.259765625 797.235351562 c 0
 319.029296875 795.493164062 320.102539062 793.108398438 320.21875 790.619140625 c 0
 320.259765625 790.49609375 320.30078125 790.370117188 320.341796875 790.244140625 c 0
 321.1640625 787.823242188 410.30078125 532.717773438 499.029296875 278.768554688 c 0
 499.166015625 278.4375 499.28515625 278.09765625 499.384765625 277.750976562 c 0
 531.72265625 185.197265625 563.990234375 92.841796875 591.893554688 12.9736328125 c 0
 593.645507812 7.95703125 590.916992188 2.298828125 585.900390625 0.5458984375 c 0
EndSplineSet
Validated: 1
EndChar

StartChar: acircumflex
Encoding: 226 226 139
Width: 621
VWidth: 9
Flags: W
HStem: 265.366 19.5117<145.201 476.304> 780 20G<310.575 312.214> 780 20G<310.575 312.214>
LayerCount: 2
Back
Fore
SplineSet
150.299804688 847.087890625 m 0x80
 147.252929688 851.44140625 148.344726562 857.627929688 152.698242188 860.67578125 c 2
 301.965820312 965.163085938 l 2
 305.291015625 967.490234375 309.838867188 967.484375 313.155273438 965.163085938 c 2
 462.423828125 860.67578125 l 2
 466.77734375 857.627929688 467.869140625 851.44140625 464.821289062 847.087890625 c 0
 461.774414062 842.734375 455.587890625 841.642578125 451.234375 844.690429688 c 2
 307.560546875 945.26171875 l 1
 163.887695312 844.690429688 l 2
 159.534179688 841.642578125 153.34765625 842.734375 150.299804688 847.087890625 c 0x80
145.201171875 284.877929688 m 1
 476.303710938 284.877929688 l 1
 405.26953125 488.4765625 335.2578125 689.368164062 310.522460938 760.623046875 c 1
 145.201171875 284.877929688 l 1
585.900390625 0.5458984375 m 0
 580.883789062 -1.20703125 575.225585938 1.521484375 573.47265625 6.5380859375 c 0
 545.994140625 85.1923828125 514.590820312 175.147460938 483.111328125 265.366210938 c 1
 138.420898438 265.366210938 l 1
 48.4833984375 6.5537109375 l 2
 46.7392578125 1.5341796875 41.0859375 -1.2041015625 36.0654296875 0.541015625 c 0
 31.0458984375 2.28515625 28.30859375 7.9384765625 30.052734375 12.9580078125 c 2
 301.272460938 793.446289062 l 2
 302.653320312 797.420898438 306.486328125 799.965820312 310.514648438 799.985351562 c 0
 310.541015625 799.995117188 310.564453125 800 310.584960938 800 c 0xc0
 313.84375 800 315.776367188 799.206054688 317.259765625 797.235351562 c 0
 319.029296875 795.493164062 320.102539062 793.108398438 320.21875 790.619140625 c 0
 320.259765625 790.49609375 320.30078125 790.370117188 320.341796875 790.244140625 c 0
 321.1640625 787.823242188 410.30078125 532.717773438 499.029296875 278.768554688 c 0
 499.166015625 278.4375 499.28515625 278.09765625 499.384765625 277.750976562 c 0
 531.72265625 185.197265625 563.990234375 92.841796875 591.893554688 12.9736328125 c 0
 593.645507812 7.95703125 590.916992188 2.298828125 585.900390625 0.5458984375 c 0
EndSplineSet
Validated: 1
EndChar

